<svg width="211" height="279" viewBox="0 0 211 279" fill="none" xmlns="http://www.w3.org/2000/svg">
    <g clip-path="url(#clip0_455_2400)">
        <path
            d="M83.8499 123.99C83.8499 123.99 81.0899 126.33 81.2499 129.95C81.4099 133.57 84.7299 132.69 84.7299 132.69L89.8799 127.79L90.9399 125.6L83.8399 123.99H83.8499Z"
            fill="#4C4844" />
        <path
            d="M83.5702 133.66C83.0002 133.62 82.3502 133.46 81.7602 133.02C80.9002 132.39 80.4302 131.36 80.3702 129.98C80.1902 125.97 83.1602 123.41 83.2802 123.31C83.4902 123.13 83.7702 123.06 84.0502 123.12L91.1502 124.72C91.4102 124.78 91.6402 124.96 91.7502 125.2C91.8702 125.44 91.8702 125.73 91.7502 125.97L90.6902 128.16C90.6402 128.26 90.5802 128.34 90.5002 128.42L85.3502 133.32C85.2402 133.42 85.1102 133.5 84.9702 133.54C84.8702 133.57 84.2902 133.71 83.5802 133.65L83.5702 133.66ZM84.1302 124.96C83.4802 125.64 82.0302 127.46 82.1402 129.91C82.1802 130.73 82.4002 131.29 82.8002 131.59C83.2502 131.93 83.9202 131.92 84.3102 131.87L89.1602 127.26L89.6602 126.22L84.1202 124.97L84.1302 124.96Z"
            fill="black"
        />
        <path
            d="M114.3 212.06C114.3 212.06 108.5 214.53 111.35 219.53C114.2 224.53 125.94 233.73 120.39 240.59C114.84 247.45 107.03 258.54 113.45 264.02C121.71 271.06 132.81 259.84 141.63 246.62C150.45 233.4 152.61 227.82 143.92 215.34C135.23 202.86 129.99 197.98 126.05 202.5C122.11 207.02 114.31 212.06 114.31 212.06H114.3Z"
            fill="#205277"
        />
        <path
            d="M118.36 267.05C116.38 266.9 114.54 266.11 112.87 264.69C105.09 258.06 116.08 244.49 119.7 240.03C123.35 235.52 118.29 229.53 114.22 224.72C112.68 222.9 111.36 221.34 110.58 219.97C109.65 218.34 109.44 216.76 109.94 215.28C110.78 212.8 113.38 211.5 113.88 211.27C114.59 210.81 121.74 206.08 125.38 201.91C126.58 200.53 127.96 199.87 129.49 199.96C129.52 199.96 129.56 199.96 129.59 199.96C133.17 200.23 137.41 204.42 144.65 214.82C153.68 227.79 151.34 233.65 142.37 247.1C136.73 255.56 128.34 265.87 120.45 266.97C119.74 267.07 119.05 267.09 118.37 267.04L118.36 267.05ZM114.64 212.88C114.64 212.88 112.25 213.94 111.6 215.87C111.27 216.85 111.44 217.94 112.11 219.1C112.81 220.33 114.15 221.91 115.56 223.58C119.81 228.61 125.64 235.5 121.06 241.15C111.96 252.38 109.66 259.64 114.01 263.35C115.87 264.93 117.88 265.55 120.19 265.23C125.92 264.43 133.07 257.83 140.88 246.13C149.53 233.17 151.61 227.96 143.18 215.84C138.43 209.01 133.08 202.01 129.44 201.73C129.42 201.73 129.4 201.73 129.38 201.73C128.41 201.68 127.56 202.11 126.71 203.08C122.73 207.64 115.1 212.6 114.78 212.81C114.74 212.84 114.69 212.86 114.65 212.88H114.64Z"
            fill="black"
        />
        <path
            d="M100.11 152.87C100.11 152.87 119.79 184.21 122.46 187.75C125.13 191.28 131.82 199.17 122.09 207.02C112.36 214.87 107.17 215.3 99.0897 206.58C90.9997 197.86 42.7697 148.07 91.5497 123.21C91.5497 123.21 128.23 115.54 130.14 134.23L100.11 152.87Z"
            fill="#E8B7BA"
        />
        <path
            d="M109.19 213.87C105.65 213.61 102.33 211.38 98.4402 207.19L97.7802 206.48C76.2802 183.42 66.8002 163.67 69.6102 147.75C71.4502 137.29 78.7002 128.77 91.1502 122.43C91.2202 122.39 91.2902 122.37 91.3702 122.35C92.3402 122.15 115.32 117.45 125.9 125.19C128.92 127.4 130.64 130.41 131.03 134.16C131.06 134.5 130.9 134.82 130.62 135L101.35 153.17C104.37 157.97 120.79 184.07 123.18 187.23L123.52 187.67C126.26 191.25 132.67 199.65 122.67 207.72C117.23 212.11 113.09 214.17 109.21 213.88L109.19 213.87ZM91.8402 124.06C79.9802 130.13 73.0902 138.2 71.3502 148.06C68.6502 163.4 77.9702 182.64 99.0702 205.27L99.7402 205.99C107.21 214.05 111.89 214.12 121.54 206.34C130.2 199.35 124.93 192.45 122.1 188.74L121.76 188.29C119.1 184.77 100.17 154.63 99.3702 153.35C99.2402 153.15 99.2002 152.91 99.2602 152.68C99.3102 152.45 99.4602 152.25 99.6602 152.13L129.21 133.79C128.78 130.82 127.32 128.41 124.87 126.62C115.29 119.62 93.6302 123.71 91.8602 124.06H91.8402Z"
            fill="black"
        />
        <path
            d="M110.78 215.55C110.78 215.55 127.13 218.59 138.46 207.98C138.46 207.98 135.44 202 129.94 200.85C124.44 199.7 127.6 203.11 122.1 207.02C116.6 210.93 110.22 211.56 110.78 215.55Z"
            fill="#5C80AB"
        />
        <path
            d="M113.4 216.75C111.79 216.63 110.78 216.45 110.62 216.42C110.25 216.35 109.96 216.05 109.91 215.67C109.46 212.46 112.41 211.07 115.84 209.46C117.64 208.61 119.69 207.65 121.59 206.3C123.81 204.72 124.47 203.28 125 202.13C125.84 200.3 126.6 199.25 130.13 199.98C135.98 201.2 139.13 207.32 139.26 207.58C139.44 207.93 139.36 208.36 139.07 208.63C130.25 216.89 118.66 217.14 113.4 216.75ZM111.65 214.78C114.82 215.19 127.83 216.23 137.34 207.8C136.45 206.34 133.8 202.56 129.76 201.72C127.37 201.22 127.24 201.5 126.61 202.87C126.06 204.07 125.22 205.89 122.61 207.74C120.57 209.19 118.45 210.18 116.58 211.06C113.59 212.47 111.86 213.35 111.65 214.77V214.78Z"
            fill="black"
        />
        <path
            d="M83.8496 123.99C83.8496 123.99 111.97 129.21 122.96 140.11C133.95 151.01 129.72 160.23 129.72 160.23C129.72 160.23 184.11 149.67 193.15 133.35C202.19 117.02 169.18 104.85 169.18 104.85L129.31 103.88L83.8496 123.98V123.99Z"
            fill="#89817D"
        />
        <path
            d="M129.65 161.12C129.41 161.1 129.18 160.98 129.02 160.78C128.81 160.52 128.77 160.16 128.91 159.86C129.07 159.51 132.71 151.03 122.34 140.74C111.67 130.15 83.97 124.91 83.69 124.86C83.31 124.79 83.02 124.48 82.97 124.09C82.92 123.7 83.1399 123.33 83.4899 123.18L128.95 103.07C129.07 103.02 129.2 102.99 129.33 102.99L169.2 103.96C169.3 103.96 169.39 103.98 169.49 104.01C170.35 104.33 190.54 111.89 194.81 123.39C196.11 126.88 195.81 130.37 193.92 133.77C184.79 150.27 132.12 160.66 129.88 161.09C129.8 161.1 129.72 161.11 129.64 161.1L129.65 161.12ZM86.7399 123.68C94.1399 125.3 114.44 130.41 123.58 139.49C132.36 148.2 131.79 155.89 131.02 159.07C139.75 157.24 184.46 147.23 192.37 132.93C193.99 130 194.25 127 193.15 124.02C189.33 113.75 170.78 106.41 169.01 105.74L129.49 104.78L86.7499 123.68H86.7399Z"
            fill="black"
        />
        <path
            d="M123.87 89.75C123.87 89.75 117.42 107.85 131.63 115.55C145.84 123.26 171.02 123.04 171.02 123.04L123.87 89.75Z"
            fill="white" />
        <path
            d="M161.57 123.56C152.88 122.91 140.06 121.14 131.21 116.34C116.51 108.36 122.97 89.6501 123.04 89.4601C123.13 89.2001 123.34 89.0001 123.61 88.9101C123.87 88.8301 124.16 88.8701 124.39 89.0301L171.54 122.32C171.85 122.54 171.99 122.94 171.87 123.31C171.76 123.68 171.42 123.93 171.03 123.93C170.64 123.93 166.87 123.95 161.57 123.56ZM124.36 91.1801C123.24 95.1801 120.53 108.52 132.06 114.78C143.11 120.78 161.21 121.9 168.17 122.11L124.36 91.1801Z"
            fill="black"
        />
        <path
            d="M115.98 37.5201C115.98 37.5201 105.5 46.5001 111.39 55.4601C117.28 64.4201 123.5 64.0601 123.5 64.0601L130.09 49.7401L129.34 42.3301L122.52 36.8501L115.99 37.5101L115.98 37.5201Z"
            fill="black"
        />
        <path
            d="M122.96 64.9302C121.19 64.8002 115.77 63.7302 110.65 55.9402C104.41 46.4402 115.3 36.9402 115.41 36.8402C115.55 36.7202 115.72 36.6502 115.9 36.6302L122.43 35.9702C122.66 35.9402 122.89 36.0102 123.07 36.1602L129.89 41.6402C130.08 41.7902 130.19 42.0102 130.22 42.2402L130.97 49.6502C130.99 49.8102 130.96 49.9702 130.89 50.1102L124.3 64.4302C124.16 64.7302 123.87 64.9302 123.54 64.9402C123.5 64.9402 123.29 64.9502 122.95 64.9302H122.96ZM116.36 38.3702C114.94 39.6702 107.12 47.3402 112.13 54.9702C116.67 61.8802 121.41 62.9702 122.94 63.1402L129.18 49.5902L128.49 42.7902L122.24 37.7702L116.36 38.3702Z"
            fill="black"
        />
        <path
            d="M177.49 47.9399C177.49 47.9399 201.47 64.2099 205.64 84.7699C209.81 105.33 206.91 123.12 182.45 128.69C157.99 134.26 132.81 107.62 132.81 107.62C132.81 107.62 138.11 86.7699 123.7 77.3299C123.7 77.3299 119.07 71.4799 120.4 60.7099C120.4 60.7099 122.09 53.3099 127.59 49.3499C133.09 45.3899 135.87 43.3999 135.87 43.3999C135.87 43.3999 136.16 56.8199 149.57 59.0999C162.99 61.3699 174.3 57.5299 177.5 47.9299L177.49 47.9399Z"
            fill="white"
        />
        <path
            d="M172.76 130.26C151.75 128.69 133.07 109.19 132.16 108.24C131.95 108.02 131.87 107.71 131.94 107.41C131.99 107.21 136.91 87.0502 123.2 78.0802C123.12 78.0302 123.05 77.9602 122.99 77.8902C122.79 77.6402 118.15 71.6202 119.51 60.6102C119.51 60.5802 119.51 60.5502 119.53 60.5202C119.6 60.2002 121.36 52.7502 127.07 48.6402L135.35 42.6902C135.62 42.5002 135.97 42.4702 136.26 42.6202C136.55 42.7702 136.74 43.0602 136.75 43.3902C136.76 43.9102 137.2 56.1102 149.71 58.2302C163.39 60.5502 173.71 56.4902 176.65 47.6502C176.74 47.3902 176.94 47.1802 177.21 47.0902C177.48 47.0002 177.76 47.0402 177.99 47.2002C178.98 47.8702 202.32 63.9101 206.52 84.5901C211.75 110.36 204.16 124.65 182.65 129.55C179.34 130.31 176.02 130.49 172.76 130.25V130.26ZM133.78 107.36C136.79 110.4 160.05 132.9 182.26 127.84C202.62 123.2 209.77 109.57 204.78 84.9602C201.19 67.2602 182.33 52.5702 177.92 49.3402C174.25 58.1702 163.22 62.3302 149.42 60.0002C138.28 58.1102 135.73 48.8102 135.15 45.0402L128.11 50.1002C123.16 53.6602 121.42 60.3202 121.28 60.9002C120.13 70.3402 123.75 75.8902 124.33 76.7102C137.69 85.5902 134.48 104.11 133.79 107.38L133.78 107.36Z"
            fill="black"
        />
        <path d="M126.1 41.5098L127.59 49.3698L135.86 43.4198L135.57 40.5498L126.1 41.5098Z"
            fill="#E8B7BA" />
        <path
            d="M127.52 50.2599C127.43 50.2599 127.34 50.2299 127.26 50.1999C126.98 50.0899 126.77 49.8399 126.72 49.5399L125.23 41.6799C125.18 41.4399 125.24 41.1799 125.39 40.9899C125.54 40.7999 125.76 40.6599 126.01 40.6399L135.48 39.6799C135.97 39.6299 136.4 39.9899 136.45 40.4699L136.74 43.3399C136.77 43.6599 136.63 43.9599 136.38 44.1499L128.1 50.0999C127.93 50.2199 127.72 50.2799 127.52 50.2599ZM127.15 42.2899L128.2 47.8399L134.93 42.9999L134.78 41.5199L127.15 42.2899Z"
            fill="black"
        />
        <path
            d="M114.12 19.2099C114.12 19.2099 114.2 2.29985 131.28 0.969855C148.37 -0.360145 153.16 15.0299 153.6 19.4199C153.6 19.4199 161.81 14.1499 169.63 15.6399C177.45 17.1299 180.46 24.2999 180.46 24.2999C180.46 24.2999 206.88 19.3899 209.38 44.1599C211.42 64.4099 198.33 67.8799 198.33 67.8799C198.33 67.8799 184.68 48.6799 177.47 47.9299C177.47 47.9299 170.89 60.0299 154.18 59.7099C137.46 59.3899 133.05 40.8499 133.45 33.0199C133.45 33.0199 115.48 27.8899 114.11 19.1999L114.12 19.2099Z"
            fill="black"
        />
        <path
            d="M198.28 68.78C198.02 68.76 197.78 68.63 197.62 68.41C194 63.32 183.64 50.25 177.92 48.92C176.34 51.34 169.15 60.9 154.17 60.61C148.54 60.5 143.81 58.42 140.09 54.43C134.37 48.3 132.48 38.96 132.55 33.69C129.18 32.64 114.55 27.62 113.24 19.35C113.24 19.3 113.23 19.25 113.23 19.21C113.23 19.03 113.52 1.46 131.21 0.0899991C147.23 -1.15 153.07 11.79 154.28 18.01C156.88 16.59 163.4 13.56 169.8 14.78C176.68 16.09 180.01 21.47 180.98 23.34C183.74 22.95 194.19 21.95 201.95 27.77C206.74 31.36 209.54 36.85 210.27 44.09C212.36 64.85 198.71 68.72 198.57 68.76C198.47 68.79 198.37 68.79 198.28 68.79V68.78ZM177.56 47.06C177.56 47.06 177.58 47.06 177.59 47.06C184.5 47.78 196.37 63.65 198.69 66.84C201.12 65.92 210.24 61.29 208.52 44.25C207.84 37.53 205.28 32.46 200.91 29.18C192.72 23.03 180.76 25.15 180.64 25.17C180.23 25.25 179.82 25.03 179.66 24.64C179.63 24.57 176.72 17.88 169.48 16.5C162.12 15.09 154.17 20.1 154.09 20.15C153.83 20.32 153.5 20.34 153.23 20.2C152.95 20.07 152.76 19.8 152.73 19.49C152.23 14.52 147.21 0.599999 131.36 1.83C115.69 3.05 115.04 17.81 115.02 19.12C116.38 27.11 133.54 32.11 133.72 32.16C134.12 32.27 134.38 32.64 134.36 33.06C134.12 37.86 135.8 47.19 141.4 53.2C144.79 56.83 149.11 58.72 154.22 58.82C170.17 59.13 176.46 47.98 176.72 47.5C176.89 47.19 177.22 47.01 177.56 47.04V47.06Z"
            fill="black"
        />
        <path
            d="M114.12 19.2098C114.12 19.2098 113.36 24.1298 115 27.9098C115 27.9098 109.85 31.9998 113.49 37.7498C117.33 43.8298 134.24 40.6698 134.24 40.6698L133.47 33.0398C133.47 33.0398 142.74 34.2498 143.78 26.7898C144.82 19.3298 137.15 18.0398 133.83 20.6198L132.96 17.2998C132.96 17.2998 131.21 20.5298 127.21 21.2898C123.21 22.0498 122.82 19.9398 122.82 19.9398C122.82 19.9398 122.12 22.0198 118.05 22.3998C113.98 22.7798 114.14 19.2098 114.14 19.2098H114.12Z"
            fill="#E8B7BA"
        />
        <path
            d="M122.35 42.2801C118.33 41.9801 114.44 40.9301 112.74 38.2301C109.46 33.0301 112.65 29.0001 113.96 27.6801C112.54 23.8201 113.22 19.2801 113.25 19.0801C113.32 18.6101 113.73 18.2601 114.21 18.3301C114.68 18.3801 115.03 18.7801 115.01 19.2501C115.01 19.2801 114.99 20.3401 115.68 20.9801C116.17 21.4301 116.93 21.6201 117.95 21.5201C121.3 21.2101 121.95 19.7001 121.98 19.6401C122.13 19.2801 122.46 19.0501 122.9 19.0801C123.29 19.1201 123.62 19.4001 123.69 19.7901C123.8 20.1901 124.66 20.8901 127.04 20.4301C130.55 19.7601 132.16 16.9101 132.18 16.8801C132.35 16.5601 132.73 16.3801 133.07 16.4301C133.43 16.4701 133.73 16.7301 133.82 17.0801L134.39 19.2501C136.55 18.2101 139.43 18.2701 141.57 19.5101C143 20.3401 145.3 22.4001 144.67 26.9101C143.84 32.8601 138.15 34.1501 134.47 34.0101L135.14 40.5801C135.19 41.0401 134.87 41.4601 134.42 41.5401C134 41.6201 128.05 42.7001 122.37 42.2701L122.35 42.2801ZM114.85 22.5801C114.9 24.1201 115.13 25.9601 115.82 27.5601C115.98 27.9301 115.87 28.3601 115.56 28.6101C115.38 28.7601 111.09 32.2901 114.24 37.2801C116.97 41.6001 128.22 40.7601 133.27 39.9401L132.58 33.1301C132.55 32.8601 132.65 32.5901 132.84 32.4101C133.03 32.2201 133.31 32.1301 133.57 32.1701C133.92 32.2201 141.98 33.1701 142.89 26.6801C143.35 23.3701 141.93 21.7901 140.66 21.0601C138.75 19.9601 135.99 20.0801 134.36 21.3401C134.13 21.5201 133.82 21.5801 133.53 21.4801C133.25 21.3801 133.03 21.1501 132.96 20.8701L132.55 19.3001C131.54 20.3801 129.85 21.7101 127.37 22.1801C125.51 22.5401 124.06 22.3701 123.06 21.6901C122.97 21.6201 122.88 21.5601 122.8 21.4901C122.04 22.2301 120.63 23.0701 118.12 23.3001C116.78 23.4301 115.69 23.1901 114.85 22.6001V22.5801Z"
            fill="black"
        />
        <path
            d="M195.13 29.4902C195.13 29.4902 206.59 32.3702 206.24 43.5702C206.24 43.5702 204.69 36.1102 195.13 29.4902Z"
            fill="white" />
        <path
            d="M141.27 45.4302C141.27 45.4302 148.92 52.7302 158.32 53.4802C158.32 53.4802 144.89 57.2602 141.27 45.4302Z"
            fill="white" />
        <path
            d="M194.12 105.52C193.88 105.5 193.65 105.39 193.49 105.19C193.33 104.99 177.03 84.8101 159.73 80.8101C142.25 76.7801 123.95 78.2101 123.77 78.2301C123.29 78.2701 122.86 77.9101 122.82 77.4201C122.78 76.9301 123.14 76.5001 123.63 76.4601C123.82 76.4501 142.39 74.9901 160.13 79.0801C178.04 83.2101 194.2 103.23 194.88 104.08C195.19 104.46 195.12 105.02 194.74 105.33C194.56 105.48 194.34 105.54 194.12 105.52Z"
            fill="black"
        />
        <path
            d="M135.4 77.9998C135.15 77.9798 134.9 77.8498 134.74 77.6298C134.53 77.3398 129.62 70.3098 129.11 60.7898C128.58 50.9098 135.96 47.6898 136.03 47.6598C136.48 47.4698 137 47.6798 137.19 48.1298C137.38 48.5798 137.17 49.0998 136.72 49.2898C136.44 49.4098 130.42 52.1098 130.88 60.6898C131.36 69.6698 136.14 76.5298 136.19 76.5998C136.47 76.9998 136.38 77.5498 135.98 77.8398C135.8 77.9598 135.6 78.0198 135.4 77.9998Z"
            fill="black"
        />
        <path
            d="M122.77 28.8901C122.71 28.8901 122.66 28.8701 122.61 28.8401C122.39 28.7301 122.3 28.4701 122.41 28.2501C122.44 28.1901 123.11 26.8501 124.29 26.7601C125.04 26.7001 125.78 27.1601 126.47 28.1301C126.61 28.3301 126.56 28.6101 126.37 28.7501C126.17 28.8901 125.89 28.8401 125.75 28.6401C125.41 28.1601 124.89 27.6001 124.37 27.6401C123.81 27.6801 123.35 28.3801 123.22 28.6401C123.14 28.8101 122.96 28.9001 122.79 28.8801L122.77 28.8901Z"
            fill="black"
        />
        <path
            d="M118.743 29.121C119.403 29.0541 119.857 28.207 119.758 27.229C119.659 26.2509 119.044 25.5123 118.384 25.5791C117.725 25.646 117.271 26.4931 117.37 27.4711C117.469 28.4492 118.084 29.1878 118.743 29.121Z"
            fill="black"
        />
        <path
            d="M120.65 34.6299C117.22 34.3699 116.22 31.4799 116.22 31.4499C116.14 31.2199 116.27 30.9699 116.5 30.8899C116.73 30.8099 116.98 30.9399 117.06 31.1699C117.1 31.2799 118 33.8199 121.26 33.7599C124.5 33.6999 126.3 31.6299 126.79 30.5499C126.89 30.3299 127.15 30.2299 127.38 30.3299C127.6 30.4299 127.7 30.6999 127.6 30.9199C126.98 32.2699 124.95 34.5799 121.28 34.6499C121.06 34.6499 120.85 34.6499 120.65 34.6299Z"
            fill="black"
        />
        <path
            d="M134.04 28.9101C134.04 28.9101 134.8 27.1501 136.54 25.9301C138.29 24.7101 140.62 24.6401 140.62 24.6401C140.62 24.6401 137.67 25.5701 134.04 28.9101Z"
            fill="black" />
        <path
            d="M134.02 29.2401C133.96 29.2401 133.9 29.2201 133.85 29.1801C133.72 29.0901 133.67 28.9201 133.74 28.7801C133.77 28.7001 134.55 26.9201 136.36 25.6601C138.17 24.4001 140.52 24.3101 140.62 24.3101C140.79 24.3101 140.93 24.4201 140.96 24.5901C140.99 24.7501 140.89 24.9101 140.73 24.9601C140.7 24.9601 137.8 25.9201 134.27 29.1601C134.2 29.2201 134.11 29.2501 134.02 29.2501V29.2401ZM137.96 25.5601C137.54 25.7201 137.12 25.9401 136.74 26.2101C136.36 26.4801 136.03 26.7701 135.74 27.0601C136.56 26.4401 137.31 25.9501 137.96 25.5601Z"
            fill="black"
        />
        <path
            d="M119.79 31.0001C119.61 30.9901 119.45 30.8601 119.4 30.6701C119.29 30.2701 119.32 29.9301 119.5 29.6701C119.73 29.3201 120.14 29.2301 120.42 29.1901C120.79 29.1401 120.82 28.8601 120.81 28.6901C120.79 28.4501 120.97 28.2301 121.21 28.2101C121.45 28.1901 121.66 28.3601 121.69 28.6001C121.74 29.1201 121.48 29.9401 120.53 30.0601C120.27 30.0901 120.24 30.1501 120.23 30.1501C120.23 30.1601 120.2 30.2501 120.25 30.4201C120.31 30.6601 120.18 30.9001 119.94 30.9601C119.89 30.9701 119.84 30.9801 119.79 30.9701V31.0001Z"
            fill="black"
        />
        <path
            d="M129.72 160.24C129.72 160.24 126.43 160.93 120.15 154.21L130.12 153.2C130.12 153.2 131.22 157.39 129.72 160.24Z"
            fill="#4C4844" />
        <path
            d="M129.12 161.14C127.7 161.03 124.44 160.11 119.5 154.82C119.27 154.57 119.2 154.22 119.32 153.9C119.44 153.58 119.73 153.36 120.06 153.33L130.03 152.32C130.46 152.27 130.87 152.55 130.98 152.98C131.03 153.16 132.15 157.54 130.51 160.65C130.39 160.88 130.17 161.05 129.91 161.1C129.82 161.12 129.56 161.16 129.13 161.13L129.12 161.14ZM122.07 154.91C125.85 158.59 128.25 159.25 129.15 159.35C129.85 157.57 129.61 155.31 129.41 154.16L122.07 154.9V154.91Z"
            fill="black"
        />
        <path
            d="M141.32 211.28C141.32 211.28 135.86 214.42 139.28 219.05C142.71 223.68 155.47 231.4 150.78 238.87C146.09 246.34 139.66 258.29 146.7 262.96C155.74 268.96 165.42 256.49 172.59 242.31C179.76 228.13 181.24 222.33 171.12 210.98C161 199.63 155.21 195.41 151.84 200.38C148.47 205.34 141.33 211.28 141.33 211.28H141.32Z"
            fill="#205277"
        />
        <path
            d="M150.86 265.37C149.25 265.25 147.7 264.69 146.21 263.7C137.69 258.05 146.98 243.26 150.03 238.4C153.12 233.48 147.37 228.15 142.76 223.86C141.02 222.24 139.51 220.84 138.58 219.58C137.46 218.07 137.06 216.53 137.38 215.01C137.92 212.44 140.35 210.85 140.81 210.56C141.46 210.02 147.99 204.47 151.11 199.88C152.14 198.37 153.43 197.55 154.95 197.45C158.54 197.22 163.27 200.84 171.78 210.39C182.3 222.18 180.68 228.28 173.38 242.71C168.79 251.78 161.7 263.03 154 265.06C152.94 265.34 151.89 265.44 150.86 265.37ZM141.76 212.04C141.76 212.04 139.51 213.38 139.1 215.37C138.89 216.38 139.19 217.44 139.99 218.52C140.83 219.65 142.35 221.06 143.96 222.56C148.79 227.04 155.4 233.18 151.53 239.34C143.85 251.58 142.43 259.06 147.19 262.22C149.22 263.57 151.3 263.94 153.55 263.34C159.14 261.86 165.45 254.45 171.8 241.9C178.83 228 180.28 222.58 170.46 211.56C164.89 205.32 158.71 198.97 155.07 199.21C154.1 199.27 153.3 199.8 152.58 200.87C149.18 205.88 142.2 211.71 141.9 211.95C141.86 211.98 141.82 212.01 141.78 212.04H141.76Z"
            fill="black"
        />
        <path
            d="M120.14 154.21C120.14 154.21 143.43 182.97 146.51 186.16C149.59 189.35 157.17 196.38 148.45 205.34C139.73 214.3 134.63 215.35 125.56 207.66C116.49 199.97 66.4403 156.2 99.6403 128.08C99.6403 128.08 125.96 134.87 130.1 153.2L120.13 154.21H120.14Z"
            fill="#E8B7BA"
        />
        <path
            d="M135.31 213.66C132.14 213.42 128.88 211.63 124.99 208.33C113.72 198.78 87.5095 174.04 87.5195 150.67C87.5195 141.72 91.4095 133.89 99.0695 127.4C99.2895 127.21 99.5895 127.15 99.8595 127.22C100.96 127.5 126.75 134.36 130.97 153C131.03 153.25 130.97 153.51 130.82 153.71C130.67 153.91 130.44 154.05 130.19 154.07L121.85 154.92C126.4 160.52 144.49 182.79 147.13 185.54L147.52 185.94C150.67 189.17 158.05 196.74 149.08 205.95C143.72 211.45 139.58 213.98 135.3 213.66H135.31ZM99.8695 129.06C92.8595 135.14 89.2995 142.41 89.2995 150.68C89.2995 173.31 115.06 197.59 126.14 206.98C134.52 214.08 139.18 213.6 147.82 204.72C155.59 196.74 149.52 190.52 146.27 187.18L145.88 186.78C142.81 183.6 120.41 155.95 119.46 154.78C119.26 154.53 119.21 154.18 119.33 153.88C119.45 153.58 119.74 153.37 120.06 153.34L129.01 152.43C124.68 136.82 103.23 130.04 99.8695 129.07V129.06Z"
            fill="black"
        />
        <path
            d="M138.24 215.16C138.24 215.16 154.84 216.22 164.81 204.33C164.81 204.33 161.1 198.76 155.5 198.27C149.9 197.79 153.45 200.79 148.45 205.33C143.46 209.87 137.2 211.26 138.24 215.15V215.16Z"
            fill="#5C80AB"
        />
        <path
            d="M138.18 216.04C137.8 216.01 137.49 215.75 137.39 215.38C136.55 212.25 139.32 210.51 142.53 208.51C144.22 207.45 146.13 206.25 147.86 204.68C149.88 202.84 150.36 201.34 150.75 200.13C151.36 198.22 152.03 197.11 155.58 197.39C161.54 197.9 165.39 203.6 165.55 203.84C165.77 204.17 165.74 204.6 165.49 204.9C155.34 216.99 138.88 216.09 138.18 216.04ZM155.15 199.13C152.98 198.97 152.88 199.3 152.44 200.67C152.04 201.93 151.42 203.83 149.06 205.99C147.21 207.67 145.23 208.91 143.47 210.01C140.67 211.76 139.06 212.85 139.02 214.29C142.21 214.31 155.26 213.79 163.68 204.29C162.62 202.95 159.54 199.51 155.43 199.16C155.33 199.16 155.24 199.14 155.15 199.14V199.13Z"
            fill="black"
        />
        <path
            d="M102.05 78.8101C102.05 78.8101 77.6003 63.2601 57.3803 72.8401C48.5703 77.0201 39.3503 88.3201 38.2903 98.2001C37.2303 108.07 40.7903 112.99 42.4703 113.21C44.1503 113.43 47.8703 104.45 46.0103 95.8801C46.0103 95.8801 48.6103 117.08 57.0403 116.45C57.0403 116.45 58.9003 118.2 62.9503 116.95C67.0003 115.7 73.4203 106.59 76.6903 88.6101C76.6903 88.6101 80.5803 88.6901 91.1103 102.91C91.1103 102.91 115.75 89.4501 102.05 78.8001V78.8101Z"
            fill="#E8B7BA"
        />
        <path
            d="M59.6305 118.27C58.1805 118.16 57.2305 117.67 56.7705 117.35C51.7805 117.43 48.7605 110.97 47.0505 105.13C46.4205 109.02 45.0705 112.14 43.9805 113.32C43.4505 113.9 42.9004 114.15 42.3504 114.08C39.9904 113.77 36.3305 108.17 37.4105 98.0899C38.5405 87.5199 48.4505 76.0799 57.0005 72.0299C77.4205 62.3499 101.5 77.3999 102.52 78.0499C102.54 78.0599 102.57 78.0799 102.59 78.0999C105.81 80.5999 107.31 83.4899 107.05 86.6699C106.34 95.4999 92.1404 103.36 91.5304 103.69C91.1404 103.9 90.6604 103.8 90.3904 103.44C82.9505 93.3899 78.9105 90.5699 77.3705 89.7899C74.0705 107.04 67.7605 116.39 63.2105 117.8C61.7905 118.24 60.6005 118.34 59.6305 118.27ZM57.1105 115.57C57.3105 115.59 57.5005 115.67 57.6505 115.81C57.7005 115.86 59.2404 117.17 62.6905 116.11C66.0105 115.08 72.5104 106.66 75.8204 88.4599C75.9005 88.0299 76.2705 87.7199 76.7104 87.7299C77.1504 87.7299 81.2104 88.2099 91.3504 101.76C94.1404 100.11 104.73 93.4099 105.28 86.5399C105.49 83.9999 104.23 81.6399 101.54 79.5399C100.5 78.8899 76.9604 64.5499 57.7605 73.6499C49.6505 77.4999 40.2404 88.3199 39.1704 98.2999C38.2104 107.29 41.2905 111.95 42.4905 112.32C43.5905 111.65 46.1804 105.44 45.5304 98.5999C45.2704 97.1599 45.1505 96.1799 45.1305 95.9999C45.0705 95.5299 45.3905 95.0999 45.8605 95.0199C46.3205 94.9399 46.7704 95.2399 46.8705 95.7099C47.0704 96.6199 47.2005 97.5299 47.2905 98.4399C48.4705 105.04 51.5805 115.99 56.9705 115.59C57.0105 115.59 57.0604 115.59 57.1005 115.59L57.1105 115.57Z"
            fill="black"
        />
        <path
            d="M56.9802 117.34C56.6102 117.31 56.2902 117.06 56.1902 116.68C55.9602 115.8 50.5802 95.11 55.5902 88.94C55.9002 88.56 56.4602 88.5 56.8402 88.81C57.2202 89.12 57.2802 89.68 56.9702 90.06C53.2802 94.61 56.4002 110.5 57.9102 116.24C58.0302 116.71 57.7502 117.2 57.2802 117.32C57.1802 117.35 57.0802 117.35 56.9902 117.35L56.9802 117.34Z"
            fill="black"
        />
        <path
            d="M65.7499 115.38C65.4199 115.36 65.1199 115.15 64.9899 114.82C64.7799 114.3 59.9799 101.97 64.0299 90.5598C64.1899 90.0998 64.6999 89.8598 65.1599 90.0198C65.6199 90.1798 65.8599 90.6898 65.6999 91.1498C61.8799 101.92 66.5899 114.05 66.6399 114.17C66.8199 114.63 66.5999 115.14 66.1399 115.32C66.0099 115.37 65.8799 115.39 65.7499 115.38Z"
            fill="black"
        />
        <path
            d="M123.7 77.3499C123.7 77.3499 103.24 77.2399 94.3703 81.2899C85.5003 85.3399 78.0103 96.3799 77.6703 106.31C77.3303 116.23 81.2303 120.88 82.9203 120.98C84.6103 121.08 86.2803 110.95 86.8903 105.78C86.8903 105.78 87.9103 123.77 99.3803 125.5C99.3803 125.5 101.36 127.12 105.31 125.57C109.26 124.03 117.66 118.26 114.26 96.2699C114.26 96.2699 121.27 94.2099 132.8 107.64C132.8 107.64 138.12 86.9899 123.69 77.3499H123.7Z"
            fill="#E8B7BA"
        />
        <path
            d="M101.57 127.09C100.28 126.99 99.4299 126.57 99.0499 126.33C91.4799 125.06 88.2799 117.37 86.9399 111.77C85.7999 118.56 84.4399 121.94 82.8699 121.85C80.5099 121.68 76.4299 116.39 76.7799 106.26C77.1299 96.0402 84.6899 84.7102 93.9999 80.4702C102.95 76.3902 122.86 76.4502 123.71 76.4502C123.88 76.4502 124.05 76.5002 124.2 76.6002C138.98 86.4702 133.73 107.63 133.68 107.85C133.6 108.17 133.34 108.42 133.02 108.49C132.7 108.56 132.36 108.46 132.15 108.2C123.37 97.9802 117.35 97.0102 115.29 97.0302C118.29 118.07 110.57 124.44 105.65 126.37C104 127.01 102.64 127.16 101.59 127.08L101.57 127.09ZM86.9599 104.88C87.3999 104.91 87.7499 105.27 87.7799 105.71C87.7799 105.88 88.8899 123 99.5199 124.6C99.6799 124.62 99.8199 124.69 99.9499 124.79C100.01 124.83 101.64 126.03 104.99 124.72C108.61 123.3 116.68 117.7 113.39 96.3802C113.32 95.9402 113.59 95.5202 114.02 95.3902C114.32 95.3002 121.22 93.4603 132.29 105.69C133.14 100.67 134.55 85.8502 123.43 78.2102C121 78.2102 102.79 78.4002 94.7399 82.0702C86.1399 85.9902 78.8799 96.8602 78.5599 106.31C78.2599 115.22 81.5699 119.65 82.8399 120.04C83.7599 119.04 85.1899 112.59 86.0299 105.64C86.0799 105.18 86.4799 104.85 86.9399 104.86C86.9499 104.86 86.9699 104.86 86.9799 104.86L86.9599 104.88Z"
            fill="black"
        />
        <path
            d="M99.3198 126.37C98.9798 126.34 98.6698 126.12 98.5498 125.77C98.2498 124.91 91.3898 104.66 95.9398 98.1402C96.2198 97.7402 96.7698 97.6402 97.1698 97.9202C97.5698 98.2002 97.6698 98.7502 97.3898 99.1502C94.0398 103.95 98.2998 119.57 100.22 125.19C100.38 125.65 100.13 126.16 99.6698 126.32C99.5498 126.36 99.4298 126.37 99.3198 126.37Z"
            fill="black"
        />
        <path
            d="M108.28 124.72C107.97 124.7 107.69 124.52 107.55 124.22C107.29 123.68 101.27 110.83 104.48 99.1602C104.61 98.6902 105.09 98.4102 105.57 98.5402C106.04 98.6702 106.32 99.1601 106.19 99.6301C103.16 110.67 109.09 123.33 109.15 123.46C109.36 123.9 109.17 124.43 108.73 124.64C108.59 124.71 108.43 124.73 108.28 124.72Z"
            fill="black"
        />
        <path
            d="M8.10962 91.4898C8.61962 92.4098 8.57962 93.5298 8.01962 94.4198L1.43962 104.85C0.679616 106.05 0.909616 107.63 1.97962 108.56L11.2696 116.67C12.0596 117.36 12.4096 118.43 12.1896 119.45L9.58962 131.51C9.28962 132.9 10.0496 134.3 11.3696 134.81L22.8696 139.26C23.8496 139.64 24.5496 140.52 24.6896 141.56L26.3496 153.78C26.5396 155.19 27.7296 156.25 29.1496 156.28L41.4796 156.54C42.5296 156.56 43.4796 157.15 43.9696 158.08L49.7296 168.99C50.3896 170.25 51.8696 170.83 53.2096 170.37L64.8796 166.38C65.8696 166.04 66.9796 166.27 67.7496 166.97L76.8796 175.26C77.9296 176.21 79.5196 176.26 80.6296 175.37L90.2396 167.64C91.0596 166.98 92.1696 166.82 93.1396 167.22L104.56 171.88C105.87 172.42 107.38 171.92 108.12 170.7L114.49 160.14C115.03 159.24 116.02 158.71 117.07 158.75L129.39 159.23C130.81 159.28 132.06 158.3 132.33 156.91L134.73 144.81C134.93 143.78 135.68 142.94 136.68 142.62L148.42 138.86C149.77 138.43 150.61 137.07 150.39 135.67L148.49 123.49C148.33 122.45 148.74 121.41 149.57 120.77C151.57 119.21 153.2 117.96 154.51 116.95C157.18 114.89 156.2 110.65 152.9 109.97L122.82 103.75L70.3296 139L33.0896 85.1898L9.32962 80.2698C6.02962 79.5898 3.43962 83.0898 5.07962 86.0398C5.88962 87.4898 6.87962 89.2798 8.09962 91.4998L8.10962 91.4898Z"
            fill="#FFF9CC"
            stroke="black"
            stroke-width="2"
            stroke-linecap="round"
            stroke-linejoin="round"
        />
        <path
            d="M36.43 82.02C29.71 80.63 23.04 84.87 21.62 91.58C21.62 91.62 21.6 91.66 21.59 91.71C17.63 110.87 30.73 130.55 52.39 141.06L59.64 106.03C61.74 95.86 55.2 85.9 45.03 83.8L36.43 82.02Z"
            fill="#FFE976"
            stroke="black"
            stroke-width="2"
            stroke-linecap="round"
            stroke-linejoin="round"
        />
        <path
            d="M137.1 115.61C137.1 115.61 137.12 115.52 137.13 115.48C138.49 108.76 134.05 102.22 127.33 100.83L118.73 99.05C108.56 96.95 98.6 103.49 96.5 113.66L89.25 148.69C113.31 147.63 133.14 134.77 137.11 115.61H137.1Z"
            fill="#FFE976"
            stroke="black"
            stroke-width="2"
            stroke-linecap="round"
            stroke-linejoin="round"
        />
        <path
            d="M59.6504 106.04L52.4004 141.07C57.8804 143.73 63.9104 145.81 70.3604 147.14C76.8004 148.47 83.1604 148.96 89.2504 148.69L96.5004 113.66C98.6004 103.49 92.0604 93.5299 81.8904 91.4299C71.7204 89.3299 61.7604 95.8699 59.6604 106.04H59.6504Z"
            fill="#FFE44C"
            stroke="black"
            stroke-width="2"
            stroke-linecap="round"
            stroke-linejoin="round"
        />
        <path
            d="M102.05 78.8101C102.05 78.8101 77.6003 63.2601 57.3803 72.8401C48.5703 77.0201 39.3503 88.3201 38.2903 98.2001C37.2303 108.07 40.7903 112.99 42.4703 113.21C44.1503 113.43 47.8703 104.45 46.0103 95.8801C46.0103 95.8801 48.6103 117.08 57.0403 116.45C57.0403 116.45 58.9003 118.2 62.9503 116.95C67.0003 115.7 73.4203 106.59 76.6903 88.6101C76.6903 88.6101 80.5803 88.6901 91.1103 102.91C91.1103 102.91 115.75 89.4501 102.05 78.8001V78.8101Z"
            fill="#E8B7BA"
        />
        <path
            d="M59.6305 118.27C58.1805 118.16 57.2305 117.67 56.7705 117.35C51.7805 117.43 48.7605 110.97 47.0505 105.13C46.4205 109.02 45.0705 112.14 43.9805 113.32C43.4505 113.9 42.9004 114.15 42.3504 114.08C39.9904 113.77 36.3305 108.17 37.4105 98.0899C38.5405 87.5199 48.4505 76.0799 57.0005 72.0299C77.4205 62.3499 101.5 77.3999 102.52 78.0499C102.54 78.0599 102.57 78.0799 102.59 78.0999C105.81 80.5999 107.31 83.4899 107.05 86.6699C106.34 95.4999 92.1404 103.36 91.5304 103.69C91.1404 103.9 90.6604 103.8 90.3904 103.44C82.9505 93.3899 78.9105 90.5699 77.3705 89.7899C74.0705 107.04 67.7605 116.39 63.2105 117.8C61.7905 118.24 60.6005 118.34 59.6305 118.27ZM57.1105 115.57C57.3105 115.59 57.5005 115.67 57.6505 115.81C57.7005 115.86 59.2404 117.17 62.6905 116.11C66.0105 115.08 72.5104 106.66 75.8204 88.4599C75.9005 88.0299 76.2705 87.7199 76.7104 87.7299C77.1504 87.7299 81.2104 88.2099 91.3504 101.76C94.1404 100.11 104.73 93.4099 105.28 86.5399C105.49 83.9999 104.23 81.6399 101.54 79.5399C100.5 78.8899 76.9604 64.5499 57.7605 73.6499C49.6505 77.4999 40.2404 88.3199 39.1704 98.2999C38.2104 107.29 41.2905 111.95 42.4905 112.32C43.5905 111.65 46.1804 105.44 45.5304 98.5999C45.2704 97.1599 45.1505 96.1799 45.1305 95.9999C45.0705 95.5299 45.3905 95.0999 45.8605 95.0199C46.3205 94.9399 46.7704 95.2399 46.8705 95.7099C47.0704 96.6199 47.2005 97.5299 47.2905 98.4399C48.4705 105.04 51.5805 115.99 56.9705 115.59C57.0105 115.59 57.0604 115.59 57.1005 115.59L57.1105 115.57Z"
            fill="black"
        />
        <path
            d="M56.9802 117.34C56.6102 117.31 56.2902 117.06 56.1902 116.68C55.9602 115.8 50.5802 95.11 55.5902 88.94C55.9002 88.56 56.4602 88.5 56.8402 88.81C57.2202 89.12 57.2802 89.68 56.9702 90.06C53.2802 94.61 56.4002 110.5 57.9102 116.24C58.0302 116.71 57.7502 117.2 57.2802 117.32C57.1802 117.35 57.0802 117.35 56.9902 117.35L56.9802 117.34Z"
            fill="black"
        />
        <path
            d="M65.7499 115.38C65.4199 115.36 65.1199 115.15 64.9899 114.82C64.7799 114.3 59.9799 101.97 64.0299 90.5598C64.1899 90.0998 64.6999 89.8598 65.1599 90.0198C65.6199 90.1798 65.8599 90.6898 65.6999 91.1498C61.8799 101.92 66.5899 114.05 66.6399 114.17C66.8199 114.63 66.5999 115.14 66.1399 115.32C66.0099 115.37 65.8799 115.39 65.7499 115.38Z"
            fill="black"
        />
        <path
            d="M123.02 98.8099C126.3 99.6099 127.72 100.28 129.92 101.16C131.33 101.73 132.52 102.37 133.54 103.17C134.23 96.5499 133.93 84.1799 123.7 77.3499C123.7 77.3499 103.24 77.2399 94.3703 81.2899C85.5003 85.3299 78.0103 96.3799 77.6703 106.31C77.3303 116.23 81.2303 120.88 82.9203 120.98C84.6103 121.08 86.2803 110.95 86.8903 105.78C86.8903 105.78 87.9103 123.77 99.3803 125.5C99.3803 125.5 101.36 127.12 105.31 125.57C109.26 124.03 117.66 118.26 114.26 96.2699C114.26 96.2699 117.43 95.3399 123.01 98.8199L123.02 98.8099Z"
            fill="#E8B7BA"
        />
        <path
            d="M120.67 98.5398C121.06 98.5398 121.47 98.5898 121.92 98.7498C121.99 98.7798 122.06 98.7998 122.13 98.8298C123.16 98.7298 124.63 99.2298 125.65 99.5398C118.79 94.5798 114.25 95.3498 114.03 95.4198C113.6 95.5498 113.34 95.9698 113.4 96.4098C116.69 117.73 108.62 123.33 105 124.75C101.65 126.06 100.01 124.86 99.9604 124.82C99.8404 124.72 99.6904 124.65 99.5304 124.63C88.9004 123.03 87.8004 105.91 87.7904 105.74C87.7604 105.29 87.4104 104.94 86.9704 104.91C86.9604 104.91 86.9404 104.91 86.9304 104.91C86.4704 104.9 86.0804 105.23 86.0204 105.69C85.1904 112.64 83.7604 119.08 82.8304 120.09C81.5604 119.7 78.2504 115.28 78.5504 106.36C78.8704 96.9098 86.1304 86.0398 94.7304 82.1198C102.78 78.4498 121 78.2698 123.42 78.2598C132.75 84.6598 133.26 96.1098 132.68 102.6C133.28 102.98 133.83 103.4 134.33 103.87C135.09 97.2098 135.04 83.8898 124.18 76.6398C124.04 76.5398 123.87 76.4898 123.69 76.4898C122.85 76.4898 102.93 76.4298 93.9804 80.5098C84.6704 84.7498 77.1104 96.0798 76.7604 106.3C76.4104 116.42 80.4904 121.72 82.8504 121.89C84.4204 121.98 85.7904 118.59 86.9204 111.81C88.2604 117.41 91.4604 125.11 99.0304 126.37C99.4104 126.61 100.26 127.03 101.55 127.13C102.61 127.21 103.97 127.07 105.61 126.42C110.53 124.49 118.26 118.12 115.25 97.0798C116.21 97.0698 118.06 97.2998 120.64 98.5698L120.67 98.5398Z"
            fill="black"
        />
        <path
            d="M99.3198 126.37C98.9798 126.34 98.6698 126.12 98.5498 125.77C98.2498 124.91 91.3898 104.66 95.9398 98.1402C96.2198 97.7402 96.7698 97.6402 97.1698 97.9202C97.5698 98.2002 97.6698 98.7502 97.3898 99.1502C94.0398 103.95 98.2998 119.57 100.22 125.19C100.38 125.65 100.13 126.16 99.6698 126.32C99.5498 126.36 99.4298 126.37 99.3198 126.37Z"
            fill="black"
        />
        <path
            d="M108.28 124.72C107.97 124.7 107.69 124.52 107.55 124.22C107.29 123.68 101.27 110.83 104.48 99.1602C104.61 98.6902 105.09 98.4102 105.57 98.5402C106.04 98.6702 106.32 99.1601 106.19 99.6301C103.16 110.67 109.09 123.33 109.15 123.46C109.36 123.9 109.17 124.43 108.73 124.64C108.59 124.71 108.43 124.73 108.28 124.72Z"
            fill="black"
        />
    </g>
    <defs>
        <clipPath id="clip0_455_2400">
            <rect width="210.5" height="278.3" fill="white" />
        </clipPath>
    </defs>
</svg>