<svg width="175" height="293" viewBox="0 0 175 293" fill="none" xmlns="http://www.w3.org/2000/svg">
    <g clip-path="url(#clip0_455_2454)">
        <path
            d="M62.5873 88.9064C63.521 87.4663 64.2959 85.9953 65.0404 84.5248C65.7727 83.0484 66.4532 81.5697 67.0879 80.0766C68.3481 77.0936 69.4467 74.0858 70.3989 71.0529C71.3633 68.0259 72.1843 64.9677 72.9018 61.9052C73.6161 58.8335 74.2236 55.7483 74.7275 52.6435C75.2313 49.5387 75.6346 46.4233 75.9219 43.2824C76.2092 40.1415 76.3959 36.9901 76.4362 33.8135C76.4609 32.2237 76.4491 30.6314 76.3975 29.0275C76.352 27.4266 76.2639 25.8203 76.1331 24.2086C76.0023 22.5969 75.8227 20.9769 75.5881 19.3455C75.3445 17.7174 75.0611 16.0777 74.6314 14.413C73.6977 15.853 72.9105 17.3181 72.1692 18.7978C71.4308 20.2712 70.7503 21.7498 70.1156 23.243C69.481 24.7361 68.8981 26.2314 68.3426 27.7324C67.7933 29.2363 67.2776 30.7488 66.7985 32.2637C65.834 35.2907 65.016 38.3427 64.3017 41.4144C63.5874 44.4861 62.986 47.5742 62.4912 50.6758C61.9935 53.7836 61.5963 56.9019 61.312 60.0367C61.0247 63.1776 60.8441 66.332 60.8038 69.5085C60.7544 72.6882 60.8483 75.8839 61.1069 79.1134C61.2377 80.7251 61.4174 82.3452 61.6458 83.9736C61.8894 85.6017 62.1637 87.2446 62.5964 88.9032L62.5873 88.9064Z"
            fill="#94C148" stroke="black" stroke-width="2" stroke-linecap="round"
            stroke-linejoin="round" />
        <path
            d="M66.1875 66.6115C66.1875 66.6115 66.6447 51.343 44.0631 47.7121C44.0631 47.7121 58.8302 55.0894 53.3145 83.1429L57.8672 118.098L66.1875 66.6115Z"
            fill="#87B657" stroke="black" stroke-width="2" stroke-linecap="round"
            stroke-linejoin="round" />
        <path
            d="M66.1873 66.6115C66.1873 66.6115 70.5576 51.9771 93.1454 55.611C93.1454 55.611 76.8064 57.9876 73.203 86.3483L57.8702 118.107L66.1905 66.6206L66.1873 66.6115Z"
            fill="#87B657" stroke="black" stroke-width="2" stroke-linecap="round"
            stroke-linejoin="round" />
        <path
            d="M58.0696 116.783L58.0819 116.789L58.0909 116.786C68.5526 55.3803 104.413 70.8186 104.413 70.8186C87.7202 76.3341 80.5905 100.257 80.5905 100.257L69.5766 133.125L54.3892 139.636L42.0235 128.691L41.9144 94.0358C41.9144 94.0358 42.685 69.0884 28.5679 58.6161C28.5679 58.6161 67.4698 55.1999 58.0635 116.78L58.0696 116.783Z"
            fill="#62A83F" />
        <path
            d="M54.3892 139.636L69.5766 133.125L80.5905 100.257C80.5905 100.257 87.7202 76.3341 104.413 70.8186C104.413 70.8186 68.5526 55.3803 58.0909 116.786L58.0819 116.789L58.0696 116.783L58.0635 116.78C67.4698 55.1999 28.5679 58.6161 28.5679 58.6161C42.685 69.0884 41.9144 94.0358 41.9144 94.0358L42.0235 128.691L54.3892 139.636ZM54.3892 139.636L57.8703 118.092"
            stroke="black" stroke-width="2" stroke-linecap="round" stroke-linejoin="round" />
        <path
            d="M29.5051 123.732C29.5051 123.732 30.5693 89.2097 11.0398 74.7231C11.0398 74.7231 64.1843 79.0062 50.1095 166.108L39.5903 164.414L29.4989 123.729L29.5051 123.732Z"
            fill="#417E31" stroke="black" stroke-width="2" stroke-linecap="round"
            stroke-linejoin="round" />
        <path
            d="M83.0248 132.336C83.0248 132.336 92.8851 99.2306 115.984 91.5961C115.984 91.5961 64.187 78.9999 50.1122 166.102L60.6314 167.796L83.0248 132.336Z"
            fill="#417E31" stroke="black" stroke-width="2" stroke-linecap="round"
            stroke-linejoin="round" />
        <path
            d="M49.0613 142.055C50.151 138.249 51.3534 134.46 52.751 130.705C53.456 128.83 54.1853 126.952 54.994 125.096C55.7965 123.238 56.6447 121.379 57.6425 119.554C58.0142 121.607 58.2334 123.631 58.4099 125.65C58.5926 127.672 58.6928 129.677 58.7717 131.679C58.9081 135.681 58.8555 139.653 58.6962 143.611C58.3652 151.521 57.4974 159.339 56.2423 167.099L43.9999 165.129C45.255 157.368 46.8944 149.672 49.0675 142.058L49.0613 142.055Z"
            fill="#94C148" stroke="black" stroke-width="2" stroke-linecap="round"
            stroke-linejoin="round" />
        <path
            d="M35.9059 163.821C35.9059 163.821 36.523 118.016 4.94889 112.45C4.94889 112.45 53.3573 108.942 44.2749 165.169L35.9059 163.821Z"
            fill="#94C148" stroke="black" stroke-width="2" stroke-linecap="round"
            stroke-linejoin="round" />
        <path
            d="M64.3222 168.391C64.3222 168.391 78.1638 124.71 109.891 129.33C109.891 129.33 65.0388 110.824 55.9503 167.049L64.3193 168.397L64.3222 168.391Z"
            fill="#94C148" stroke="black" stroke-width="2" stroke-linecap="round"
            stroke-linejoin="round" />
        <path
            d="M19.0092 265.789L48.2427 270.494C57.9629 272.061 67.6182 267.31 72.3312 258.65L78.1989 247.871C79.451 245.564 80.3078 243.06 80.7311 240.468L86.3324 205.784C87.0419 201.388 86.4779 196.878 84.6973 192.796L77.8519 177.085C74.6939 169.841 68.0751 164.71 60.2795 163.456L41.3059 160.404C33.5103 159.15 25.6085 161.948 20.3333 167.836L8.88231 180.609C5.90806 183.924 3.94978 188.03 3.24027 192.426L-2.36099 227.109C-2.77822 229.704 -2.7596 232.35 -2.28857 234.934L-0.113629 247.002C1.63007 256.703 9.30442 264.237 19.0214 265.795L19.0092 265.789Z"
            fill="#C95706" />
        <mask id="mask0_455_2454" style="mask-type:luminance" maskUnits="userSpaceOnUse" x="-3"
            y="160" width="90" height="111">
            <path
                d="M19.0092 265.789L48.2427 270.494C57.9629 272.061 67.6182 267.31 72.3312 258.65L78.1989 247.871C79.451 245.564 80.3078 243.06 80.7311 240.468L86.3324 205.784C87.0419 201.388 86.4779 196.878 84.6973 192.796L77.8519 177.085C74.6939 169.841 68.0751 164.71 60.2795 163.456L41.3059 160.404C33.5103 159.15 25.6085 161.948 20.3333 167.836L8.88231 180.609C5.90806 183.924 3.94978 188.03 3.24027 192.426L-2.36099 227.109C-2.77822 229.704 -2.7596 232.35 -2.28857 234.934L-0.113629 247.002C1.63007 256.703 9.30442 264.237 19.0214 265.795L19.0092 265.789Z"
                fill="white" />
        </mask>
        <g mask="url(#mask0_455_2454)">
            <path
                d="M65.904 177.515C67.1566 180.074 67.8274 181.379 69.2303 184.017C69.703 184.902 69.5897 186.064 68.9438 186.811C67.009 189.047 66.0034 190.15 63.9281 192.348C62.9458 193.387 61.2869 193.134 60.5891 191.854C59.1122 189.15 58.3983 187.809 57.041 185.17C56.5835 184.285 56.801 183.173 57.5357 182.461C59.7279 180.349 60.798 179.284 62.8681 177.144C63.8447 176.132 65.3107 176.301 65.8979 177.512L65.904 177.515Z"
                fill="#FBBA03" stroke="black" stroke-width="2" stroke-linecap="round"
                stroke-linejoin="round" />
            <path
                d="M51.8724 175.689C53.0088 178.208 53.6244 179.486 54.9081 182.09C55.3411 182.963 55.1297 184.077 54.3676 184.784C52.1082 186.879 50.9557 187.927 48.6077 190.001C47.4999 190.988 45.7613 190.696 45.1002 189.434C43.709 186.755 43.0379 185.436 41.7756 182.834C41.3516 181.958 41.6518 180.878 42.4906 180.216C44.9798 178.224 46.2122 177.23 48.6192 175.236C49.7581 174.295 51.3283 174.514 51.8665 175.702L51.8724 175.689Z"
                fill="#FBBA03" stroke="black" stroke-width="2" stroke-linecap="round"
                stroke-linejoin="round" />
            <path
                d="M36.6553 173.407C37.7029 175.89 38.2636 177.157 39.4585 179.726C39.8579 180.59 39.5578 181.67 38.7099 182.335C36.181 184.316 34.8968 185.308 32.3223 187.289C31.1041 188.222 29.3012 187.907 28.6738 186.653C27.3468 183.998 26.7094 182.687 25.5113 180.109C25.1057 179.242 25.4823 178.191 26.3977 177.558C29.1379 175.672 30.502 174.733 33.206 172.86C34.4856 171.971 36.16 172.24 36.6524 173.413L36.6553 173.407Z"
                fill="#FDA801" stroke="black" stroke-width="2" stroke-linecap="round"
                stroke-linejoin="round" />
            <path
                d="M20.5875 170.746C21.5618 173.209 22.0918 174.461 23.2225 177.006C23.6035 177.862 23.2269 178.912 22.3054 179.542C19.5499 181.429 18.1738 182.377 15.4279 184.291C14.1333 185.195 12.2752 184.853 11.66 183.605C10.3698 180.968 9.75369 179.659 8.59532 177.093C8.20813 176.234 8.63063 175.198 9.61638 174.592C12.5464 172.782 14.0238 171.89 16.9726 170.119C18.3656 169.278 20.1288 169.581 20.5875 170.746Z"
                fill="#FDA801" stroke="black" stroke-width="2" stroke-linecap="round"
                stroke-linejoin="round" />
            <path
                d="M71.6694 189.352C73.1706 192.053 73.9519 193.426 75.5727 196.192C76.1161 197.118 76.0734 198.322 75.4432 199.099C73.5763 201.398 72.5986 202.537 70.5818 204.786C69.6273 205.846 67.9224 205.578 67.1418 204.251C65.4899 201.44 64.6808 200.046 63.1211 197.294C62.5991 196.371 62.7366 195.206 63.4375 194.47C65.5341 192.274 66.5488 191.168 68.505 188.935C69.4262 187.881 70.9625 188.076 71.6694 189.352Z"
                fill="#FBBA03" stroke="black" stroke-width="2" stroke-linecap="round"
                stroke-linejoin="round" />
            <path
                d="M57.0917 187.325C58.4827 189.988 59.215 191.337 60.7196 194.063C61.2233 194.977 61.0857 196.142 60.3664 196.87C58.2117 199.045 57.0991 200.119 54.8436 202.269C53.7757 203.282 52.0035 202.982 51.2596 201.672C49.6874 198.899 48.9181 197.517 47.4409 194.797C46.9434 193.886 47.1636 192.753 47.9533 192.052C50.3042 189.971 51.4689 188.929 53.7342 186.822C54.8085 185.827 56.4368 186.066 57.0917 187.325Z"
                fill="#FBBA03" stroke="black" stroke-width="2" stroke-linecap="round"
                stroke-linejoin="round" />
            <path
                d="M41.4322 184.883C42.7345 187.511 43.421 188.846 44.8491 191.542C45.3282 192.444 45.108 193.578 44.3061 194.273C41.9094 196.339 40.6897 197.37 38.2411 199.434C37.0875 200.406 35.2571 200.085 34.5407 198.781C33.0266 196.029 32.2879 194.661 30.8689 191.962C30.3928 191.053 30.6743 189.949 31.5313 189.281C34.0965 187.288 35.3807 186.296 37.9064 184.306C39.1032 183.37 40.8203 183.644 41.4322 184.883Z"
                fill="#FDA801" stroke="black" stroke-width="2" stroke-linecap="round"
                stroke-linejoin="round" />
            <path
                d="M25.0398 182.111C26.284 184.719 26.9398 186.039 28.3036 188.712C28.7614 189.612 28.4829 190.709 27.6168 191.381C25.0302 193.371 23.737 194.367 21.1536 196.366C19.9296 197.312 18.0654 196.967 17.3612 195.669C15.8716 192.928 15.1513 191.57 13.7659 188.879C13.302 187.976 13.6203 186.89 14.5355 186.242C17.263 184.319 18.633 183.368 21.3669 181.464C22.6586 180.566 24.4492 180.875 25.0398 182.111Z"
                fill="#FDA801" stroke="black" stroke-width="2" stroke-linecap="round"
                stroke-linejoin="round" />
            <path
                d="M63.1375 199.41C64.725 202.183 65.5463 203.583 67.2166 206.403C67.7786 207.353 67.69 208.542 66.9772 209.287C64.8687 211.507 63.7839 212.603 61.5621 214.776C60.5158 215.807 58.7068 215.489 57.9046 214.144C56.2066 211.303 55.3699 209.888 53.7393 207.08C53.1896 206.136 53.3485 204.973 54.1165 204.254C56.3843 202.11 57.503 201.039 59.6791 198.866C60.7072 197.842 62.3875 198.098 63.1375 199.41Z"
                fill="#FBBA03" stroke="black" stroke-width="2" stroke-linecap="round"
                stroke-linejoin="round" />
            <path
                d="M47.3358 196.855C48.8406 199.595 49.6251 200.977 51.2189 203.768C51.7564 204.706 51.5974 205.869 50.8171 206.582C48.5064 208.705 47.3267 209.762 44.9578 211.865C43.838 212.86 41.9922 212.525 41.2145 211.191C39.5655 208.374 38.7563 206.965 37.1747 204.18C36.6434 203.245 36.8543 202.1 37.6745 201.413C40.1231 199.349 41.3366 198.316 43.7363 196.243C44.8716 195.262 46.6255 195.554 47.3387 196.849L47.3358 196.855Z"
                fill="#FDA801" stroke="black" stroke-width="2" stroke-linecap="round"
                stroke-linejoin="round" />
            <path
                d="M30.6615 193.978C32.1111 196.692 32.8682 198.068 34.4068 200.833C34.9259 201.762 34.7179 202.901 33.8886 203.591C31.4217 205.646 30.1868 206.677 27.7137 208.73C26.5448 209.701 24.6745 209.354 23.9091 208.027C22.2846 205.221 21.4876 203.818 19.9306 201.045C19.4115 200.115 19.6531 198.985 20.5131 198.31C23.078 196.302 24.3743 195.3 26.9485 193.304C28.1635 192.362 29.9786 192.683 30.6674 193.966L30.6615 193.978Z"
                fill="#FDA801" stroke="black" stroke-width="2" stroke-linecap="round"
                stroke-linejoin="round" />
            <path
                d="M13.5006 190.875C14.9227 193.583 15.6614 194.95 17.1726 197.709C17.6794 198.633 17.4378 199.763 16.5779 200.438C14.019 202.449 12.7412 203.459 10.2314 205.494C9.04413 206.457 7.15543 206.101 6.38998 204.774C4.75941 201.965 3.96239 200.562 2.4115 197.792C1.89242 196.862 2.14623 195.738 3.03073 195.075C5.66313 193.099 7.00225 192.118 9.69594 190.172C10.969 189.25 12.8332 189.594 13.5006 190.875Z"
                fill="#E99606" stroke="black" stroke-width="2" stroke-linecap="round"
                stroke-linejoin="round" />
            <path
                d="M70.0916 212.038C71.8171 214.885 72.6967 216.32 74.4805 219.202C75.0793 220.17 75.0123 221.377 74.3056 222.125C72.1942 224.351 71.1064 225.453 68.8785 227.623C67.8261 228.651 65.9864 228.318 65.1597 226.961C63.4034 224.085 62.5237 222.65 60.7951 219.794C60.2147 218.835 60.3398 217.649 61.0894 216.921C63.3234 214.754 64.4235 213.658 66.5503 211.446C67.5569 210.404 69.2801 210.681 70.0975 212.026L70.0916 212.038Z"
                fill="#FBBA03" stroke="black" stroke-width="2" stroke-linecap="round"
                stroke-linejoin="round" />
            <path
                d="M53.9253 209.33C55.5803 212.15 56.4232 213.568 58.1305 216.421C58.7048 217.377 58.5735 218.56 57.8116 219.282C55.5348 221.429 54.3734 222.495 52.0261 224.616C50.9185 225.617 49.0544 225.273 48.246 223.925C46.5296 221.075 45.6774 219.645 43.9917 216.81C43.4236 215.857 43.5977 214.694 44.3903 213.987C46.7652 211.888 47.945 210.83 50.2648 208.704C51.3601 207.697 53.1507 208.006 53.9284 209.339L53.9253 209.33Z"
                fill="#FDA801" stroke="black" stroke-width="2" stroke-linecap="round"
                stroke-linejoin="round" />
            <path
                d="M36.9912 206.351C38.5973 209.148 39.4127 210.56 41.0739 213.383C41.6298 214.33 41.4618 215.496 40.657 216.197C38.2636 218.288 37.0532 219.331 34.6415 221.413C33.5033 222.399 31.6268 222.049 30.8246 220.704C29.1266 217.863 28.2776 216.442 26.6102 213.616C26.0482 212.666 26.2408 211.512 27.0701 210.823C29.5309 208.764 30.7658 207.733 33.2266 205.675C34.3893 204.7 36.2228 205.03 36.9822 206.354L36.9912 206.351Z"
                fill="#FDA801" stroke="black" stroke-width="2" stroke-linecap="round"
                stroke-linejoin="round" />
            <path
                d="M19.6988 203.192C21.2803 205.977 22.0896 207.386 23.7324 210.2C24.2822 211.145 24.0958 212.302 23.2665 212.991C20.8118 215.052 19.5892 216.089 17.1711 218.153C16.0297 219.131 14.1532 218.78 13.3419 217.438C11.6287 214.598 10.7797 213.177 9.10621 210.348C8.54422 209.398 8.7338 208.25 9.56926 207.563C12.0607 205.52 13.3263 204.504 15.8667 202.483C17.0662 201.526 18.9427 201.877 19.6836 203.192L19.6988 203.192Z"
                fill="#E99606" stroke="black" stroke-width="2" stroke-linecap="round"
                stroke-linejoin="round" />
            <path
                d="M73.7844 167.605C74.886 170.038 75.486 171.286 76.7626 173.826C77.1923 174.675 77.1275 175.83 76.5733 176.606C74.9287 178.913 74.0574 180.051 72.2357 182.318C71.3756 183.386 69.8698 183.206 69.2213 181.965C67.8552 179.344 67.206 178.057 65.9934 175.525C65.588 174.673 65.7844 173.574 66.4399 172.854C68.4062 170.694 69.3451 169.604 71.1437 167.416C71.9891 166.379 73.2531 166.465 73.7724 167.614L73.7844 167.605Z"
                fill="#FBBA03" stroke="black" stroke-width="2" stroke-linecap="round"
                stroke-linejoin="round" />
            <path
                d="M61.4909 166.494C62.4488 168.881 62.9752 170.093 64.1111 172.581C64.4948 173.415 64.2984 174.514 63.6064 175.232C61.5606 177.369 60.4996 178.431 58.3226 180.542C57.2911 181.542 55.6841 181.306 55.0969 180.095C53.847 177.515 53.2559 176.248 52.1656 173.76C51.7971 172.926 52.1067 171.873 52.8968 171.203C55.2398 169.201 56.3807 168.193 58.6018 166.178C59.6492 165.223 61.0419 165.371 61.497 166.497L61.4909 166.494Z"
                fill="#FBBA03" stroke="black" stroke-width="2" stroke-linecap="round"
                stroke-linejoin="round" />
            <path
                d="M47.8078 164.851C48.6434 167.194 49.1087 168.392 50.1161 170.833C50.454 171.653 50.1443 172.706 49.3329 173.373C46.9289 175.361 45.6965 176.355 43.2071 178.332C42.0316 179.27 40.3297 178.996 39.7822 177.796C38.6273 175.254 38.082 174.002 37.0896 171.546C36.7546 170.72 37.1653 169.709 38.0626 169.082C40.7392 167.218 42.0609 166.289 44.6615 164.427C45.8926 163.545 47.4108 163.746 47.7987 164.854L47.8078 164.851Z"
                fill="#FBBA03" stroke="black" stroke-width="2" stroke-linecap="round"
                stroke-linejoin="round" />
            <path
                d="M33.0467 162.72C33.7783 165.028 34.1978 166.212 35.1073 168.621C35.4116 169.432 35.0009 170.444 34.0885 171.07C31.3753 172.932 29.9989 173.864 27.2494 175.739C25.9484 176.625 24.173 176.315 23.659 175.124C22.5774 172.602 22.0719 171.361 21.1437 168.928C20.8333 168.114 21.3234 167.126 22.3126 166.544C25.2678 164.791 26.7395 163.927 29.6768 162.195C31.058 161.378 32.6895 161.626 33.0376 162.723L33.0467 162.72Z"
                fill="#FDA801" stroke="black" stroke-width="2" stroke-linecap="round"
                stroke-linejoin="round" />
            <path
                d="M60.8271 221.956C62.565 224.823 63.4447 226.258 65.204 229.129C65.7966 230.094 65.6715 231.28 64.9035 231.999C62.6021 234.134 61.4285 235.194 59.0564 237.288C57.9334 238.274 56.057 237.924 55.2395 236.579C53.517 233.726 52.6497 232.297 50.921 229.441C50.3406 228.482 50.4964 227.311 51.2889 226.604C53.6455 224.495 54.813 223.432 57.1083 221.294C58.1913 220.281 60.0126 220.605 60.8332 221.959L60.8271 221.956Z"
                fill="#FDA801" stroke="black" stroke-width="2" stroke-linecap="round"
                stroke-linejoin="round" />
            <path
                d="M43.9598 218.918C45.6578 221.759 46.51 223.188 48.2325 226.041C48.8129 227 48.6572 228.172 47.8614 228.87C45.4803 230.966 44.279 232.006 41.8793 234.078C40.744 235.059 38.8676 234.709 38.0592 233.36C36.346 230.52 35.4818 229.1 33.7716 226.253C33.1973 225.297 33.3624 224.137 34.1672 223.436C36.5698 221.357 37.7802 220.314 40.1736 218.224C41.3057 217.234 43.1576 217.573 43.9598 218.918Z"
                fill="#FDA801" stroke="black" stroke-width="2" stroke-linecap="round"
                stroke-linejoin="round" />
            <path
                d="M60.8271 221.956C62.565 224.823 63.4447 226.258 65.204 229.129C65.7966 230.094 65.6715 231.28 64.9035 231.999C62.6021 234.134 61.4285 235.194 59.0564 237.288C57.9334 238.274 56.057 237.924 55.2395 236.579C53.517 233.726 52.6497 232.297 50.921 229.441C50.3406 228.482 50.4964 227.311 51.2889 226.604C53.6455 224.495 54.813 223.432 57.1083 221.294C58.1913 220.281 60.0126 220.605 60.8332 221.959L60.8271 221.956Z"
                fill="#FDA801" stroke="black" stroke-width="2" stroke-linecap="round"
                stroke-linejoin="round" />
            <path
                d="M26.5719 215.72C28.2516 218.553 29.1006 219.973 30.8108 222.82C31.3851 223.776 31.22 224.936 30.4152 225.637C28.0125 227.716 26.8142 228.749 24.4419 230.827C23.3219 231.807 21.4577 231.463 20.6402 230.118C18.9057 227.275 18.0354 225.852 16.3099 223.005C15.7295 222.046 15.8855 220.889 16.6903 220.188C19.09 218.116 20.3065 217.076 22.7489 215.009C23.9055 214.031 25.782 214.381 26.5719 215.72Z"
                fill="#E99606" stroke="black" stroke-width="2" stroke-linecap="round"
                stroke-linejoin="round" />
            <path
                d="M9.06144 212.45C10.7472 215.285 11.6084 216.711 13.3278 219.555C13.902 220.511 13.7522 221.67 12.9535 222.374C10.5844 224.462 9.41967 225.504 7.13915 227.611C6.06493 228.606 4.22822 228.267 3.38944 226.919C1.60904 224.061 0.72031 222.629 -1.05396 219.774C-1.64955 218.816 -1.52127 217.638 -0.737791 216.934C1.59767 214.838 2.79286 213.796 5.22616 211.732C6.3737 210.757 8.25627 211.111 9.06144 212.45Z"
                fill="#E99606" stroke="black" stroke-width="2" stroke-linecap="round"
                stroke-linejoin="round" />
            <path
                d="M68.1659 234.821C69.9313 237.694 70.811 239.129 72.558 241.994C73.1445 242.956 73.004 244.127 72.2053 244.831C69.8333 246.925 68.6165 247.949 66.1585 249.986C64.9955 250.946 63.1068 250.59 62.32 249.26C60.6529 246.449 59.8009 245.034 58.0939 242.196C57.5196 241.24 57.6817 240.087 58.4865 239.386C60.8831 237.304 62.0599 236.253 64.3858 234.13C65.4811 233.122 67.3269 233.458 68.1598 234.818L68.1659 234.821Z"
                fill="#FDA801" stroke="black" stroke-width="2" stroke-linecap="round"
                stroke-linejoin="round" />
            <path
                d="M51.1133 231.694C52.842 234.55 53.7032 235.976 55.4226 238.82C55.9968 239.776 55.8318 240.936 55.0238 241.628C52.6057 243.692 51.3828 244.713 48.9306 246.738C47.7767 247.694 45.9003 247.344 45.1106 246.02C43.4466 243.218 42.6008 241.807 40.8969 238.978C40.3258 238.031 40.4909 236.871 41.2989 236.179C43.7047 234.11 44.9092 233.079 47.2935 230.992C48.4226 230.008 50.2898 230.347 51.1043 231.698L51.1133 231.694Z"
                fill="#FDA801" stroke="black" stroke-width="2" stroke-linecap="round"
                stroke-linejoin="round" />
            <path
                d="M33.6618 228.444C35.3811 231.287 36.2363 232.711 37.9524 235.545C38.5296 236.495 38.3585 237.652 37.5505 238.344C35.1444 240.399 33.9428 241.423 31.564 243.468C30.4376 244.43 28.5947 244.088 27.7959 242.767C26.1045 239.96 25.2496 238.551 23.5244 235.72C22.9472 234.77 23.0909 233.608 23.8837 232.916C26.2468 230.841 27.4391 229.805 29.8388 227.732C30.9741 226.751 32.8505 227.102 33.6618 228.444Z"
                fill="#E99606" stroke="black" stroke-width="2" stroke-linecap="round"
                stroke-linejoin="round" />
            <path
                d="M16.2179 225.19C17.9494 228.039 18.8198 229.462 20.5573 232.3C21.1406 233.252 20.9908 234.412 20.2102 235.11C17.8836 237.187 16.7279 238.226 14.4776 240.318C13.4154 241.303 11.6155 240.982 10.7921 239.649C9.0458 236.83 8.16638 235.41 6.39234 232.571C5.7938 231.618 5.90391 230.447 6.65992 229.738C8.91911 227.628 10.0716 226.58 12.4193 224.49C13.5272 223.504 15.3975 223.851 16.221 225.199L16.2179 225.19Z"
                fill="#E99606" stroke="black" stroke-width="2" stroke-linecap="round"
                stroke-linejoin="round" />
            <path
                d="M58.0675 244.307C59.7624 247.139 60.602 248.548 62.2508 251.35C62.8035 252.288 62.5984 253.421 61.7566 254.089C59.2432 256.084 57.971 257.067 55.4203 259.014C54.2142 259.938 52.3498 259.578 51.6184 258.29C50.0621 255.563 49.2685 254.184 47.6445 251.409C47.098 250.474 47.2939 249.344 48.1234 248.67C50.5849 246.657 51.8139 245.638 54.2475 243.589C55.3982 242.624 57.2746 242.974 58.0737 244.31L58.0675 244.307Z"
                fill="#FDA801" stroke="black" stroke-width="2" stroke-linecap="round"
                stroke-linejoin="round" />
            <path
                d="M40.8714 241.074C42.5631 243.896 43.4057 245.299 45.0513 248.092C45.604 249.03 45.408 250.16 44.5875 250.83C42.1229 252.834 40.8905 253.828 38.4406 255.801C37.2833 256.734 35.4618 256.395 34.7152 255.106C33.1314 252.373 32.3164 250.992 30.6682 248.22C30.1125 247.288 30.281 246.153 31.0799 245.464C33.4558 243.425 34.6635 242.404 37.0666 240.355C38.205 239.384 40.0785 239.74 40.8805 241.07L40.8714 241.074Z"
                fill="#E99606" stroke="black" stroke-width="2" stroke-linecap="round"
                stroke-linejoin="round" />
            <path
                d="M78.8921 178.877C80.2855 181.488 81.0205 182.816 82.5641 185.508C83.0798 186.413 83.095 187.621 82.5716 188.428C81.0074 190.819 80.1763 191.998 78.4256 194.338C77.5995 195.444 76.0264 195.232 75.2796 193.929C73.6894 191.177 72.9235 189.819 71.4591 187.136C70.9648 186.234 71.0751 185.078 71.6965 184.319C73.5457 182.057 74.4322 180.919 76.1043 178.618C76.8973 177.533 78.2406 177.642 78.8983 178.88L78.8921 178.877Z"
                fill="#FBBA03" stroke="black" stroke-width="2" stroke-linecap="round"
                stroke-linejoin="round" />
            <path
                d="M78.2259 201.646C79.9144 204.46 80.7847 205.883 82.5622 208.747C83.1578 209.705 83.1521 210.942 82.5341 211.725C80.6829 214.054 79.7084 215.202 77.7041 217.473C76.7527 218.542 74.9959 218.256 74.163 216.896C72.3915 214.02 71.5241 212.591 69.8109 209.75C69.2366 208.794 69.3252 207.605 70.0136 206.848C72.0577 204.604 73.0477 203.471 74.9421 201.178C75.8385 200.098 77.433 200.313 78.235 201.643L78.2259 201.646Z"
                fill="#FBBA03" stroke="black" stroke-width="2" stroke-linecap="round"
                stroke-linejoin="round" />
            <path
                d="M77.3365 224.813C79.1449 227.707 80.0522 229.164 81.8789 232.066C82.4899 233.04 82.42 234.253 81.6949 234.992C79.5254 237.198 78.4099 238.279 76.1207 240.42C75.0377 241.433 73.1735 241.089 72.3406 239.729C70.5813 236.859 69.6955 235.42 67.9331 232.541C67.3404 231.576 67.4655 230.39 68.2152 229.662C70.4675 227.503 71.5676 226.408 73.7126 224.19C74.7221 223.141 76.4943 223.442 77.3456 224.81L77.3365 224.813Z"
                fill="#FBBA03" stroke="black" stroke-width="2" stroke-linecap="round"
                stroke-linejoin="round" />
            <path
                d="M75.2701 247.528C76.9956 250.375 77.8507 251.798 79.5271 254.621C80.0891 255.572 79.8964 256.71 79.0577 257.388C76.5506 259.401 75.2694 260.387 72.6699 262.326C71.4425 263.247 69.5506 262.882 68.816 261.584C67.2656 258.844 66.472 257.466 64.8448 254.682C64.2983 253.746 64.5033 252.613 65.3358 251.933C67.8215 249.917 69.0474 248.889 71.4471 246.817C72.5824 245.836 74.4527 246.184 75.2701 247.528Z"
                fill="#FDA801" stroke="black" stroke-width="2" stroke-linecap="round"
                stroke-linejoin="round" />
            <path
                d="M23.5284 237.83C25.2444 240.65 26.0993 242.058 27.7814 244.853C28.3431 245.788 28.1808 246.927 27.3909 247.612C25.0394 249.648 23.8773 250.668 21.5956 252.699C20.5148 253.661 18.7576 253.345 17.9774 252.048C16.3325 249.301 15.4901 247.914 13.7808 245.128C13.2038 244.193 13.3232 243.034 14.0888 242.352C16.3239 240.26 17.4705 239.225 19.791 237.144C20.8743 236.146 22.7232 236.491 23.5405 237.821L23.5284 237.83Z"
                fill="#E99606" stroke="black" stroke-width="2" stroke-linecap="round"
                stroke-linejoin="round" />
            <path
                d="M6.50297 234.445C8.27088 237.282 9.15325 238.696 10.8935 241.511C11.4736 242.455 11.3633 243.611 10.6315 244.317C8.45135 246.42 7.38714 247.472 5.33498 249.591C4.36428 250.59 2.67444 250.307 1.85452 248.998C0.11794 246.222 -0.770322 244.821 -2.5623 242.002C-3.16378 241.056 -3.12381 239.874 -2.44113 239.144C-0.404866 236.98 0.652993 235.909 2.82364 233.78C3.852 232.77 5.67645 233.103 6.50909 234.448L6.50297 234.445Z"
                fill="#E99606" stroke="black" stroke-width="2" stroke-linecap="round"
                stroke-linejoin="round" />
            <path
                d="M64.9262 256.851C66.5227 259.621 67.3102 260.996 68.8268 263.712C69.3395 264.624 69.0639 265.715 68.1699 266.351C65.5027 268.242 64.1536 269.165 61.4338 270.993C60.1507 271.857 58.2986 271.504 57.65 270.263C56.281 267.648 55.5612 266.32 54.0816 263.637C53.5872 262.734 53.8386 261.646 54.7019 260.996C57.2742 259.066 58.5586 258.09 61.0907 256.118C62.2875 255.182 64.1732 255.545 64.9262 256.851Z"
                fill="#FDA801" stroke="black" stroke-width="2" stroke-linecap="round"
                stroke-linejoin="round" />
            <path
                d="M47.7414 253.578C49.3439 256.335 50.1313 257.711 51.6538 260.415C52.1666 261.326 51.9152 262.414 51.0487 263.055C48.4701 264.967 47.1791 265.91 44.6029 267.785C43.3841 268.672 41.5901 268.339 40.9263 267.098C39.5146 264.478 38.7796 263.15 37.2634 260.464C36.7539 259.562 36.9655 258.462 37.7892 257.801C40.2422 255.837 41.4808 254.845 43.9457 252.857C45.115 251.915 46.9824 252.269 47.7353 253.575L47.7414 253.578Z"
                fill="#E99606" stroke="black" stroke-width="2" stroke-linecap="round"
                stroke-linejoin="round" />
            <path
                d="M30.5895 250.109C32.2255 252.875 33.0311 254.244 34.5934 256.96C35.1213 257.871 34.9068 258.976 34.0951 259.629C31.6663 261.589 30.4641 262.568 28.0959 264.512C26.9749 265.432 25.2574 265.127 24.5571 263.884C23.0782 261.247 22.3035 259.907 20.7262 257.207C20.1954 256.303 20.3427 255.18 21.1083 254.497C23.3809 252.469 24.54 251.455 26.8825 249.423C27.9937 248.461 29.8275 248.806 30.5986 250.106L30.5895 250.109Z"
                fill="#E99606" stroke="black" stroke-width="2" stroke-linecap="round"
                stroke-linejoin="round" />
            <path
                d="M13.7854 247.049C15.4825 249.829 16.3188 251.213 17.945 253.936C18.4914 254.856 18.3379 255.976 17.5966 256.655C15.379 258.694 14.2959 259.707 12.2001 261.76C11.2076 262.726 9.57592 262.463 8.82978 261.205C7.25008 258.542 6.43559 257.191 4.76054 254.459C4.19901 253.54 4.26692 252.394 4.94983 251.679C6.98065 249.558 8.02966 248.506 10.1856 246.406C11.2051 245.416 12.9898 245.737 13.7945 247.046L13.7854 247.049Z"
                fill="#E99606" stroke="black" stroke-width="2" stroke-linecap="round"
                stroke-linejoin="round" />
        </g>
        <path
            d="M19.0092 265.789L48.2427 270.494C57.9629 272.061 67.6182 267.31 72.3312 258.65L78.1989 247.871C79.451 245.564 80.3078 243.06 80.7311 240.468L86.3324 205.784C87.0419 201.388 86.4779 196.878 84.6973 192.796L77.8519 177.085C74.6939 169.841 68.0751 164.71 60.2795 163.456L41.3059 160.404C33.5103 159.15 25.6085 161.948 20.3333 167.836L8.88231 180.609C5.90806 183.924 3.94978 188.03 3.24027 192.426L-2.361 227.109C-2.77822 229.704 -2.7596 232.35 -2.28857 234.934L-0.113629 247.002C1.63006 256.703 9.30442 264.237 19.0214 265.795L19.0092 265.789Z"
            stroke="black" stroke-width="2" stroke-linecap="round" stroke-linejoin="round" />
    </g>
    <defs>
        <clipPath id="clip0_455_2454">
            <rect width="142" height="256.692" fill="white"
                transform="translate(46.2002) rotate(25.6711)" />
        </clipPath>
    </defs>
</svg>