<svg xmlns="http://www.w3.org/2000/svg" width="64" height="64" viewBox="0 0 64 64" fill="none">
    <g clip-path="url(#clip0_59_455)">
        <path
            d="M41.3376 6.57707L35.84 5.78667L33.3867 0.861866C33.2581 0.604201 33.0602 0.387473 32.8153 0.235993C32.5703 0.084513 32.288 0.00427246 32 0.00427246C31.7121 0.00427246 31.4298 0.084513 31.1848 0.235993C30.9399 0.387473 30.742 0.604201 30.6134 0.861866L28.16 5.78773L22.6667 6.57813C22.3804 6.61906 22.1113 6.73956 21.8901 6.92593C21.6689 7.11229 21.5044 7.35702 21.4155 7.63226C21.3266 7.9075 21.3167 8.20217 21.3871 8.48273C21.4574 8.7633 21.6051 9.01847 21.8134 9.2192L25.7814 13.0496L24.8459 18.4576C24.7956 18.7415 24.8264 19.0338 24.9347 19.3009C25.043 19.5681 25.2244 19.7993 25.4582 19.968C25.6917 20.1396 25.9688 20.2421 26.2578 20.2636C26.5468 20.2851 26.836 20.2248 27.0923 20.0896L32 17.5317L36.9142 20.0917C37.1705 20.2263 37.4594 20.2865 37.7481 20.2653C38.0368 20.2442 38.3139 20.1425 38.5478 19.972C38.7818 19.8015 38.9633 19.5688 39.0717 19.3004C39.1802 19.032 39.2114 18.7385 39.1616 18.4533L38.2262 13.0464L42.1942 9.216C42.4023 9.01514 42.55 8.75989 42.6202 8.47929C42.6905 8.19869 42.6807 7.90399 42.5918 7.62872C42.5029 7.35345 42.3385 7.10866 42.1173 6.92218C41.8962 6.7357 41.6272 6.61502 41.3408 6.57387L41.3376 6.57707ZM36.3371 11.9104C36.2117 12.0314 36.1178 12.1813 36.0637 12.347C36.0095 12.5127 35.9969 12.6891 36.0267 12.8608L36.8576 17.6608L32.591 15.44C32.4099 15.3453 32.2086 15.2959 32.0043 15.2959C31.8 15.2959 31.5987 15.3453 31.4176 15.44L27.151 17.6629L27.9819 12.8629C28.0118 12.6912 27.9991 12.5148 27.945 12.3491C27.8908 12.1834 27.797 12.0335 27.6715 11.9125L24.1526 8.5184L29.0134 7.8208C29.0765 7.81168 29.1386 7.79669 29.199 7.776C29.4701 7.68504 29.6944 7.49068 29.823 7.2352L32 2.8576L34.1824 7.23733C34.2602 7.39211 34.3743 7.5258 34.5149 7.62702C34.6555 7.72824 34.8184 7.79398 34.9899 7.81867L39.8475 8.5184L36.3371 11.9104Z"
            fill="#AD9C6C" />
        <path
            d="M17.7494 13.7195L16.1888 10.4032C16.0768 10.165 15.8994 9.96355 15.6771 9.82246C15.4549 9.68137 15.1971 9.60645 14.9339 9.60645C14.6707 9.60645 14.4129 9.68137 14.1906 9.82246C13.9684 9.96355 13.7909 10.165 13.679 10.4032L12.1195 13.7184L8.64963 14.2517C8.39616 14.2912 8.15849 14.3998 7.96277 14.5656C7.76704 14.7314 7.62085 14.9479 7.54029 15.1915C7.45713 15.4382 7.4439 15.7032 7.50208 15.9569C7.56026 16.2107 7.68756 16.4435 7.86989 16.6293L10.4086 19.2213L9.80589 22.9003C9.76186 23.1611 9.7926 23.4291 9.89453 23.6731C9.99647 23.9172 10.1654 24.1274 10.3819 24.2795C10.593 24.4295 10.8422 24.5168 11.1007 24.5313C11.3593 24.5459 11.6167 24.487 11.8432 24.3616L14.9366 22.6549L18.0299 24.3616C18.26 24.486 18.5204 24.5431 18.7814 24.5265C19.0424 24.5098 19.2935 24.4199 19.5058 24.2672C19.7182 24.1146 19.8832 23.9052 19.9821 23.663C20.081 23.4209 20.1098 23.1558 20.0651 22.8981L19.4624 19.2203L22.0022 16.624C22.1845 16.4381 22.3118 16.2054 22.37 15.9516C22.4282 15.6978 22.4149 15.4329 22.3318 15.1861C22.2511 14.9425 22.1048 14.7258 21.9088 14.56C21.7129 14.3942 21.475 14.2856 21.2214 14.2464L17.7494 13.7195ZM17.5563 18.1141C17.4393 18.2337 17.3521 18.3792 17.3017 18.5387C17.2513 18.6983 17.2391 18.8674 17.2662 19.0325L17.711 21.7536L15.5115 20.5408C15.335 20.4422 15.1361 20.3904 14.9339 20.3904C14.7317 20.3904 14.5328 20.4422 14.3563 20.5408L12.16 21.7536L12.6048 19.0325C12.6319 18.8674 12.6197 18.6983 12.5693 18.5387C12.5189 18.3792 12.4317 18.2337 12.3147 18.1141L10.384 16.1419L13.0027 15.7429C13.1768 15.7159 13.3416 15.6467 13.4827 15.5412C13.6239 15.4358 13.737 15.2974 13.8123 15.1381L14.9334 12.7467L16.0544 15.1296C16.1295 15.2931 16.2444 15.4352 16.3887 15.5427C16.5329 15.6503 16.7019 15.7198 16.88 15.7451L19.487 16.1419L17.5563 18.1141Z"
            fill="#AD9C6C" />
        <path
            d="M56.4608 15.1872C56.3802 14.9435 56.2338 14.7268 56.0379 14.561C55.842 14.3952 55.6041 14.2867 55.3504 14.2475L51.8827 13.7195L50.3221 10.4032C50.2101 10.165 50.0327 9.96355 49.8104 9.82246C49.5882 9.68137 49.3304 9.60645 49.0672 9.60645C48.804 9.60645 48.5462 9.68137 48.3239 9.82246C48.1017 9.96355 47.9242 10.165 47.8123 10.4032L46.2528 13.7184L42.7829 14.2517C42.5295 14.2912 42.2918 14.3998 42.0961 14.5656C41.9003 14.7314 41.7542 14.9479 41.6736 15.1915C41.5904 15.4382 41.5772 15.7032 41.6354 15.9569C41.6936 16.2107 41.8209 16.4435 42.0032 16.6293L44.5429 19.2256L43.9403 22.9045C43.8962 23.1654 43.927 23.4333 44.0289 23.6774C44.1308 23.9215 44.2998 24.1317 44.5163 24.2837C44.7273 24.4338 44.9765 24.5211 45.2351 24.5356C45.4936 24.5501 45.751 24.4913 45.9776 24.3659L49.0709 22.6592L52.1643 24.3659C52.3943 24.4903 52.6548 24.5474 52.9158 24.5307C53.1768 24.514 53.4278 24.4242 53.6402 24.2715C53.8525 24.1188 54.0176 23.9094 54.1165 23.6673C54.2154 23.4252 54.2442 23.1601 54.1995 22.9024L53.5968 19.2245L56.1365 16.6283C56.3185 16.4415 56.4452 16.208 56.5024 15.9536C56.5597 15.6992 56.5453 15.4339 56.4608 15.1872ZM51.6896 18.1141C51.5726 18.2337 51.4854 18.3792 51.435 18.5387C51.3846 18.6983 51.3724 18.8674 51.3995 19.0325L51.8443 21.7536L49.6448 20.5408C49.4683 20.4422 49.2694 20.3904 49.0672 20.3904C48.865 20.3904 48.6661 20.4422 48.4896 20.5408L46.2933 21.7536L46.7381 19.0325C46.7652 18.8674 46.753 18.6983 46.7026 18.5387C46.6522 18.3792 46.565 18.2337 46.448 18.1141L44.5173 16.1419L47.136 15.7429C47.3101 15.7159 47.4749 15.6467 47.616 15.5412C47.7572 15.4358 47.8703 15.2974 47.9456 15.1381L49.0667 12.7467L50.1877 15.1296C50.2628 15.2931 50.3777 15.4352 50.522 15.5427C50.6662 15.6503 50.8352 15.7198 51.0133 15.7451L53.6203 16.1419L51.6896 18.1141Z"
            fill="#AD9C6C" />
        <path
            d="M61.4912 24.8693L53.6661 26.2677C53.3298 26.3274 53.009 26.4549 52.7235 26.6425C52.438 26.8301 52.1936 27.0738 52.0053 27.3589C51.8233 27.6341 51.6965 27.942 51.632 28.2656L50.032 28.5504C49.7028 28.6089 49.3889 28.7336 49.1093 28.9169C48.8297 29.1003 48.5902 29.3384 48.4053 29.617C48.2045 29.9218 48.072 30.2664 48.0171 30.6272L47.5285 30.7338C47.3317 30.7808 47.1273 30.7861 46.9284 30.7493C46.7294 30.7126 46.5404 30.6346 46.3733 30.5205L39.1776 25.7621C38.6269 25.3993 38.0058 25.1568 37.3549 25.0506C36.704 24.9443 36.038 24.9767 35.4005 25.1456L34.3819 25.4229L27.6619 23.5914C27.0147 23.4443 26.3435 23.4375 25.6935 23.5715C25.0435 23.7054 24.4296 23.977 23.8933 24.368L16.7957 29.696C16.6324 29.8161 16.4462 29.9012 16.2485 29.9462C16.0509 29.9912 15.8461 29.9949 15.6469 29.9573L15.168 29.8666C15.0991 29.508 14.9536 29.1686 14.7413 28.8714C14.5439 28.6005 14.2938 28.3722 14.0061 28.2003C13.7183 28.0284 13.3988 27.9163 13.0667 27.8709L11.4667 27.6576C11.3477 27.161 11.0815 26.712 10.7029 26.3693C10.3243 26.0267 9.851 25.8065 9.34507 25.7376L2.4288 24.7936C2.12651 24.7513 1.81867 24.7744 1.52607 24.8613C1.23346 24.9481 0.96291 25.0968 0.732681 25.2972C0.502452 25.4976 0.317907 25.7451 0.19151 26.0229C0.0651124 26.3007 -0.00019418 26.6025 4.33685e-07 26.9077V50.5781C0.000972946 51.0937 0.188097 51.5916 0.52695 51.9803C0.865803 52.3689 1.33359 52.6221 1.84427 52.6933L4.66453 53.0784C4.78119 53.0944 4.89879 53.1026 5.01653 53.1029C5.61039 53.1033 6.18533 52.8941 6.64014 52.5123C7.09496 52.1304 7.40049 51.6004 7.50293 51.0154L7.86667 48.9824L9.45813 49.1957C9.56667 49.2105 9.67607 49.2179 9.7856 49.2181C10.2468 49.2166 10.6987 49.0875 11.0912 48.8453C11.4836 48.603 11.8015 48.2569 12.0096 47.8453L12.9355 48.0586L12.9045 48.0917C12.2486 48.7827 11.8918 49.7046 11.9118 50.6571C11.9318 51.6096 12.3269 52.5158 13.0112 53.1786C13.6783 53.8277 14.5732 54.1896 15.504 54.1866H15.5733H15.5851C15.5991 55.1265 15.9829 56.0231 16.6534 56.682C17.3238 57.3408 18.2269 57.709 19.1669 57.7066H19.2469C19.2626 58.6448 19.647 59.539 20.3169 60.1959C20.9868 60.8529 21.8884 61.2197 22.8267 61.217H22.9024C23.1601 61.2092 23.4162 61.1734 23.6661 61.1104C23.7964 61.754 24.1004 62.3498 24.5451 62.833C24.9898 63.3162 25.5583 63.6685 26.1889 63.8517C26.8196 64.0349 27.4883 64.042 28.1227 63.8722C28.7571 63.7024 29.3329 63.3622 29.7877 62.8885L31.5083 61.0976L32.5685 62.113C32.911 62.4416 33.3148 62.6995 33.7569 62.872C34.199 63.0445 34.6708 63.1281 35.1453 63.1182C35.6198 63.1083 36.0877 63.005 36.5222 62.8142C36.9567 62.6235 37.3494 62.3489 37.6779 62.0064C38.174 61.4766 38.5034 60.8126 38.6251 60.097C39.0984 60.19 39.5856 60.1868 40.0577 60.0877C40.5298 59.9886 40.9772 59.7956 41.3732 59.5201C41.7693 59.2447 42.1059 58.8925 42.3631 58.4844C42.6203 58.0763 42.7928 57.6206 42.8704 57.1445C43.1211 57.1912 43.3759 57.213 43.6309 57.2096C44.1683 57.1977 44.6962 57.0659 45.1761 56.8239C45.656 56.5818 46.0757 56.2356 46.4046 55.8105C46.7335 55.3854 46.9632 54.8921 47.0771 54.3669C47.1909 53.8416 47.1859 53.2975 47.0624 52.7744C47.8832 52.6032 48.619 52.1523 49.1443 51.4989C49.6696 50.8454 49.9517 50.0298 49.9424 49.1914C49.9424 49.1306 49.9275 49.073 49.9243 49.0133L51.9136 48.4704C52.1306 48.8578 52.4469 49.1806 52.8298 49.4055C53.2128 49.6305 53.6487 49.7495 54.0928 49.7504C54.2358 49.7498 54.3785 49.7373 54.5195 49.713L56.096 49.4304L56.5333 51.441C56.6567 52.0051 56.9691 52.5102 57.4188 52.8724C57.8685 53.2346 58.4284 53.4322 59.0059 53.4325C59.1575 53.4321 59.3088 53.4186 59.4581 53.392L62.2315 52.897C62.7263 52.8111 63.175 52.5534 63.4985 52.1692C63.822 51.785 63.9996 51.299 64 50.7968V26.9696C64 26.6576 63.9316 26.3494 63.7997 26.0667C63.6677 25.7841 63.4753 25.5338 63.2361 25.3335C62.9969 25.1333 62.7167 24.9879 62.4152 24.9077C62.1137 24.8275 61.7983 24.8144 61.4912 24.8693ZM35.9467 27.2C36.2928 27.1089 36.6542 27.0916 37.0074 27.1493C37.3606 27.207 37.6977 27.3384 37.9968 27.5349L45.184 32.2901C45.5897 32.5675 46.0489 32.7573 46.5321 32.8473C47.0153 32.9373 47.512 32.9255 47.9904 32.8128L48.2923 32.7477L51.3269 46.4138L49.1371 47.0112C49.0398 46.8813 48.9328 46.759 48.8171 46.6453L35.0421 33.4186C34.5209 32.9198 33.8232 32.6479 33.1019 32.6624L31.6085 32.6922C31.2504 32.6967 30.8967 32.7731 30.5686 32.9167C30.2404 33.0604 29.9444 33.2684 29.6981 33.5285L25.4635 37.9349C25.2573 38.1514 25.0101 38.3247 24.7364 38.4448C24.4626 38.565 24.1677 38.6295 23.8688 38.6346C23.5656 38.649 23.2628 38.5994 22.98 38.4892C22.6972 38.3789 22.4407 38.2104 22.2272 37.9946C21.8748 37.6591 21.6577 37.2059 21.6171 36.721C21.5803 36.2384 21.7235 35.7592 22.0192 35.376L25.792 30.6005C26.2117 30.0775 26.7835 29.6977 27.4283 29.5136L35.9467 27.2ZM4.95573 50.9632L2.13333 50.5781V26.9088L9.04533 27.8506C9.10071 27.8581 9.15397 27.8768 9.20185 27.9056C9.24973 27.9344 9.2912 27.9727 9.32373 28.0181C9.35562 28.0613 9.37823 28.1105 9.39016 28.1629C9.40209 28.2152 9.40308 28.2694 9.39307 28.3221L5.40267 50.641C5.3949 50.6917 5.37712 50.7404 5.35035 50.7841C5.32358 50.8279 5.28837 50.8658 5.24676 50.8958C5.20515 50.9258 5.15799 50.9472 5.10802 50.9588C5.05805 50.9703 5.00628 50.9718 4.95573 50.9632ZM9.7408 47.0848L8.24747 46.8789L11.3045 29.7845L12.7765 29.9829C12.8253 29.9898 12.8722 30.0064 12.9144 30.0319C12.9565 30.0574 12.9931 30.0912 13.0219 30.1312C13.0825 30.2125 13.1085 30.3145 13.0944 30.4149L10.1515 46.7797C10.1365 46.8741 10.0851 46.9589 10.0083 47.0159C9.93156 47.073 9.83554 47.0977 9.7408 47.0848ZM15.5296 52.0554C15.3378 52.0617 15.1468 52.0288 14.9681 51.9588C14.7895 51.8887 14.627 51.7829 14.4907 51.648C14.2145 51.3752 14.0553 51.0056 14.047 50.6176C14.0386 50.2295 14.1817 49.8534 14.4459 49.569L16.5461 47.3717C16.8176 47.0896 17.1899 46.9268 17.5813 46.919C17.9727 46.9112 18.3511 47.059 18.6336 47.3301C18.9039 47.6066 19.0581 47.976 19.0647 48.3626C19.0712 48.7491 18.9296 49.1236 18.6688 49.409L16.5632 51.6021C16.4292 51.7418 16.2689 51.8537 16.0915 51.9311C15.9141 52.0085 15.7231 52.0501 15.5296 52.0533V52.0554ZM19.2 55.5733C19.0064 55.5807 18.8133 55.5481 18.6329 55.4774C18.4524 55.4068 18.2885 55.2996 18.1515 55.1626C17.8781 54.8871 17.7212 54.517 17.7133 54.129C17.7054 53.741 17.847 53.3648 18.1088 53.0784L20.2091 50.8896L20.2208 50.8746L20.9131 50.1536C21.1848 49.872 21.557 49.7095 21.9482 49.7017C22.3394 49.6939 22.7178 49.8414 23.0005 50.112C23.2706 50.3882 23.4242 50.7576 23.4298 51.1439C23.4354 51.5301 23.2924 51.9038 23.0304 52.1877L20.2208 55.1168C20.0892 55.2565 19.9313 55.3687 19.7561 55.4471C19.5808 55.5255 19.3919 55.5683 19.2 55.5733ZM21.8091 58.6666C21.5376 58.3923 21.3819 58.0242 21.3739 57.6383C21.366 57.2525 21.5065 56.8783 21.7664 56.593L25.2747 52.9354C25.409 52.7956 25.5695 52.6836 25.7472 52.6059C25.9248 52.5281 26.1159 52.4861 26.3098 52.4823C26.5036 52.4784 26.6963 52.5128 26.8769 52.5834C27.0575 52.654 27.2223 52.7595 27.3621 52.8938C27.6325 53.1693 27.7867 53.5381 27.7928 53.924C27.799 54.3099 27.6566 54.6835 27.3952 54.9674L23.8859 58.6261C23.7523 58.766 23.5924 58.8782 23.4154 58.9563C23.2384 59.0343 23.0477 59.0767 22.8543 59.081C22.6609 59.0852 22.4686 59.0513 22.2883 58.9811C22.108 58.9109 21.9433 58.8059 21.8037 58.672L21.8091 58.6666ZM28.2496 61.408C27.9795 61.6888 27.6091 61.8511 27.2195 61.8591C26.8299 61.8671 26.4531 61.7202 26.1717 61.4506C25.8969 61.1776 25.739 60.8085 25.7312 60.4212C25.7234 60.0339 25.8665 59.6587 26.1301 59.3749L28.2389 57.1776L28.2453 57.1829C28.5155 56.903 28.8853 56.7414 29.2742 56.7332C29.6631 56.725 30.0394 56.8709 30.3211 57.1392C30.5928 57.4137 30.7488 57.7821 30.7569 58.1683C30.7651 58.5545 30.6247 58.9291 30.3648 59.2149L28.2496 61.408ZM47.3845 50.2602C47.2537 50.3993 47.0963 50.5107 46.9218 50.588C46.7472 50.6653 46.5589 50.7069 46.368 50.7104H46.3339C45.9532 50.7098 45.5876 50.5614 45.3141 50.2965C45.1105 50.1011 44.8377 49.9944 44.5556 49.9997C44.2734 50.005 44.0049 50.122 43.8087 50.3249C43.6126 50.5278 43.5049 50.8001 43.5091 51.0823C43.5134 51.3645 43.6293 51.6335 43.8315 51.8304L44.5781 52.5536C44.7845 52.7557 44.9268 53.0142 44.9871 53.2967C45.0474 53.5793 45.0231 53.8733 44.9173 54.1421C44.8114 54.4109 44.6287 54.6426 44.392 54.8082C44.1552 54.9737 43.8749 55.0659 43.5861 55.073C43.3924 55.0794 43.1993 55.0459 43.019 54.9747C42.8387 54.9035 42.6748 54.7961 42.5376 54.6592L41.8069 53.9594C41.7067 53.8586 41.5873 53.7787 41.4557 53.7247C41.3241 53.6707 41.1831 53.6435 41.0409 53.6447C40.8987 53.646 40.7581 53.6757 40.6275 53.7321C40.497 53.7884 40.379 53.8704 40.2805 53.973C40.1821 54.0756 40.1052 54.1969 40.0543 54.3298C40.0034 54.4626 39.9796 54.6042 39.9843 54.7464C39.9889 54.8885 40.022 55.0283 40.0815 55.1575C40.141 55.2867 40.2257 55.4027 40.3307 55.4986C40.6095 55.7658 40.7713 56.1324 40.7808 56.5184C40.7889 56.8104 40.7097 57.0982 40.5535 57.345C40.3972 57.5919 40.1709 57.7866 39.9035 57.9042C39.6361 58.0219 39.3398 58.0572 39.0522 58.0057C38.7646 57.9542 38.499 57.8181 38.2891 57.6149L37.5595 56.9248L37.5467 56.912C37.3402 56.7219 37.0671 56.6209 36.7866 56.6309C36.5061 56.6408 36.2409 56.7609 36.0483 56.9651C35.8558 57.1693 35.7515 57.4411 35.758 57.7217C35.7645 58.0023 35.8814 58.269 36.0832 58.464C36.2225 58.5952 36.3344 58.7526 36.4126 58.9273C36.4908 59.1019 36.5336 59.2903 36.5387 59.4816C36.5403 59.871 36.3925 60.2463 36.1259 60.5301C35.8544 60.8115 35.4823 60.9737 35.0914 60.9811C34.7004 60.9885 34.3225 60.8405 34.0405 60.5696L32.7008 59.2896C32.9043 58.6499 32.9269 57.9664 32.7661 57.3147C32.6054 56.663 32.2675 56.0684 31.7899 55.5968C31.2553 55.0869 30.576 54.7549 29.8453 54.6464C29.9692 54.0546 29.9405 53.441 29.762 52.8634C29.5834 52.2858 29.2609 51.763 28.8247 51.3444C28.3886 50.9257 27.8531 50.6248 27.2686 50.4701C26.6842 50.3153 26.0699 50.3117 25.4837 50.4597C25.3509 49.7401 24.997 49.0798 24.4715 48.5706C24.0328 48.1522 23.4958 47.8513 22.9099 47.6956C22.3241 47.5399 21.7085 47.5345 21.12 47.68C20.9862 46.9601 20.6321 46.2997 20.1067 45.7898C19.4148 45.1289 18.4892 44.7691 17.5326 44.7891C16.576 44.8091 15.6663 45.2073 15.0027 45.8965L14.6496 46.2666L12.4971 45.7728L14.9717 32L15.264 32.0522C15.7503 32.1417 16.2497 32.1305 16.7315 32.0193C17.2133 31.9082 17.6672 31.6994 18.0651 31.4058L25.1595 26.08C25.4408 25.873 25.7627 25.7279 26.1042 25.6544C26.4456 25.5809 26.7987 25.5805 27.1403 25.6533L30.3157 26.5184L26.8651 27.4549C25.7856 27.7603 24.8279 28.394 24.1248 29.2682L20.3477 34.0512C19.7216 34.8549 19.4174 35.863 19.4944 36.8789C19.5783 37.8846 20.0248 38.8255 20.7509 39.5264C21.1694 39.93 21.6633 40.247 22.2045 40.4594C22.7457 40.6718 23.3235 40.7753 23.9047 40.764C24.4859 40.7527 25.0593 40.6268 25.5918 40.3936C26.1243 40.1603 26.6056 39.8243 27.008 39.4048L31.2533 34.9941C31.3066 34.9395 31.3703 34.8963 31.4407 34.867C31.5111 34.8377 31.5867 34.8228 31.6629 34.8234L33.1563 34.7936C33.2325 34.7908 33.3085 34.8036 33.3796 34.8311C33.4508 34.8586 33.5156 34.9003 33.5701 34.9536L47.36 48.2005C47.5018 48.3364 47.6134 48.5007 47.6875 48.6826C47.7619 48.853 47.7983 49.0376 47.7941 49.2234C47.798 49.4148 47.7638 49.605 47.6935 49.783C47.6232 49.961 47.5181 50.1232 47.3845 50.2602ZM54.1483 47.6096C54.0539 47.6244 53.9574 47.603 53.8783 47.5495C53.7991 47.4961 53.7431 47.4146 53.7216 47.3216L50.1195 31.1082C50.109 31.0572 50.1088 31.0046 50.1189 30.9535C50.129 30.9024 50.1491 30.8539 50.1781 30.8106C50.2047 30.7703 50.239 30.7356 50.2791 30.7087C50.3192 30.6817 50.3643 30.6631 50.4117 30.6538L51.8816 30.3936L55.6352 47.3536L54.1483 47.6096ZM61.8667 50.7968L59.0933 51.2917C58.9901 51.311 58.8834 51.2893 58.7959 51.2311C58.7085 51.1729 58.6472 51.0829 58.6251 50.9802L53.728 28.8576C53.7154 28.8031 53.714 28.7467 53.7239 28.6916C53.7338 28.6366 53.7548 28.5842 53.7856 28.5376C53.8153 28.4924 53.8539 28.4538 53.899 28.4241C53.9441 28.3944 53.9948 28.3742 54.048 28.3648L61.8667 26.9674V50.7968Z"
            fill="#AD9C6C" />
    </g>
    <defs>
        <clipPath id="clip0_59_455">
            <rect width="64" height="64" fill="white" />
        </clipPath>
    </defs>
</svg>