<svg xmlns="http://www.w3.org/2000/svg" width="25" height="24" viewBox="0 0 25 24" fill="none">
    <g clip-path="url(#clip0_872_541)">
        <path
            d="M12.5 0C5.87262 0 0.5 5.37262 0.5 12C0.5 18.6278 5.87262 24 12.5 24C19.1278 24 24.5 18.6278 24.5 12C24.5 5.37262 19.1278 0 12.5 0ZM12.5 22.5236C6.71037 22.5236 2 17.7896 2 12C2 6.21033 6.71037 1.49995 12.5 1.49995C18.2896 1.49995 23 6.21035 23 12C23 17.7896 18.2896 22.5236 12.5 22.5236ZM17.2891 7.60913L10.2485 14.694L7.07785 11.5234C6.78498 11.2305 6.31023 11.2305 6.01698 11.5234C5.7241 11.8162 5.7241 12.291 6.01698 12.5839L9.7291 16.2964C10.022 16.5889 10.4967 16.5889 10.79 16.2964C10.8237 16.2626 10.8526 16.2259 10.8789 16.1876L18.3504 8.66998C18.6429 8.3771 18.6429 7.90235 18.3504 7.60913C18.0571 7.31625 17.5824 7.31625 17.2891 7.60913Z"
            fill="#AD9C6C" />
    </g>
    <defs>
        <clipPath id="clip0_872_541">
            <rect width="24" height="24" fill="white" transform="translate(0.5)" />
        </clipPath>
    </defs>
</svg>