<svg xmlns="http://www.w3.org/2000/svg" width="24" height="25" viewBox="0 0 24 25" fill="none">
    <g clip-path="url(#clip0_339_1982)">
        <path
            d="M12 24.5C8.8174 24.5 5.76516 23.2357 3.51472 20.9853C1.26428 18.7348 0 15.6826 0 12.5C0 9.3174 1.26428 6.26516 3.51472 4.01472C5.76516 1.76428 8.8174 0.5 12 0.5C15.1826 0.5 18.2348 1.76428 20.4853 4.01472C22.7357 6.26516 24 9.3174 24 12.5C24 15.6826 22.7357 18.7348 20.4853 20.9853C18.2348 23.2357 15.1826 24.5 12 24.5ZM17.67 9.92C17.8686 9.70661 17.9768 9.42453 17.9717 9.13305C17.9667 8.84158 17.8489 8.56341 17.643 8.357C17.4366 8.15113 17.1584 8.0333 16.8669 8.02827C16.5755 8.02323 16.2934 8.13139 16.08 8.33L10.125 14.285L7.92 12.08C7.70661 11.8814 7.42453 11.7732 7.13305 11.7783C6.84158 11.7833 6.56341 11.9011 6.357 12.107C6.15113 12.3134 6.0333 12.5916 6.02827 12.8831C6.02323 13.1745 6.13139 13.4566 6.33 13.67L9.33 16.67C9.54094 16.8807 9.82687 16.999 10.125 16.999C10.4231 16.999 10.7091 16.8807 10.92 16.67L17.67 9.92Z"
            fill="#AD9C6C" />
    </g>
    <defs>
        <clipPath id="clip0_339_1982">
            <rect width="24" height="24" fill="white" transform="translate(0 0.5)" />
        </clipPath>
    </defs>
</svg>