<svg width="28" height="28" viewBox="0 0 28 28" fill="none" xmlns="http://www.w3.org/2000/svg">
    <path
        d="M10.4388 8.10504C10.2303 8.31478 10.1133 8.59849 10.1133 8.89422C10.1133 9.18995 10.2303 9.47367 10.4388 9.6834L14.4015 13.7021L10.4388 17.6647C10.2303 17.8745 10.1133 18.1582 10.1133 18.4539C10.1133 18.7497 10.2303 19.0334 10.4388 19.2431C10.5429 19.348 10.6667 19.4313 10.8031 19.4881C10.9395 19.545 11.0858 19.5742 11.2336 19.5742C11.3813 19.5742 11.5277 19.545 11.6641 19.4881C11.8005 19.4313 11.9243 19.348 12.0283 19.2431L16.7746 14.4968C16.8795 14.3928 16.9628 14.269 17.0196 14.1326C17.0765 13.9961 17.1057 13.8498 17.1057 13.7021C17.1057 13.5543 17.0765 13.408 17.0196 13.2716C16.9628 13.1352 16.8795 13.0113 16.7746 12.9073L12.0283 8.10504C11.9243 8.00012 11.8005 7.91684 11.6641 7.86001C11.5277 7.80318 11.3813 7.77392 11.2336 7.77392C11.0858 7.77392 10.9395 7.80318 10.8031 7.86001C10.6667 7.91684 10.5429 8.00012 10.4388 8.10504Z"
        fill="#AD9C6C" />
</svg>
    