<svg width="28" height="28" viewBox="0 0 28 28" fill="none" xmlns="http://www.w3.org/2000/svg">
    <path
        d="M13.4777 13.7013L17.4404 9.73858C17.6489 9.52884 17.7659 9.24513 17.7659 8.9494C17.7659 8.65367 17.6489 8.36995 17.4404 8.16022C17.3363 8.0553 17.2125 7.97202 17.0761 7.91519C16.9397 7.85836 16.7934 7.8291 16.6456 7.8291C16.4978 7.8291 16.3515 7.85836 16.2151 7.91519C16.0787 7.97202 15.9549 8.0553 15.8508 8.16022L11.1046 12.9065C10.9996 13.0106 10.9164 13.1344 10.8595 13.2708C10.8027 13.4072 10.7734 13.5535 10.7734 13.7013C10.7734 13.849 10.8027 13.9954 10.8595 14.1318C10.9164 14.2682 10.9996 14.392 11.1046 14.496L15.8508 19.2983C15.9554 19.402 16.0795 19.4841 16.2159 19.5398C16.3522 19.5955 16.4983 19.6238 16.6456 19.6229C16.7929 19.6238 16.939 19.5955 17.0753 19.5398C17.2117 19.4841 17.3358 19.402 17.4404 19.2983C17.6489 19.0885 17.7659 18.8048 17.7659 18.5091C17.7659 18.2134 17.6489 17.9297 17.4404 17.7199L13.4777 13.7013Z"
        fill="#AD9C6C" />
</svg>
    