<svg xmlns="http://www.w3.org/2000/svg" width="65" height="65" viewBox="0 0 65 65" fill="none">
    <path
        d="M32.0023 9.16089L30.164 10.4507C29.3211 11.05 28.8234 12.0148 28.8234 13.0203C28.8234 13.3351 28.8742 13.6703 28.9859 14.0156C29.1484 14.4929 28.9656 15.0109 28.5797 15.275L28.4172 15.3765C27.0968 16.2601 26.6398 17.9968 27.3508 19.3882L27.7469 20.1906C27.9906 20.6679 27.8484 21.2468 27.4219 21.5718L25.8476 22.75C24.9539 23.4304 24.3445 24.4054 24.1312 25.4921C23.989 26.1929 23.5828 26.782 22.9734 27.1476C22.364 27.5132 21.6531 27.6148 20.9726 27.4218L19.2359 26.9242C17.8445 26.5281 16.3414 26.9242 15.3156 27.9398L14.8078 28.4476C14.2898 28.9656 13.5078 29.1585 12.7969 28.925C11.6898 28.5593 10.4812 28.6812 9.47576 29.2804L9.38435 29.3312C9.61794 27.5945 10.0242 25.8984 10.6539 24.2632C9.96326 24.182 9.29294 24.0398 8.64294 23.8367C7.62732 26.5992 7.11951 29.5039 7.11951 32.4898C7.11951 35.4757 7.62732 38.3804 8.64294 41.1429C9.29294 40.9398 9.96326 40.7976 10.6539 40.7164C10.339 39.8835 10.0851 39.0203 9.87185 38.157L11.2836 37.2023C11.7101 36.9078 12.2992 37.0093 12.5937 37.4156C13.4164 38.5937 15.0922 39.0304 16.4633 38.3093L19.4594 36.6742C19.8758 36.4507 20.3836 36.5523 20.6679 36.9078L21.6125 38.0859C22.5672 39.2539 23.9078 40.0257 25.3703 40.2492C26.1218 40.371 26.8023 40.7062 27.3609 41.2343C27.9094 41.7421 28.2953 42.4124 28.4679 43.164L28.8437 44.789C28.925 45.1343 29.0469 45.4898 29.2094 45.8656L30.8344 49.3796C30.9359 49.6031 30.9156 49.857 30.7937 50.0601C30.5195 50.4968 30.3773 51.0046 30.3773 51.5125C30.3773 52.914 31.4336 54.0921 32.8047 54.2445L33.5359 54.3359C34.2062 54.4171 34.7547 54.8539 34.9781 55.4835L35.0492 55.6867C34.2062 55.7781 33.3633 55.839 32.5 55.839C29.6562 55.839 26.8937 55.3312 24.2734 54.3359C24.1922 55.0265 24.05 55.6968 23.8468 56.3468C26.6094 57.3624 29.514 57.8703 32.5 57.8703C35.4859 57.8703 38.3906 57.3624 41.1531 56.3468C40.95 55.6968 40.8078 55.0265 40.7265 54.3359C39.5484 54.7828 38.3297 55.1179 37.0906 55.3718L36.8875 54.8031C36.4 53.4421 35.2015 52.4874 33.7695 52.3148L33.0281 52.2234C32.6117 52.1828 32.3883 51.8171 32.3883 51.5023C32.3883 51.3703 32.4289 51.2382 32.5 51.1164C32.9875 50.3242 33.0383 49.3492 32.6523 48.5164L31.0375 45.0226C30.9359 44.7789 30.8547 44.5351 30.8039 44.3117L30.4281 42.6867C30.164 41.539 29.5648 40.5132 28.7219 39.7312C27.8687 38.9289 26.8125 38.4109 25.6547 38.2281C24.6797 38.0757 23.7961 37.5578 23.1664 36.7859L22.232 35.6179C21.3281 34.5007 19.7437 34.1859 18.464 34.8765L15.4781 36.5015C15.0109 36.7453 14.4929 36.6031 14.2289 36.2171C13.2742 34.907 11.4664 34.5921 10.1258 35.496L9.41482 35.9734C9.24216 34.8156 9.13044 33.6476 9.13044 32.4593C9.13044 32.2359 9.15076 32.0226 9.16091 31.7992L10.5015 30.9867C10.9992 30.6921 11.5883 30.6312 12.1367 30.814C13.5687 31.2914 15.1633 30.9054 16.2195 29.8492L16.7273 29.3414C17.2351 28.8335 17.9765 28.6406 18.657 28.8335L20.3937 29.3312C21.6125 29.6765 22.9328 29.5039 24.0093 28.8437C25.0859 28.1835 25.8578 27.0968 26.1015 25.8578C26.2234 25.2585 26.5687 24.7101 27.0562 24.3343L28.6203 23.1664C29.839 22.2523 30.225 20.607 29.5547 19.2562L29.1484 18.4437C28.8945 17.9562 29.057 17.3468 29.4937 17.0523L29.6664 16.9507C30.8343 16.1585 31.332 14.6757 30.8953 13.3554C30.8547 13.2234 30.8344 13.1015 30.8344 12.9898C30.8344 12.6343 31.0172 12.289 31.3117 12.0757L35.2828 9.30308C37.1414 9.52651 38.9492 9.95308 40.6961 10.6132C40.7773 9.92261 40.9195 9.2523 41.1226 8.6023C38.3601 7.58667 35.4554 7.07886 32.4695 7.07886C29.4836 7.07886 26.5789 7.58667 23.8164 8.6023C24.0195 9.2523 24.1617 9.92261 24.2429 10.6132C26.7109 9.67886 29.3008 9.19136 31.9718 9.13042L32.0023 9.16089Z"
        fill="#AD9C6C" />
    <path
        d="M8.63281 18.7891H15.7422C16.3008 18.7891 16.7578 18.332 16.7578 17.7734V14.9602C16.7578 13.1422 15.8641 11.6695 14.625 11.2836C15.4578 10.5828 15.9961 9.54688 15.9961 8.37891C15.9961 6.27656 14.2898 4.57031 12.1875 4.57031C10.0852 4.57031 8.37891 6.27656 8.37891 8.37891C8.37891 9.54688 8.91719 10.5828 9.75 11.2836C8.51094 11.6797 7.61719 13.1422 7.61719 14.9602V17.7734C7.61719 18.332 8.07422 18.7891 8.63281 18.7891ZM12.1875 6.60156C13.1625 6.60156 13.9648 7.40391 13.9648 8.37891C13.9648 9.35391 13.1625 10.1562 12.1875 10.1562C11.2125 10.1562 10.4102 9.35391 10.4102 8.37891C10.4102 7.40391 11.2125 6.60156 12.1875 6.60156ZM9.64844 14.9602C9.64844 13.8633 10.1766 13.2031 10.4102 13.2031H13.9648C14.1984 13.2031 14.7266 13.8633 14.7266 14.9602V16.7578H9.64844V14.9602Z"
        fill="#AD9C6C" />
    <path
        d="M55.25 11.2836C56.0828 10.5828 56.6211 9.54688 56.6211 8.37891C56.6211 6.27656 54.9148 4.57031 52.8125 4.57031C50.7102 4.57031 49.0039 6.27656 49.0039 8.37891C49.0039 9.54688 49.5422 10.5828 50.375 11.2836C49.1359 11.6797 48.2422 13.1422 48.2422 14.9602V17.7734C48.2422 18.332 48.6992 18.7891 49.2578 18.7891H56.3672C56.9258 18.7891 57.3828 18.332 57.3828 17.7734V14.9602C57.3828 13.1422 56.4891 11.6695 55.25 11.2836ZM52.8125 6.60156C53.7875 6.60156 54.5898 7.40391 54.5898 8.37891C54.5898 9.35391 53.7875 10.1562 52.8125 10.1562C51.8375 10.1562 51.0352 9.35391 51.0352 8.37891C51.0352 7.40391 51.8375 6.60156 52.8125 6.60156ZM55.3516 16.7578H50.2734V14.9602C50.2734 13.8633 50.8016 13.2031 51.0352 13.2031H54.5898C54.8234 13.2031 55.3516 13.8633 55.3516 14.9602V16.7578Z"
        fill="#AD9C6C" />
    <path
        d="M8.63281 59.4141H15.7422C16.3008 59.4141 16.7578 58.957 16.7578 58.3984V55.5852C16.7578 53.7672 15.8641 52.2945 14.625 51.9086C15.4578 51.2078 15.9961 50.1719 15.9961 49.0039C15.9961 46.9016 14.2898 45.1953 12.1875 45.1953C10.0852 45.1953 8.37891 46.9016 8.37891 49.0039C8.37891 50.1719 8.91719 51.2078 9.75 51.9086C8.51094 52.3047 7.61719 53.7672 7.61719 55.5852V58.3984C7.61719 58.957 8.07422 59.4141 8.63281 59.4141ZM12.1875 47.2266C13.1625 47.2266 13.9648 48.0289 13.9648 49.0039C13.9648 49.9789 13.1625 50.7812 12.1875 50.7812C11.2125 50.7812 10.4102 49.9789 10.4102 49.0039C10.4102 48.0289 11.2125 47.2266 12.1875 47.2266ZM9.64844 55.5852C9.64844 54.4883 10.1766 53.8281 10.4102 53.8281H13.9648C14.1984 53.8281 14.7266 54.4883 14.7266 55.5852V57.3828H9.64844V55.5852Z"
        fill="#AD9C6C" />
    <path
        d="M55.25 51.9086C56.0828 51.2078 56.6211 50.1719 56.6211 49.0039C56.6211 46.9016 54.9148 45.1953 52.8125 45.1953C50.7102 45.1953 49.0039 46.9016 49.0039 49.0039C49.0039 50.1719 49.5422 51.2078 50.375 51.9086C49.1359 52.3047 48.2422 53.7672 48.2422 55.5852V58.3984C48.2422 58.957 48.6992 59.4141 49.2578 59.4141H56.3672C56.9258 59.4141 57.3828 58.957 57.3828 58.3984V55.5852C57.3828 53.7672 56.4891 52.2945 55.25 51.9086ZM52.8125 47.2266C53.7875 47.2266 54.5898 48.0289 54.5898 49.0039C54.5898 49.9789 53.7875 50.7812 52.8125 50.7812C51.8375 50.7812 51.0352 49.9789 51.0352 49.0039C51.0352 48.0289 51.8375 47.2266 52.8125 47.2266ZM55.3516 57.3828H50.2734V55.5852C50.2734 54.4883 50.8016 53.8281 51.0352 53.8281H54.5898C54.8234 53.8281 55.3516 54.4883 55.3516 55.5852V57.3828Z"
        fill="#AD9C6C" />
    <path
        d="M48.0187 27.5844L45.6523 25.7359C45.0226 25.2484 44.2101 25.0453 43.4281 25.1875L40.1781 25.7867C40.0867 25.7969 40.0156 25.7664 39.9648 25.7359C39.9242 25.7055 39.8633 25.6445 39.8531 25.5531C39.7617 24.8016 39.3047 24.1516 38.6445 23.7961C37.9742 23.4406 37.182 23.4406 36.5117 23.7859L33.9422 25.1164C33.282 25.4516 32.8351 26.0711 32.7234 26.8125C32.6117 27.5437 32.8453 28.2648 33.3633 28.793L34.2164 29.6562C34.2773 29.7172 34.3078 29.8086 34.2875 29.9L34.1961 30.3367C34.0031 31.3016 34.3179 32.2867 35.039 32.957C35.7601 33.6273 36.7554 33.8711 37.7101 33.6172L38.2586 33.4648C38.5328 33.3937 38.8273 33.4648 39.0304 33.668C39.6601 34.2976 40.5031 34.643 41.3867 34.643H41.5898C42.5445 34.582 43.4179 34.125 44.007 33.3734L44.5148 32.7234C44.6976 32.4898 44.982 32.3883 45.2765 32.4391L45.7539 32.5305C46.6375 32.7031 47.5414 32.4594 48.2117 31.8398C48.882 31.2203 49.1969 30.3469 49.0851 29.443C48.9937 28.7016 48.6179 28.0414 48.0289 27.5844H48.0187ZM46.8203 30.357C46.6375 30.5297 46.3937 30.5906 46.15 30.55L45.6726 30.4586C44.6265 30.2453 43.5703 30.6414 42.9101 31.4844L42.4023 32.1344C42.1687 32.4289 41.8336 32.6016 41.4679 32.632C41.082 32.6625 40.7367 32.5203 40.4726 32.2562C39.9344 31.718 39.2133 31.4234 38.4719 31.4234C38.2281 31.4234 37.9742 31.4539 37.7304 31.525L37.182 31.6773C36.7961 31.7789 36.532 31.5859 36.4304 31.4945C36.3289 31.4031 36.1156 31.1492 36.1969 30.7633L36.2883 30.3266C36.4406 29.5648 36.207 28.793 35.6586 28.2445L34.8054 27.3812C34.7242 27.3 34.7242 27.2086 34.7242 27.1476C34.7242 27.0867 34.7648 26.9953 34.8664 26.9445L37.4359 25.6141C37.5375 25.5633 37.6289 25.5836 37.6898 25.6141C37.7508 25.6445 37.8219 25.7055 37.832 25.8172C37.9133 26.4469 38.2484 27.0156 38.7562 27.3914C39.264 27.7672 39.914 27.9094 40.5336 27.7976L43.7836 27.1984C44.007 27.1578 44.2203 27.2187 44.3929 27.3508L46.7594 29.1992C46.9219 29.3211 47.0234 29.5039 47.0539 29.707C47.0844 29.9508 46.9929 30.1945 46.8101 30.3672L46.8203 30.357Z"
        fill="#AD9C6C" />
    <path
        d="M52.5383 31.1188L52.1727 32.2157C52.0406 32.6219 51.7766 32.9571 51.4211 33.1704L49.0953 34.5516C47.5821 35.4758 46.9117 37.2938 47.4703 38.9696C47.5313 39.1625 47.5617 39.3454 47.5617 39.518C47.5617 39.7313 47.5211 39.9547 47.4297 40.168L47.1149 40.9602C47.4805 41.1126 47.8563 41.3055 48.2422 41.5188C48.5672 41.3868 48.8922 41.2751 49.2172 41.1735L49.3188 40.9297C49.5016 40.4727 49.593 39.9954 49.593 39.518C49.593 39.1321 49.5321 38.7461 49.4 38.3297C49.136 37.5579 49.4508 36.7149 50.1414 36.2985L52.4672 34.9172C53.2289 34.4501 53.8078 33.729 54.1024 32.8657L54.468 31.7688C54.6 31.3625 54.8641 31.0274 55.2196 30.8141L55.768 30.4891C55.8289 31.1493 55.8594 31.8196 55.8594 32.5C55.8594 35.3438 55.3516 38.1063 54.3563 40.7266C55.0469 40.8079 55.7172 40.9501 56.3672 41.1532C57.3828 38.3907 57.8906 35.486 57.8906 32.5C57.8906 29.5141 57.3828 26.6094 56.3672 23.8469C55.7172 24.05 55.0469 24.1922 54.3563 24.2735C54.8539 25.5836 55.2297 26.9243 55.4735 28.2954L54.1735 29.0672C53.4117 29.5344 52.8328 30.2555 52.5383 31.1188Z"
        fill="#AD9C6C" />
    <path
        d="M12.1875 23.3594C13.782 23.3594 15.3664 23.0141 16.8187 22.3539C18.5047 23.3492 19.9266 23.8367 21.0539 23.8367C21.8664 23.8367 22.5367 23.5828 23.0547 23.0648C24.2938 21.8258 24.05 19.7336 22.3438 16.8187C23.0039 15.3664 23.3492 13.782 23.3492 12.1875C23.3492 6.02266 18.3422 1.01562 12.1773 1.01562C6.0125 1.01562 1.01562 6.02266 1.01562 12.1875C1.01562 18.3523 6.02266 23.3594 12.1875 23.3594ZM12.1875 3.04688C17.225 3.04688 21.3281 7.15 21.3281 12.1875C21.3281 13.65 20.9727 15.1023 20.2922 16.4023C20.1297 16.7172 20.1398 17.1031 20.3328 17.4078C21.7953 19.7539 22.0289 21.2164 21.6227 21.6227C21.2063 22.0289 19.7539 21.7953 17.4078 20.3328C17.2453 20.2313 17.0625 20.1805 16.8695 20.1805C16.707 20.1805 16.5445 20.2211 16.4023 20.2922C15.1125 20.9727 13.65 21.3281 12.1875 21.3281C7.15 21.3281 3.04688 17.225 3.04688 12.1875C3.04688 7.15 7.15 3.04688 12.1875 3.04688Z"
        fill="#AD9C6C" />
    <path
        d="M52.8125 1.01562C46.6476 1.01562 41.6406 6.02266 41.6406 12.1875C41.6406 13.782 41.9859 15.3664 42.6461 16.8187C40.9398 19.7336 40.6961 21.8258 41.9351 23.0648C42.4531 23.5828 43.1234 23.8367 43.9359 23.8367C45.0734 23.8367 46.4851 23.3391 48.1711 22.3539C49.6234 23.0141 51.2078 23.3594 52.8023 23.3594C58.9672 23.3594 63.9742 18.3523 63.9742 12.1875C63.9742 6.02266 58.9773 1.01562 52.8125 1.01562ZM52.8125 21.3281C51.35 21.3281 49.8976 20.9727 48.5976 20.2922C48.2828 20.1297 47.8968 20.1398 47.5922 20.3328C45.2461 21.7953 43.7836 22.0289 43.3773 21.6227C42.9711 21.2164 43.2047 19.7539 44.6672 17.4078C44.8601 17.1031 44.8703 16.7172 44.7078 16.4023C44.0273 15.1125 43.6718 13.65 43.6718 12.1875C43.6718 7.15 47.775 3.04688 52.8125 3.04688C57.85 3.04688 61.9531 7.15 61.9531 12.1875C61.9531 17.225 57.85 21.3281 52.8125 21.3281Z"
        fill="#AD9C6C" />
    <path
        d="M52.8125 41.6406C51.2179 41.6406 49.6336 41.9859 48.1812 42.6461C45.2765 40.9398 43.1742 40.6961 41.9351 41.9351C40.6961 43.1742 40.9398 45.2664 42.6461 48.1812C41.9859 49.6336 41.6406 51.2179 41.6406 52.8125C41.6406 58.9773 46.6476 63.9843 52.8125 63.9843C58.9773 63.9843 63.9843 58.9773 63.9843 52.8125C63.9843 46.6476 58.9773 41.6406 52.8125 41.6406ZM52.8125 61.9531C47.775 61.9531 43.6718 57.85 43.6718 52.8125C43.6718 51.35 44.0273 49.8976 44.7078 48.5976C44.8703 48.2828 44.8601 47.8968 44.6672 47.5922C43.2047 45.2461 42.9711 43.7836 43.3773 43.3773C43.489 43.2656 43.6922 43.1945 43.9664 43.1945C44.6773 43.1945 45.9062 43.6109 47.5922 44.6672C47.8968 44.8601 48.2828 44.8703 48.5976 44.7078C49.8875 44.0273 51.35 43.6718 52.8125 43.6718C57.85 43.6718 61.9531 47.775 61.9531 52.8125C61.9531 57.85 57.85 61.9531 52.8125 61.9531Z"
        fill="#AD9C6C" />
    <path
        d="M12.1875 63.9843C18.3523 63.9843 23.3594 58.9773 23.3594 52.8125C23.3594 51.2179 23.0141 49.6336 22.3539 48.1812C24.0602 45.2664 24.3039 43.1742 23.0648 41.9351C21.8258 40.6961 19.7336 40.9398 16.8187 42.6461C15.3664 41.9859 13.782 41.6406 12.1875 41.6406C6.02266 41.6406 1.01562 46.6476 1.01562 52.8125C1.01562 58.9773 6.02266 63.9843 12.1875 63.9843ZM12.1875 43.6718C13.65 43.6718 15.1023 44.0273 16.4023 44.7078C16.7172 44.8703 17.1031 44.8601 17.4078 44.6672C19.7539 43.2047 21.2164 42.9711 21.6227 43.3773C22.0289 43.7836 21.7953 45.2461 20.3328 47.5922C20.1398 47.8968 20.1297 48.2828 20.2922 48.5976C20.9727 49.8875 21.3281 51.35 21.3281 52.8125C21.3281 57.85 17.225 61.9531 12.1875 61.9531C7.15 61.9531 3.04688 57.85 3.04688 52.8125C3.04688 47.775 7.15 43.6718 12.1875 43.6718Z"
        fill="#AD9C6C" />
</svg>