<svg xmlns="http://www.w3.org/2000/svg" width="65" height="65" viewBox="0 0 65 65" fill="none">
    <g clip-path="url(#clip0_59_516)">
        <path fill-rule="evenodd" clip-rule="evenodd"
            d="M41.624 28.0542C41.1442 28.0542 40.7543 27.6794 40.7543 27.1846V16.2988C40.7543 15.594 41.549 15.1892 42.1188 15.594L49.8258 21.0369C50.3057 21.3818 50.3057 22.1015 49.8258 22.4464L42.1188 27.9043C41.9689 28.0093 41.7889 28.0542 41.624 28.0542ZM60.8766 37.5606H47.0369V41.9839H55.0288C55.5087 41.9839 55.8985 42.3737 55.8985 42.8535V44.9677C55.8985 46.6171 54.549 47.9516 52.9146 47.9516H30.9631C29.3137 47.9516 27.9792 46.6171 27.9792 44.9677V42.8535C27.9792 42.3737 28.3691 41.9839 28.8339 41.9839H36.8408V37.5606H26.2549V56.3933C26.2549 57.8628 25.0554 59.0623 23.5859 59.0623H2.66897C1.19954 59.0623 0 57.8628 0 56.3933V18.8178C0 17.3484 1.19954 16.1488 2.66897 16.1488H18.8777V10.0612C18.8777 7.78203 20.722 5.93774 23.0012 5.93774H60.8766C63.1407 5.93774 65 7.78203 65 10.0612V33.4372C65 35.7013 63.1407 37.5606 60.8766 37.5606ZM26.2549 35.8213H60.8766C62.1961 35.8213 63.2607 34.7417 63.2607 33.4372V10.0612C63.2607 8.74167 62.1961 7.66208 60.8766 7.66208H23.0012C21.6817 7.66208 20.6021 8.74167 20.6021 10.0612V16.1488C21.2468 16.1488 23.496 16.0439 24.2457 16.2388C25.4002 16.5387 26.2549 17.5733 26.2549 18.8178V35.8213ZM2.66897 17.8881C2.15917 17.8881 1.73933 18.308 1.73933 18.8178V22.3114H24.5156V18.8178C24.5156 18.293 24.0807 17.8881 23.5859 17.8881H2.66897ZM1.73933 24.0358V51.1753H24.5156V24.0358H1.73933ZM1.73933 52.9147V56.3933C1.73933 56.9181 2.15917 57.338 2.66897 57.338H23.5859C24.0957 57.338 24.5156 56.9181 24.5156 56.3933V52.9147H1.73933ZM9.89619 20.962H7.37716C6.2376 20.962 6.2376 19.2376 7.37716 19.2376H9.89619C11.0358 19.2376 11.0358 20.962 9.89619 20.962ZM16.5386 20.962H12.4752C11.3356 20.962 11.3356 19.2376 12.4752 19.2376H16.5386C17.6782 19.2376 17.6782 20.962 16.5386 20.962ZM15.564 55.9885H10.6909C9.55133 55.9885 9.55133 54.2642 10.6909 54.2642H15.564C16.7036 54.2642 16.7036 55.9885 15.564 55.9885ZM13.1349 45.8224C8.5917 45.8224 4.90311 42.1488 4.90311 37.6056C4.90311 33.0773 8.5917 29.3887 13.1349 29.3887C17.6632 29.3887 21.3518 33.0773 21.3518 37.6056C21.3518 42.1488 17.6632 45.8224 13.1349 45.8224ZM13.1349 31.1131C9.55133 31.1131 6.64245 34.0369 6.64245 37.6056C6.64245 41.1892 9.55133 44.0981 13.1349 44.0981C16.7036 44.0981 19.6125 41.1892 19.6125 37.6056C19.6125 34.0369 16.7036 31.1131 13.1349 31.1131ZM11.0657 42.0589C10.5859 42.0589 10.1961 41.684 10.1961 41.2042V34.0219C10.1961 33.3172 10.9908 32.9124 11.5606 33.3172L16.6436 36.9008C17.1384 37.2457 17.1384 37.9654 16.6436 38.3103L11.5606 41.9089C11.4106 42.0139 11.2457 42.0589 11.0657 42.0589ZM11.9354 35.6863V39.5248L14.6494 37.6056L11.9354 35.6863ZM29.7036 43.7232C29.7036 44.5929 29.4787 46.2272 30.9631 46.2272H52.9146C54.3841 46.2272 54.1592 44.5929 54.1592 43.7232H29.7036ZM38.5652 41.9839H45.2976V37.5606H38.5652V41.9839ZM57.7728 31.7428H31.7428C31.263 31.7428 30.8731 31.353 30.8731 30.8732V12.6102C30.8731 12.1304 31.263 11.7405 31.7428 11.7405H57.7728C58.2526 11.7405 58.6424 12.1304 58.6424 12.6102V30.8732C58.6424 31.353 58.2526 31.7428 57.7728 31.7428ZM32.5975 30.0035H56.9181V13.4798H32.5975V30.0035ZM42.4787 17.9631V25.5202L47.8316 21.7417L42.4787 17.9631Z"
            fill="#AD9C6C" />
    </g>
    <defs>
        <clipPath id="clip0_59_516">
            <rect width="65" height="65" fill="white" />
        </clipPath>
    </defs>
</svg>