<svg width="28" height="28" viewBox="0 0 28 28" fill="none" xmlns="http://www.w3.org/2000/svg">
    <path
        d="M9.61779 9.54827C9.407 9.33155 9.11875 9.20743 8.81646 9.20324C8.51416 9.19904 8.22257 9.3151 8.00585 9.52589C7.78912 9.73667 7.66501 10.0249 7.66081 10.3272C7.65661 10.6295 7.77267 10.9211 7.98346 11.1378L10.6029 13.7013L7.98346 16.2647C7.87854 16.3688 7.79526 16.4926 7.73843 16.629C7.6816 16.7654 7.65234 16.9117 7.65234 17.0595C7.65234 17.2072 7.6816 17.3536 7.73843 17.49C7.79526 17.6264 7.87854 17.7502 7.98346 17.8542C8.08752 17.9592 8.21133 18.0424 8.34774 18.0993C8.48415 18.1561 8.63046 18.1854 8.77824 18.1854C8.92601 18.1854 9.07232 18.1561 9.20873 18.0993C9.34514 18.0424 9.46895 17.9592 9.57301 17.8542L12.9312 14.496C13.0361 14.392 13.1194 14.2682 13.1762 14.1318C13.2331 13.9953 13.2623 13.849 13.2623 13.7013C13.2623 13.5535 13.2331 13.4072 13.1762 13.2708C13.1194 13.1344 13.0361 13.0105 12.9312 12.9065L9.61779 9.54827ZM19.1327 12.9065L15.7745 9.54827C15.5637 9.33749 15.2778 9.21907 14.9797 9.21907C14.6816 9.21907 14.3957 9.33749 14.185 9.54827C13.9742 9.75906 13.8557 10.045 13.8557 10.343C13.8557 10.6411 13.9742 10.927 14.185 11.1378L16.7596 13.7013L14.185 16.2647C14.08 16.3688 13.9968 16.4926 13.9399 16.629C13.8831 16.7654 13.8538 16.9117 13.8538 17.0595C13.8538 17.2072 13.8831 17.3536 13.9399 17.49C13.9968 17.6264 14.08 17.7502 14.185 17.8542C14.289 17.9592 14.4128 18.0424 14.5492 18.0993C14.6856 18.1561 14.832 18.1854 14.9797 18.1854C15.1275 18.1854 15.2738 18.1561 15.4102 18.0993C15.5466 18.0424 15.6704 17.9592 15.7745 17.8542L19.1327 14.496C19.2406 14.395 19.3274 14.2735 19.3881 14.1387C19.4488 14.0039 19.4822 13.8584 19.4864 13.7106C19.4906 13.5628 19.4654 13.4156 19.4124 13.2776C19.3594 13.1396 19.2795 13.0135 19.1775 12.9065H19.1327Z"
        fill="#AD9C6C" />
</svg>
    