<svg width="13" height="10" viewBox="0 0 13 10" fill="none" xmlns="http://www.w3.org/2000/svg">
    <path
        d="M5.69685 0.547914C5.59278 0.442994 5.46898 0.359718 5.33257 0.302887C5.19616 0.246056 5.04985 0.216797 4.90207 0.216797C4.7543 0.216797 4.60798 0.246056 4.47158 0.302887C4.33517 0.359718 4.21136 0.442994 4.1073 0.547914L0.749086 3.90612C0.644166 4.01019 0.560889 4.13399 0.504059 4.2704C0.447228 4.40681 0.417969 4.55313 0.417969 4.7009C0.417969 4.84867 0.447228 4.99499 0.504059 5.1314C0.560889 5.26781 0.644166 5.39161 0.749086 5.49568L4.1073 8.85388C4.21136 8.9588 4.33517 9.04208 4.47158 9.09891C4.60798 9.15574 4.7543 9.185 4.90207 9.185C5.04985 9.185 5.19616 9.15574 5.33257 9.09891C5.46898 9.04208 5.59278 8.9588 5.69685 8.85388C5.80177 8.74982 5.88504 8.62601 5.94188 8.48961C5.99871 8.3532 6.02797 8.20688 6.02797 8.05911C6.02797 7.91133 5.99871 7.76502 5.94188 7.62861C5.88504 7.4922 5.80177 7.3684 5.69685 7.26433L3.12222 4.7009L5.69685 2.13747C5.80177 2.0334 5.88504 1.9096 5.94188 1.77319C5.99871 1.63678 6.02797 1.49047 6.02797 1.34269C6.02797 1.19492 5.99871 1.0486 5.94188 0.912194C5.88504 0.775785 5.80177 0.651977 5.69685 0.547914V0.547914ZM9.27894 4.7009L11.8983 2.13747C12.1091 1.92668 12.2275 1.64079 12.2275 1.34269C12.2275 1.04459 12.1091 0.758702 11.8983 0.547914C11.6876 0.337127 11.4017 0.218707 11.1036 0.218707C10.8055 0.218707 10.5196 0.337127 10.3088 0.547914L6.95058 3.90612C6.84566 4.01019 6.76238 4.13399 6.70555 4.2704C6.64872 4.40681 6.61946 4.55313 6.61946 4.7009C6.61946 4.84867 6.64872 4.99499 6.70555 5.1314C6.76238 5.26781 6.84566 5.39161 6.95058 5.49568L10.3088 8.85388C10.4129 8.9588 10.5367 9.04208 10.6731 9.09891C10.8095 9.15574 10.9558 9.185 11.1036 9.185C11.2513 9.185 11.3976 9.15574 11.5341 9.09891C11.6705 9.04208 11.7943 8.9588 11.8983 8.85388C12.0033 8.74982 12.0865 8.62601 12.1434 8.48961C12.2002 8.3532 12.2295 8.20688 12.2295 8.05911C12.2295 7.91133 12.2002 7.76502 12.1434 7.62861C12.0865 7.4922 12.0033 7.3684 11.8983 7.26433L9.27894 4.7009Z"
        fill="#AD9C6C" />
</svg>
    