<svg xmlns="http://www.w3.org/2000/svg" width="8" height="16" viewBox="0 0 8 16" fill="none">
    <path
        d="M0.362439 8.5022H2.04859V15.4445C2.04859 15.5104 2.07477 15.5736 2.12137 15.6202C2.16796 15.6668 2.23116 15.693 2.29705 15.693H5.15398C5.21987 15.693 5.28307 15.6668 5.32967 15.6202C5.37626 15.5736 5.40244 15.5104 5.40244 15.4445V8.5345H7.3409C7.40175 8.53434 7.46043 8.51185 7.5058 8.4713C7.55117 8.43075 7.58009 8.37496 7.58706 8.3145L7.88167 5.75835C7.88569 5.72364 7.88231 5.68848 7.87177 5.65517C7.86123 5.62186 7.84377 5.59116 7.82052 5.56507C7.79727 5.53899 7.76877 5.51813 7.73689 5.50384C7.705 5.48956 7.67045 5.48218 7.63552 5.4822H5.40475V3.88066C5.40475 3.39758 5.66475 3.15297 6.17398 3.15297H7.63552C7.70141 3.15297 7.76461 3.12679 7.81121 3.08019C7.8578 3.0336 7.88398 2.9704 7.88398 2.9045V0.55835C7.88439 0.492586 7.85871 0.429342 7.81257 0.382479C7.76643 0.335617 7.70359 0.308959 7.63783 0.30835H5.62552C5.61167 0.30835 5.58013 0.30835 5.53321 0.30835C4.60571 0.31171 3.71049 0.64926 3.01167 1.25912C2.68194 1.54736 2.42899 1.91299 2.27552 2.32317C2.12206 2.73335 2.07289 3.17524 2.13244 3.60912V5.48296H0.363208C0.297312 5.48296 0.234114 5.50914 0.187519 5.55574C0.140923 5.60233 0.114746 5.66553 0.114746 5.73143V8.2545C0.114949 8.32013 0.141111 8.38302 0.187519 8.42943C0.233926 8.47583 0.296809 8.50199 0.362439 8.5022Z"
        fill="#AD9C6C" />
</svg>