<svg xmlns="http://www.w3.org/2000/svg" width="65" height="65" viewBox="0 0 65 65" fill="none">
    <g clip-path="url(#clip0_59_492)">
        <path
            d="M47.6667 2.16669C40.3433 2.16669 34.606 7.74044 32.5 10.1064C30.394 7.74044 24.6567 2.16669 17.3333 2.16669C6.07425 2.16669 0 11.1464 0 19.5954C0 41.5892 25.7108 59.0742 30.8652 62.3567C31.3544 62.6659 31.9213 62.8301 32.5 62.8301C33.0787 62.8301 33.6456 62.6659 34.1348 62.3567C39.2893 59.0742 65 41.5892 65 19.5954C65 11.1464 58.9258 2.16669 47.6667 2.16669ZM23.8333 36.8334V54.6C22.451 53.4853 20.9896 52.2416 19.5 50.882V36.8334C19.5 36.546 19.3859 36.2705 19.1827 36.0673C18.9795 35.8642 18.704 35.75 18.4167 35.75C16.6933 35.7483 15.041 35.0629 13.8224 33.8443C12.6038 32.6257 11.9184 30.9734 11.9167 29.25V18.5359C11.9062 18.2797 11.9794 18.0271 12.1252 17.8162C12.271 17.6053 12.4815 17.4476 12.7248 17.3669C12.9102 17.3181 13.1053 17.3201 13.2897 17.3727C13.474 17.4253 13.6408 17.5266 13.7724 17.6659C13.872 17.7638 13.9509 17.8807 14.0043 18.0097C14.0577 18.1386 14.0846 18.2771 14.0833 18.4167V25.8809C14.0719 26.7095 14.3697 27.5127 14.9185 28.1336C15.4674 28.7546 16.2279 29.1487 17.0517 29.2392C17.5212 29.2812 17.9943 29.2195 18.4374 29.0585C18.8805 28.8975 19.2828 28.6411 19.6159 28.3075C19.9247 28.0082 20.1697 27.6495 20.336 27.2529C20.5022 26.8563 20.5864 26.4301 20.5833 26V18.5359C20.5729 18.2797 20.6461 18.0271 20.7919 17.8162C20.9377 17.6053 21.1482 17.4476 21.3915 17.3669C21.5769 17.3181 21.772 17.3201 21.9563 17.3727C22.1407 17.4253 22.3074 17.5266 22.4391 17.6659C22.5387 17.7638 22.6176 17.8807 22.671 18.0097C22.7244 18.1386 22.7513 18.2771 22.75 18.4167V25.8809C22.7386 26.7095 23.0364 27.5127 23.5852 28.1336C24.134 28.7546 24.8946 29.1487 25.7183 29.2392C26.1879 29.2812 26.661 29.2195 27.1041 29.0585C27.5472 28.8975 27.9495 28.6411 28.2826 28.3075C28.5914 28.0082 28.8364 27.6495 29.0026 27.2529C29.1689 26.8563 29.2531 26.4301 29.25 26V18.5359C29.2396 18.2797 29.3128 18.0271 29.4586 17.8162C29.6044 17.6053 29.8148 17.4476 30.0582 17.3669C30.2435 17.3182 30.4386 17.3202 30.6229 17.3728C30.8073 17.4255 30.974 17.5267 31.1058 17.6659C31.2054 17.7638 31.2842 17.8807 31.3377 18.0097C31.3911 18.1386 31.4179 18.2771 31.4167 18.4167V29.25C31.4149 30.9734 30.7296 32.6257 29.511 33.8443C28.2923 35.0629 26.64 35.7483 24.9167 35.75C24.6293 35.75 24.3538 35.8642 24.1506 36.0673C23.9475 36.2705 23.8333 36.546 23.8333 36.8334ZM43.3333 46.5834V52.7963C41.8058 54.1049 40.3433 55.2706 39 56.2944V16.25C41.0928 16.5179 43.0166 17.5384 44.4121 19.1208C45.8076 20.7033 46.5794 22.7396 46.5833 24.8495V43.3334C46.5833 43.908 46.3551 44.4591 45.9487 44.8654C45.5424 45.2718 44.9913 45.5 44.4167 45.5C44.1293 45.5 43.8538 45.6142 43.6506 45.8173C43.4475 46.0205 43.3333 46.296 43.3333 46.5834ZM45.5 50.8766V47.5291C46.4297 47.2881 47.2532 46.7454 47.8413 45.9861C48.4295 45.2268 48.7491 44.2938 48.75 43.3334V24.8517C48.7458 22.2151 47.7821 19.6703 46.0386 17.6924C44.2952 15.7145 41.8914 14.439 39.2763 14.1039C38.9735 14.0626 38.6654 14.0871 38.373 14.1757C38.0806 14.2643 37.8108 14.415 37.5819 14.6174C37.3471 14.8221 37.1588 15.0746 37.0297 15.3581C36.9006 15.6416 36.8336 15.9494 36.8333 16.2609V57.8988C35.1455 59.1132 33.7881 60.008 32.9713 60.528C32.8306 60.6182 32.6671 60.6661 32.5 60.6661C32.3329 60.6661 32.1694 60.6182 32.0288 60.528C30.8858 59.8 28.6932 58.3451 26 56.2933V37.8495C28.0932 37.5825 30.0175 36.5623 31.4132 34.9797C32.8088 33.397 33.5803 31.3602 33.5833 29.25V18.4167C33.5868 17.9915 33.5045 17.5699 33.3415 17.1772C33.1784 16.7844 32.9379 16.4286 32.6343 16.1309C32.2388 15.7284 31.7447 15.4366 31.2013 15.2845C30.6578 15.1325 30.0841 15.1255 29.5371 15.2642C28.8223 15.4587 28.1928 15.886 27.7484 16.4787C27.3039 17.0713 27.0699 17.7952 27.0833 18.5359V26C27.0837 26.1444 27.0544 26.2873 26.9974 26.42C26.9404 26.5527 26.8568 26.6722 26.7518 26.7714C26.6399 26.8811 26.5056 26.9652 26.358 27.0179C26.2104 27.0707 26.0532 27.0908 25.8971 27.0769C25.6161 27.0309 25.3616 26.8841 25.1811 26.6639C25.0006 26.4438 24.9066 26.1654 24.9167 25.8809V18.4167C24.9201 17.9915 24.8379 17.5699 24.6748 17.1772C24.5118 16.7844 24.2713 16.4286 23.9677 16.1309C23.5721 15.7285 23.078 15.4367 22.5346 15.2847C21.9912 15.1326 21.4174 15.1256 20.8704 15.2642C20.1556 15.4587 19.5262 15.886 19.0817 16.4787C18.6373 17.0713 18.4032 17.7952 18.4167 18.5359V26C18.417 26.1444 18.3878 26.2873 18.3308 26.42C18.2737 26.5527 18.1902 26.6722 18.0852 26.7714C17.973 26.8807 17.8386 26.9645 17.6911 27.0172C17.5436 27.0699 17.3865 27.0903 17.2304 27.0769C16.9512 27.0298 16.6986 26.8831 16.5193 26.664C16.34 26.4449 16.2462 26.1682 16.2554 25.8852V18.4167C16.2589 17.9915 16.1766 17.5699 16.0136 17.1772C15.8505 16.7844 15.61 16.4286 15.3064 16.1309C14.9108 15.7285 14.4167 15.4367 13.8733 15.2847C13.3299 15.1326 12.7562 15.1256 12.2092 15.2642C11.4934 15.4576 10.8627 15.8846 10.4172 16.4773C9.97169 17.07 9.73687 17.7945 9.75 18.5359V29.25C9.75305 31.3602 10.5245 33.397 11.9202 34.9797C13.3158 36.5623 15.2401 37.5825 17.3333 37.8495V48.828C9.7175 41.3725 2.16667 31.0917 2.16667 19.5954C2.16667 12.1973 7.4815 4.33335 17.3333 4.33335C25.35 4.33335 31.5759 12.3684 31.6333 12.4497C31.7389 12.5754 31.8707 12.6765 32.0195 12.7459C32.1683 12.8152 32.3304 12.8512 32.4946 12.8512C32.6587 12.8512 32.8209 12.8152 32.9697 12.7459C33.1185 12.6765 33.2503 12.5754 33.3558 12.4497C33.4241 12.3684 39.65 4.33335 47.6667 4.33335C57.5185 4.33335 62.8333 12.1973 62.8333 19.5954C62.8333 32.1826 53.7788 43.3193 45.5 50.8766Z"
            fill="#AD9C6C" />
    </g>
    <defs>
        <clipPath id="clip0_59_492">
            <rect width="65" height="65" fill="white" />
        </clipPath>
    </defs>
</svg>