<svg xmlns="http://www.w3.org/2000/svg" width="65" height="65" viewBox="0 0 65 65" fill="none">
    <path
        d="M61.9531 34.5312H58.2613C59.346 32.3172 59.9219 29.8939 59.9219 27.4219C59.9219 18.8378 53.2259 11.8046 44.786 11.2287C45.1009 9.63828 46.1175 9.05531 46.1571 9.03398C46.6588 8.78313 46.862 8.17273 46.6111 7.67102C46.3602 7.17031 45.7509 6.96719 45.2481 7.21703C45.1527 7.26477 43.1224 8.32406 42.7273 11.2013C40.8048 11.312 38.9462 11.7701 37.1749 12.5541C36.1227 9.13047 33.1104 6.55992 29.4531 6.15367V5.07812C29.4531 4.51648 28.9981 4.0625 28.4375 4.0625C27.8769 4.0625 27.4219 4.51648 27.4219 5.07812V6.15367C22.8587 6.66148 19.2969 10.5371 19.2969 15.2344C19.2969 16.248 19.2187 17.2595 19.0988 18.2894C18.4641 18.3036 17.8374 18.3838 17.223 18.528C16.9051 15.4832 14.7712 14.3741 14.6737 14.3254C14.1781 14.0786 13.582 14.2766 13.325 14.7702C13.0701 15.2618 13.263 15.8732 13.7516 16.1362C13.8044 16.1647 14.9043 16.7802 15.1745 18.5057C14.5285 18.3615 13.8704 18.2812 13.2031 18.2812C8.16359 18.2812 4.0625 22.3813 4.0625 27.4219C4.0625 29.4745 4.745 32.1252 5.84391 34.5312H3.04688C1.36703 34.5312 0 35.8983 0 37.5781V39.6094C0 41.2892 1.36703 42.6562 3.04688 42.6562V55.8594C3.04688 58.6595 5.32492 60.9375 8.125 60.9375H56.875C59.6751 60.9375 61.9531 58.6595 61.9531 55.8594V42.6562C63.633 42.6562 65 41.2892 65 39.6094V37.5781C65 35.8983 63.633 34.5312 61.9531 34.5312ZM51.2322 40.625C51.5816 40.0248 51.7969 39.3362 51.7969 38.5938C51.7969 37.4735 52.7079 36.5625 53.8281 36.5625H56.4241C56.0747 37.1627 55.8594 37.8513 55.8594 38.5938C55.8594 39.714 54.9484 40.625 53.8281 40.625H51.2322ZM45.1384 40.625C45.4878 40.0248 45.7031 39.3362 45.7031 38.5938C45.7031 37.4735 46.6141 36.5625 47.7344 36.5625H50.3303C49.9809 37.1627 49.7656 37.8513 49.7656 38.5938C49.7656 39.714 48.8546 40.625 47.7344 40.625H45.1384ZM39.0447 40.625C39.3941 40.0248 39.6094 39.3362 39.6094 38.5938C39.6094 37.4735 40.5204 36.5625 41.6406 36.5625H44.2366C43.8872 37.1627 43.6719 37.8513 43.6719 38.5938C43.6719 39.714 42.7609 40.625 41.6406 40.625H39.0447ZM32.9509 40.625C33.3003 40.0248 33.5156 39.3362 33.5156 38.5938C33.5156 37.4735 34.4266 36.5625 35.5469 36.5625H38.1428C37.7934 37.1627 37.5781 37.8513 37.5781 38.5938C37.5781 39.714 36.6671 40.625 35.5469 40.625H32.9509ZM26.8572 40.625C27.2066 40.0248 27.4219 39.3362 27.4219 38.5938C27.4219 37.4735 28.3329 36.5625 29.4531 36.5625H32.0491C31.6997 37.1627 31.4844 37.8513 31.4844 38.5938C31.4844 39.714 30.5734 40.625 29.4531 40.625H26.8572ZM20.7634 40.625C21.1128 40.0248 21.3281 39.3362 21.3281 38.5938C21.3281 37.4735 22.2391 36.5625 23.3594 36.5625H25.0118H25.9553C25.6059 37.1627 25.3906 37.8513 25.3906 38.5938C25.3906 39.714 24.4796 40.625 23.3594 40.625H20.7634ZM8.57594 40.625C8.92531 40.0248 9.14062 39.3362 9.14062 38.5938C9.14062 37.4735 10.0516 36.5625 11.1719 36.5625H13.7678C13.4184 37.1627 13.2031 37.8513 13.2031 38.5938C13.2031 39.714 12.2921 40.625 11.1719 40.625H8.57594ZM19.8616 36.5625C19.5122 37.1627 19.2969 37.8513 19.2969 38.5938C19.2969 39.714 18.3859 40.625 17.2656 40.625H14.6697C15.0191 40.0248 15.2344 39.3362 15.2344 38.5938C15.2344 37.4735 16.1454 36.5625 17.2656 36.5625H19.8616ZM19.2969 46.1236V54.8438H13.2031V46.1236L16.25 43.0767L19.2969 46.1236ZM43.6719 13.2031C51.5125 13.2031 57.8906 19.5813 57.8906 27.4219C57.8906 29.9193 57.2203 32.3629 55.9609 34.5312H38.1083C39.0823 32.6889 39.6094 30.5835 39.6094 28.4375C39.6094 26.8643 39.2275 25.3084 38.7847 23.5077C38.219 21.2073 37.5781 18.6012 37.5781 15.2344C37.5781 15.0343 37.5609 14.8373 37.5477 14.6402C39.4824 13.7028 41.535 13.2031 43.6719 13.2031ZM28.4375 8.125C32.3578 8.125 35.5469 11.3151 35.5469 15.2344C35.5469 18.847 36.2477 21.6998 36.8113 23.9921C37.2227 25.6659 37.5781 27.1101 37.5781 28.4375C37.5781 30.6384 36.923 32.7783 35.7378 34.5312H26.6561C27.755 32.1252 28.4375 29.4745 28.4375 27.4219C28.4375 23.0059 25.2901 19.3131 21.122 18.4651C21.2459 17.3773 21.3281 16.3079 21.3281 15.2344C21.3281 11.3151 24.5172 8.125 28.4375 8.125ZM6.09375 27.4219C6.09375 23.5026 9.28281 20.3125 13.2031 20.3125C14.1182 20.3125 15.015 20.4882 15.8681 20.8345C16.1129 20.9341 16.3871 20.9341 16.6319 20.8345C17.485 20.4882 18.3818 20.3125 19.2969 20.3125C23.2172 20.3125 26.4062 23.5026 26.4062 27.4219C26.4062 29.4095 25.6141 32.1994 24.4055 34.5312H8.09453C6.88594 32.1994 6.09375 29.4095 6.09375 27.4219ZM2.03125 39.6094V37.5781C2.03125 37.0175 2.48727 36.5625 3.04688 36.5625H7.4882H7.67406C7.32469 37.1627 7.10938 37.8513 7.10938 38.5938C7.10938 39.714 6.19836 40.625 5.07812 40.625H3.04688C2.48727 40.625 2.03125 40.17 2.03125 39.6094ZM59.9219 55.8594C59.9219 57.5392 58.5548 58.9062 56.875 58.9062H8.125C6.44516 58.9062 5.07812 57.5392 5.07812 55.8594V42.6562H13.7983L11.4695 44.9851C11.2795 45.175 11.1719 45.433 11.1719 45.7031V55.8594C11.1719 56.421 11.6269 56.875 12.1875 56.875H20.3125C20.8731 56.875 21.3281 56.421 21.3281 55.8594V45.7031C21.3281 45.433 21.2215 45.175 21.0305 44.9851L18.7017 42.6562H59.9219V55.8594ZM62.9688 39.6094C62.9688 40.17 62.5127 40.625 61.9531 40.625H57.3259C57.6753 40.0248 57.8906 39.3362 57.8906 38.5938C57.8906 37.4735 58.8016 36.5625 59.9219 36.5625H61.9531C62.5127 36.5625 62.9688 37.0175 62.9688 37.5781V39.6094Z"
        fill="#AD9C6C" />
    <path
        d="M43.6719 17.2656C49.272 17.2656 53.8281 21.8217 53.8281 27.4219C53.8281 27.9835 54.2831 28.4375 54.8438 28.4375C55.4044 28.4375 55.8594 27.9835 55.8594 27.4219C55.8594 20.7015 50.3923 15.2344 43.6719 15.2344C43.1113 15.2344 42.6562 15.6884 42.6562 16.25C42.6562 16.8116 43.1113 17.2656 43.6719 17.2656Z"
        fill="#AD9C6C" />
    <path
        d="M10.1562 27.4219C10.1562 25.742 11.5233 24.375 13.2031 24.375C13.7638 24.375 14.2188 23.921 14.2188 23.3594C14.2188 22.7977 13.7638 22.3438 13.2031 22.3438C10.403 22.3438 8.125 24.6218 8.125 27.4219C8.125 28.5827 8.49469 30.2372 9.1132 31.848C9.26758 32.2522 9.6525 32.5 10.0608 32.5C10.1816 32.5 10.3055 32.4787 10.4244 32.433C10.9484 32.2319 11.2095 31.6448 11.0084 31.1208C10.3797 29.4805 10.1562 28.1034 10.1562 27.4219Z"
        fill="#AD9C6C" />
    <path
        d="M28.4375 12.1875C30.1173 12.1875 31.4844 13.5545 31.4844 15.2344C31.4844 15.796 31.9394 16.25 32.5 16.25C33.0606 16.25 33.5156 15.796 33.5156 15.2344C33.5156 12.4343 31.2376 10.1562 28.4375 10.1562C27.8769 10.1562 27.4219 10.6102 27.4219 11.1719C27.4219 11.7335 27.8769 12.1875 28.4375 12.1875Z"
        fill="#AD9C6C" />
    <path
        d="M16.25 47.7344C16.5141 47.7344 16.7781 47.6227 16.9711 47.4398C17.1539 47.2469 17.2656 46.9828 17.2656 46.7187C17.2656 46.4547 17.1539 46.1896 16.9711 45.9977C16.5852 45.6219 15.9047 45.6219 15.5289 45.9977C15.3461 46.1896 15.2344 46.4435 15.2344 46.7187C15.2344 46.993 15.3461 47.2469 15.5289 47.4398C15.7219 47.6227 15.9859 47.7344 16.25 47.7344Z"
        fill="#AD9C6C" />
</svg>