<svg xmlns="http://www.w3.org/2000/svg" width="65" height="65" viewBox="0 0 65 65" fill="none">
    <path
        d="M6.29226 20.4467C7.30788 21.1877 8.48677 21.5515 9.65918 21.5515C11.127 21.5515 12.5848 20.9811 13.6992 19.8667C15.7038 17.8619 15.9477 14.7469 14.279 12.4598C14.004 12.0827 13.5795 11.8458 13.1141 11.8097C12.6485 11.7734 12.193 11.942 11.8632 12.2716L6.10411 18.0311C5.77441 18.3608 5.60607 18.8167 5.64213 19.2817C5.67831 19.7472 5.91533 20.1717 6.29226 20.4467ZM12.9417 13.8866C13.8265 15.3737 13.6026 17.2704 12.3526 18.5204C11.1028 19.7703 9.20621 19.9943 7.71896 19.1095L12.9417 13.8866Z"
        fill="#AD9C6C" />
    <path
        d="M47.7453 14.2222H50.9415C52.096 14.2222 53.0351 13.283 53.0351 12.1285V8.93233C53.0351 7.77794 52.096 6.83875 50.9415 6.83875H47.7453C46.5908 6.83875 45.6517 7.77794 45.6517 8.93233V12.1285C45.6517 13.283 46.5908 14.2222 47.7453 14.2222ZM47.556 8.93233C47.556 8.82797 47.641 8.74304 47.7453 8.74304H50.9415C51.0458 8.74304 51.1308 8.82797 51.1308 8.93233V12.1285C51.1308 12.233 51.0458 12.3179 50.9415 12.3179H47.7453C47.641 12.3179 47.556 12.233 47.556 12.1285V8.93233Z"
        fill="#AD9C6C" />
    <path
        d="M14.1553 10.0263C14.5636 10.4345 15.0996 10.6385 15.6357 10.6385C16.172 10.6385 16.708 10.4345 17.1162 10.0263L19.3761 7.76631C19.7716 7.37085 19.9894 6.84514 19.9894 6.28578C19.9894 5.72643 19.7716 5.20072 19.3763 4.80538L17.1161 2.54536C16.2997 1.72906 14.9716 1.72931 14.1553 2.54536L11.8954 4.80538C11.5 5.20084 11.2821 5.72656 11.2821 6.28591C11.2821 6.84527 11.5 7.37098 11.8953 7.76631L14.1553 10.0263ZM13.242 6.15198L15.5019 3.89196C15.5758 3.8182 15.696 3.81807 15.7696 3.89196L18.0298 6.1521C18.0755 6.19793 18.0853 6.25011 18.0853 6.28591C18.0853 6.32171 18.0756 6.37389 18.0297 6.41985L15.7698 8.67974C15.6958 8.75363 15.5757 8.7535 15.5019 8.67974L13.2419 6.41959C13.1962 6.37376 13.1864 6.32158 13.1864 6.28578C13.1864 6.24998 13.1961 6.19793 13.242 6.15198Z"
        fill="#AD9C6C" />
    <path
        d="M30.9651 14.1545C31.1511 14.3404 31.3949 14.4334 31.6385 14.4334C31.8821 14.4334 32.1259 14.3405 32.3119 14.1545L32.9556 13.5107C33.3275 13.1389 33.3275 12.536 32.9556 12.1643C32.5837 11.7924 31.9809 11.7924 31.6091 12.1643L30.9653 12.808C30.5933 13.1799 30.5933 13.7828 30.9651 14.1545Z"
        fill="#AD9C6C" />
    <path
        d="M35.6412 16.6447C36.1672 16.6447 36.5934 16.2184 36.5934 15.6926V14.8529C36.5934 14.3271 36.1672 13.9008 35.6412 13.9008C35.1153 13.9008 34.6891 14.3271 34.6891 14.8529V15.6926C34.6891 16.2184 35.1153 16.6447 35.6412 16.6447Z"
        fill="#AD9C6C" />
    <path
        d="M31.2191 9.47852C31.2191 8.95268 30.7929 8.52637 30.2669 8.52637H29.4272C28.9013 8.52637 28.4751 8.95268 28.4751 9.47852C28.4751 10.0044 28.9013 10.4307 29.4272 10.4307H30.2669C30.7929 10.4307 31.2191 10.0044 31.2191 9.47852Z"
        fill="#AD9C6C" />
    <path
        d="M29.6278 6.46838C29.8138 6.65424 30.0575 6.74729 30.3011 6.74729C30.5447 6.74729 30.7885 6.65436 30.9745 6.46838C31.3463 6.09653 31.3463 5.49363 30.9745 5.12191L30.3807 4.52815C30.0088 4.15631 29.406 4.15631 29.0341 4.52815C28.6623 4.9 28.6623 5.5029 29.0341 5.87462L29.6278 6.46838Z"
        fill="#AD9C6C" />
    <path
        d="M39.2451 16.0858C39.431 16.2716 39.6747 16.3647 39.9184 16.3647C40.162 16.3647 40.4058 16.2717 40.5917 16.0859C40.9636 15.714 40.9636 15.1111 40.5918 14.7393L39.998 14.1455C39.626 13.7738 39.0231 13.7737 38.6516 14.1455C38.2796 14.5174 38.2796 15.1203 38.6514 15.4921L39.2451 16.0858Z"
        fill="#AD9C6C" />
    <path
        d="M7.93019 48.0201C8.16747 48.4312 8.6099 48.6866 9.08457 48.6866H13.3972C13.872 48.6866 14.3144 48.4312 14.5517 48.02C14.789 47.6088 14.789 47.0981 14.5516 46.6871L12.3953 42.9521C12.1579 42.5411 11.7156 42.2858 11.2409 42.2858C11.2409 42.2858 11.2407 42.2858 11.2406 42.2858C10.7659 42.2858 10.3236 42.5413 10.0864 42.9524L7.93006 46.6872C7.69266 47.0982 7.69279 47.609 7.93019 48.0201ZM11.2407 44.7612L12.4074 46.7822H10.0739L11.2407 44.7612Z"
        fill="#AD9C6C" />
    <path
        d="M16.18 47.639C16.4173 48.0501 16.8596 48.3055 17.3342 48.3056H17.3345C17.8091 48.3056 18.2515 48.0503 18.4889 47.6393L18.489 47.6391L20.6451 43.9045C20.8826 43.4935 20.8826 42.9826 20.6453 42.5715C20.408 42.1605 19.9656 41.9049 19.4908 41.9049H15.1782C14.7035 41.9049 14.2611 42.1602 14.0238 42.5714C13.7864 42.9825 13.7863 43.4932 14.0237 43.9044L16.18 47.639ZM18.5012 43.8091L17.3345 45.83L16.1678 43.8091H18.5012Z"
        fill="#AD9C6C" />
    <path
        d="M20.0717 48.0201C20.3089 48.4312 20.7514 48.6866 21.2261 48.6866H25.5387C26.0135 48.6866 26.4559 48.4312 26.6932 48.02C26.9304 47.6088 26.9304 47.0981 26.693 46.6871L24.5367 42.9521C24.2993 42.5411 23.857 42.2858 23.3824 42.2858C23.3824 42.2858 23.3822 42.2858 23.3821 42.2858C22.9074 42.2858 22.4651 42.5413 22.2278 42.9524L20.0715 46.6872C19.8341 47.0982 19.8343 47.609 20.0717 48.0201ZM23.3824 44.7612L24.5491 46.7822H22.2155L23.3824 44.7612Z"
        fill="#AD9C6C" />
    <path
        d="M28.3216 47.639C28.5589 48.0501 29.0012 48.3055 29.4758 48.3056H29.4761C29.9507 48.3056 30.3931 48.0503 30.6305 47.6393L30.6306 47.6391L32.7867 43.9045C33.0242 43.4935 33.0242 42.9826 32.7869 42.5715C32.5496 42.1605 32.1072 41.9049 31.6324 41.9049H27.3198C26.8451 41.9049 26.4027 42.1602 26.1654 42.5714C25.928 42.9825 25.9279 43.4932 26.1653 43.9044L28.3216 47.639ZM30.6428 43.8091L29.4761 45.83L28.3094 43.8091H30.6428Z"
        fill="#AD9C6C" />
    <path
        d="M32.2131 48.0199C32.4503 48.4311 32.8928 48.6865 33.3676 48.6865H37.6802C38.1549 48.6865 38.5973 48.4312 38.8346 48.02C39.072 47.6089 39.0721 47.0982 38.8347 46.687L36.6785 42.9523C36.4412 42.5412 35.9989 42.2858 35.5243 42.2856H35.524C35.0495 42.2856 34.607 42.5409 34.3696 42.952L34.3695 42.9521L32.2134 46.6867C31.9758 47.0979 31.9758 47.6087 32.2131 48.0199ZM35.5239 44.7612L36.6906 46.7822H34.357L35.5239 44.7612Z"
        fill="#AD9C6C" />
    <path
        d="M40.4633 47.6393C40.7007 48.0503 41.143 48.3056 41.6177 48.3056H41.6179C42.0926 48.3056 42.5349 48.0501 42.7722 47.639L44.9285 43.9042C45.1657 43.4931 45.1656 42.9822 44.9282 42.5712C44.6909 42.1601 44.2485 41.9047 43.7738 41.9047H39.4612C38.9864 41.9047 38.544 42.1601 38.3067 42.5713C38.0695 42.9825 38.0694 43.4932 38.3069 43.9042L40.4633 47.6393ZM42.7845 43.8091L41.6177 45.8301L40.451 43.8091H42.7845Z"
        fill="#AD9C6C" />
    <path
        d="M44.3547 48.0199C44.5919 48.4311 45.0344 48.6865 45.5092 48.6865H49.8218C50.2965 48.6865 50.7389 48.4312 50.9762 48.02C51.2136 47.6089 51.2137 47.0982 50.9763 46.687L48.8201 42.9523C48.5828 42.5412 48.1405 42.2858 47.6659 42.2856C47.6657 42.2856 47.6657 42.2856 47.6656 42.2856C47.1911 42.2856 46.7486 42.5409 46.5112 42.952C46.5111 42.952 46.5111 42.9521 46.5111 42.9521L44.355 46.6867C44.1174 47.0979 44.1174 47.6087 44.3547 48.0199ZM47.6655 44.7612L48.8322 46.7822H46.4986L47.6655 44.7612Z"
        fill="#AD9C6C" />
    <path
        d="M52.6048 47.6393C52.8422 48.0503 53.2845 48.3056 53.7591 48.3056H53.7594C54.2341 48.3056 54.6764 48.0501 54.9137 47.639L57.07 43.9042C57.3072 43.4931 57.3071 42.9822 57.0697 42.5712C56.8324 42.1601 56.39 41.9047 55.9153 41.9047H51.6027C51.1279 41.9047 50.6855 42.1601 50.4482 42.5713C50.2109 42.9825 50.2109 43.4932 50.4483 43.9042L52.6048 47.6393ZM54.9258 43.8091L53.7591 45.8301L52.5924 43.8091H54.9258Z"
        fill="#AD9C6C" />
    <path
        d="M60.7589 39.3411C60.4609 39.0318 60.0439 38.8545 59.6146 38.8545H59.0925C59.5401 38.1283 59.7467 37.3444 59.6875 36.5429C59.6027 35.3938 58.9555 34.3334 57.8686 33.5162C60.0854 31.121 60.7604 28.333 59.4807 26.4512C58.6245 25.1924 57.0502 24.5791 55.1273 24.7077C55.7499 20.5058 53.599 16.649 50.2008 16.0019C46.7981 15.3538 43.3774 18.1569 42.4164 22.3006C40.6749 21.4744 38.986 21.4664 37.7274 22.3223C37.6611 22.3673 37.5983 22.416 37.5357 22.4648C37.1018 22.1307 36.6417 21.8419 36.1607 21.6064C35.5184 21.2919 34.8669 21.0849 34.2218 20.9819C34.4975 20.4766 34.7271 19.9429 34.9042 19.3857C35.6485 19.532 36.4052 19.6059 37.1626 19.6059C39.6754 19.6057 42.1968 18.7969 44.3033 17.1533C44.7821 16.7798 45.0782 16.2166 45.1156 15.6082C45.1534 14.9949 44.9259 14.3941 44.4916 13.9596L31.1602 0.628143C30.7258 0.193837 30.1247 -0.0336634 29.5116 0.00404172C28.9033 0.0414929 28.3401 0.337548 27.9666 0.816288C26.4191 2.79955 25.6138 5.15034 25.5244 7.5156C20.7991 7.86092 17.0593 11.813 17.0593 16.6249C17.0593 21.6629 21.158 25.7616 26.196 25.7616C26.7491 25.7616 27.2905 25.7107 27.8166 25.6157C27.7127 26.0822 27.6502 26.5678 27.6321 27.0661C26.303 26.7842 24.8491 27.2594 23.5282 28.3915C21.5129 24.6454 17.4756 22.8396 14.3632 24.3577C13.7016 24.6804 13.1334 25.1291 12.6643 25.6722L10.9013 23.9092C10.0849 23.0929 8.75683 23.0931 7.94052 23.9092L5.68062 26.1692C5.28516 26.5647 5.06731 27.0904 5.06731 27.6497C5.06731 28.2091 5.28516 28.7348 5.6805 29.1301L7.94052 31.3902C8.34867 31.7982 8.88492 32.0023 9.42092 32.0023C9.95717 32.0023 10.4932 31.7983 10.9014 31.3902L11.1326 31.1588C11.1812 31.6462 11.2709 32.1394 11.402 32.6326C8.86144 33.5901 7.03153 36.0059 6.93632 38.8546H5.38533C4.9561 38.8546 4.53906 39.032 4.2411 39.3412C3.94391 39.6495 3.78267 40.0712 3.79842 40.4985C3.95267 44.6458 5.51495 48.6007 8.19404 51.9969C8.2108 52.0227 8.22692 52.0487 8.24635 52.073C8.34283 52.194 8.44363 52.3123 8.54278 52.4317H8.54481C11.1044 55.5199 14.6045 58.1187 18.8179 59.9399V62.7783C18.8179 64.0033 19.8146 65 21.0395 65H43.9605C45.1855 65 46.1822 64.0033 46.1822 62.7783V59.9398C55.1587 56.0599 60.8984 48.6499 61.2017 40.4983C61.2173 40.0711 61.0559 39.6493 60.7589 39.3411ZM35.815 38.8545L38.5696 36.0997C38.7514 35.9179 39.0472 35.9179 39.2289 36.0997L40.3454 37.2163L40.0004 37.5613C39.6444 37.9173 39.4182 38.3671 39.3392 38.8545H35.815ZM41.4004 38.8545L44.155 36.0997C44.337 35.9179 44.6328 35.9179 44.8143 36.0997L45.9309 37.2163L45.5858 37.5613C45.2298 37.9173 45.0036 38.3671 44.9246 38.8545H41.4004ZM46.9858 38.8545L49.7406 36.0997C49.8594 35.9809 49.9979 35.9633 50.0702 35.9633C50.1424 35.9633 50.281 35.981 50.3999 36.0997L53.1546 38.8545H46.9858ZM44.0888 23.9037C44.1133 23.61 44.1521 23.3227 44.204 23.0498C44.8374 19.7234 47.367 17.4004 49.8446 17.8726C52.3213 18.3442 53.8209 21.4342 53.1875 24.7604C53.1363 25.029 53.0679 25.3064 52.9842 25.585C52.8864 25.9111 52.9702 26.2647 53.2037 26.5122C53.4376 26.7599 53.7857 26.8636 54.1167 26.7851C55.8621 26.3695 57.3142 26.652 57.906 27.5221C58.7619 28.7806 57.8124 31.1241 55.6974 32.9733C55.4568 33.1835 55.3378 33.5004 55.3805 33.817C55.423 34.1336 55.6216 34.4077 55.9091 34.547C57.0438 35.0963 57.7289 35.8749 57.7885 36.683C57.8585 37.6319 57.1176 38.4037 56.5422 38.8545H55.2142C55.138 38.3808 54.9194 37.9261 54.5548 37.5613L51.7465 34.753C51.7393 34.7459 51.7313 34.7398 51.7241 34.7328C51.6974 33.7761 51.3992 32.9094 50.801 32.2213C50.197 31.5265 49.3387 31.0928 48.3244 30.9444L49.2738 25.9592C49.3722 25.4427 49.0331 24.9441 48.5166 24.8457C48.0002 24.7472 47.5015 25.0863 47.4031 25.603L47.1389 26.9901C46.6475 25.657 45.7765 24.6806 44.598 24.2748C44.4148 24.2117 44.2285 24.1644 44.04 24.1317C44.065 24.0589 44.0822 23.9826 44.0888 23.9037ZM42.1102 24.2945C41.4177 24.5206 40.7263 24.9207 40.0682 25.4849C39.7435 24.8808 39.3628 24.3215 38.9373 23.8144C39.716 23.3916 40.8849 23.5725 42.1102 24.2945ZM38.5396 26.6774C38.6618 26.9276 38.7746 27.1946 38.8751 27.471C38.9916 27.7912 39.2703 28.0248 39.6059 28.0834C39.9418 28.1424 40.2831 28.0171 40.5013 27.7552C41.6509 26.3764 42.9838 25.733 43.9783 26.0755C45.4142 26.5699 46.0582 29.0099 45.4765 31.7513C45.4103 32.0634 45.5048 32.388 45.7281 32.6158C45.9518 32.8435 46.2745 32.9441 46.5876 32.884C47.8222 32.647 48.8336 32.8608 49.3641 33.4709C49.5146 33.6441 49.6266 33.8536 49.7031 34.0899C49.2097 34.1664 48.7539 34.3935 48.3941 34.7533L47.2777 35.8698L46.1611 34.7533C45.2371 33.8291 43.7332 33.8293 42.8088 34.7533L41.6924 35.8698L40.5758 34.7533C39.9261 34.1035 38.9902 33.9127 38.1702 34.1767L36.1236 29.9812C35.8931 29.5086 35.3232 29.3123 34.8504 29.5429C34.3777 29.7734 34.1815 30.3434 34.412 30.8161L36.6247 35.3521L34.4152 37.5616C34.0506 37.9262 33.832 38.381 33.7558 38.8547H31.6151C31.5342 36.4351 30.2023 34.3279 28.2455 33.1612C28.7412 33.0012 29.3183 32.9047 29.9556 32.8843C30.2959 32.8734 30.6044 32.6816 30.7649 32.3814C30.9254 32.0812 30.9132 31.7179 30.7332 31.4291C30.5796 31.1827 30.4407 30.9329 30.3208 30.6871C28.8362 27.6436 29.4719 24.2683 31.7379 23.163C32.7944 22.6475 34.068 22.7024 35.3237 23.317C36.6593 23.9705 37.8015 25.1641 38.5396 26.6774ZM20.7185 38.8545C20.6404 36.5158 19.3911 34.4698 17.5407 33.2818C18.0737 33.0866 18.6479 32.978 19.2477 32.978C22.0002 32.978 24.2394 35.2173 24.2394 37.9698C24.2394 38.2718 24.2111 38.5672 24.1592 38.8545H20.7185ZM24.9535 34.1015C27.5229 34.218 29.5921 36.2857 29.7108 38.8545H26.0857C26.1234 38.5648 26.1437 38.2696 26.1437 37.9698C26.1438 36.5371 25.7043 35.2053 24.9535 34.1015ZM34.1188 6.27972L36.4795 8.64041L38.8401 11.0011C37.5264 11.4816 36.0045 11.1826 34.9707 10.149C33.9371 9.11509 33.6381 7.59266 34.1188 6.27972ZM29.468 1.98768C29.5176 1.92421 29.5826 1.90758 29.6287 1.90478C29.6331 1.90453 29.6381 1.90428 29.6434 1.90428C29.6864 1.90428 29.7545 1.91545 29.8138 1.97474L32.6867 4.84756C31.5024 6.98913 31.8472 9.71824 33.6244 11.4955C34.7052 12.5762 36.1379 13.1276 37.5765 13.1276C38.5037 13.1276 39.433 12.8974 40.2724 12.4331L43.1451 15.3058C43.2118 15.3725 43.2176 15.4506 43.2151 15.4911C43.2124 15.537 43.1956 15.6021 43.132 15.6518C41.3707 17.0263 39.2632 17.7024 37.1618 17.7022C34.6549 17.7021 32.1566 16.7393 30.2687 14.8512C26.7979 11.3808 26.4537 5.85074 29.468 1.98768ZM26.196 23.8573C22.208 23.8573 18.9636 20.6129 18.9636 16.6249C18.9636 12.8349 21.8943 9.71888 25.6082 9.41851C25.6663 9.8815 25.7509 10.3413 25.8643 10.7953C23.7146 10.9183 21.7826 12.2284 20.8814 14.2044C20.6631 14.6829 20.8741 15.2476 21.3526 15.4658C21.831 15.684 22.3958 15.4729 22.6141 14.9947C23.2528 13.5941 24.6587 12.6892 26.196 12.6892C26.3052 12.6892 26.413 12.6948 26.52 12.7037C27.0854 13.9755 27.8874 15.1633 28.9219 16.1979C29.2915 16.5675 29.6821 16.9042 30.0876 17.2142C29.8024 19.1058 28.1661 20.5607 26.1961 20.5607C24.7867 20.5607 23.4762 19.7983 22.7759 18.5711C22.5151 18.1143 21.9335 17.9555 21.4771 18.216C21.0204 18.4766 20.8613 19.0582 21.1221 19.5148C22.1604 21.3346 24.1047 22.465 26.1962 22.465C28.8352 22.465 31.0685 20.7045 31.7893 18.297C32.2066 18.5134 32.6353 18.7013 33.0716 18.8643C32.8061 19.6781 32.3998 20.4288 31.882 21.0878C31.5469 21.1766 31.2197 21.2969 30.9033 21.4511C29.9998 21.8919 29.2705 22.5675 28.7304 23.3985C27.941 23.6948 27.0872 23.8573 26.196 23.8573ZM9.55473 30.0434C9.48071 30.1174 9.36061 30.1172 9.28685 30.0434L7.02683 27.7833C6.98113 27.7375 6.97136 27.6853 6.97136 27.6495C6.97136 27.6137 6.98101 27.5615 7.02696 27.5155L9.28685 25.2555C9.36074 25.1818 9.48097 25.1816 9.5546 25.2555L11.6456 27.3466C11.5253 27.6384 11.4239 27.9422 11.342 28.2561L9.55473 30.0434ZM15.1979 26.0692C15.689 25.8296 16.2167 25.7161 16.7577 25.7161C18.7126 25.7161 20.837 27.2002 21.9998 29.5839C22.1216 29.8335 22.2344 30.1004 22.3351 30.3775C22.4516 30.6976 22.7303 30.9312 23.066 30.9899C23.4018 31.0489 23.7431 30.9236 23.9614 30.6617C25.1108 29.283 26.4432 28.6395 27.4385 28.982C27.5687 29.0268 27.6919 29.0893 27.8088 29.1649C27.9422 29.8261 28.1487 30.4911 28.4351 31.145C27.4079 31.3521 26.5391 31.7444 25.88 32.29C25.5041 32.2263 25.1187 32.1914 24.725 32.1914C24.216 32.1914 23.7204 32.2486 23.2426 32.3537C22.1146 31.549 20.7361 31.0737 19.248 31.0737C17.7662 31.0737 16.3936 31.5454 15.2685 32.3442C14.8032 32.2448 14.3211 32.1914 13.8266 32.1914C13.6354 32.1914 13.4465 32.2013 13.2591 32.2166C12.5248 29.5926 13.2703 27.0095 15.1979 26.0692ZM13.8263 34.0957C16.5007 34.0957 18.6901 36.2098 18.8123 38.8545H8.84036C8.96262 36.2098 11.1519 34.0957 13.8263 34.0957ZM55.536 50.5273H45.1953C44.6693 50.5273 44.2431 50.9536 44.2431 51.4795C44.2431 52.0053 44.6693 52.4316 45.1953 52.4316H53.9028C51.5743 54.8505 48.5701 56.8883 45.0413 58.3554H33.5156C32.9896 58.3554 32.5635 58.7817 32.5635 59.3075C32.5635 59.8334 32.9896 60.2597 33.5156 60.2597H44.2778V62.7783C44.2778 62.9532 44.1355 63.0957 43.9604 63.0957H21.0394C20.8643 63.0957 20.722 62.9532 20.722 62.7783V60.2596H29.0722C29.5982 60.2596 30.0244 59.8332 30.0244 59.3074C30.0244 58.7816 29.5982 58.3553 29.0722 58.3553H19.9596C16.4304 56.8882 13.4255 54.8506 11.097 52.4315H40.7519C41.2779 52.4315 41.7041 52.0052 41.7041 51.4793C41.7041 50.9535 41.2779 50.5272 40.7519 50.5272H9.46383C7.23923 47.6026 5.91815 44.2565 5.71706 40.7587H59.2829C59.0817 44.2566 57.7605 47.6027 55.536 50.5273Z"
        fill="#AD9C6C" />
</svg>