<svg xmlns="http://www.w3.org/2000/svg" width="65" height="65" viewBox="0 0 65 65" fill="none">
    <path
        d="M4.89648 39.365C3.29475 32.9142 4.00154 26.1063 6.89424 20.1221C9.78694 14.1379 14.683 9.35505 20.7333 6.60315L19.8918 4.75439C13.4136 7.70703 8.1715 12.8318 5.07301 19.2416C1.97453 25.6514 1.21463 32.9428 2.92486 39.8537L4.89648 39.365Z"
        fill="#AD9C6C" />
    <path
        d="M32.5 60.9375V62.9687C36.0845 62.9735 39.6415 62.3437 43.0065 61.1086L42.306 59.2018C39.1654 60.3545 35.8455 60.9421 32.5 60.9375Z"
        fill="#AD9C6C" />
    <path
        d="M62.8975 30.3997C62.4066 23.3173 59.4592 16.6284 54.5636 11.4869L53.0929 12.8881C57.6618 17.6861 60.4127 23.9283 60.871 30.5378L62.8975 30.3997Z"
        fill="#AD9C6C" />
    <path
        d="M13.2031 22.3438H21.3281C21.5975 22.3438 21.8558 22.2368 22.0463 22.0463L24.4982 19.5944C24.5923 19.4998 24.7042 19.4248 24.8275 19.3737C24.9507 19.3226 25.0829 19.2965 25.2164 19.2969H32.3259C32.1152 19.8905 31.726 20.4044 31.2117 20.7681C30.6973 21.1318 30.0831 21.3274 29.4531 21.3281H26.4062V23.3594H29.4531C29.6812 23.359 29.9089 23.3432 30.1349 23.3123L36.1083 26.299C36.2592 26.3745 36.4266 26.4111 36.5952 26.4057C36.7638 26.4003 36.9285 26.3529 37.0742 26.2679L46.5566 20.7365C47.1179 20.4095 47.7691 20.2703 48.4151 20.3392C49.0611 20.4081 49.6682 20.6816 50.1479 21.1197L34.3652 30.4038L21.5565 27.4479C21.4816 27.4306 21.405 27.4219 21.3281 27.4219H13.2031V29.4531H21.2125L34.3029 32.474C34.5561 32.5325 34.8222 32.4916 35.0462 32.3598L52.3118 22.2035C52.4455 22.1249 52.5594 22.0167 52.6447 21.8872C52.7301 21.7577 52.7847 21.6104 52.8043 21.4566C52.8239 21.3027 52.8081 21.1464 52.7579 20.9997C52.7078 20.8529 52.6247 20.7196 52.515 20.6099L51.6826 19.7775C50.8891 18.9849 49.8556 18.477 48.7433 18.3331C47.631 18.1892 46.5023 18.4173 45.5331 18.982L36.5253 24.2365L32.591 22.2694C33.1954 21.7951 33.6842 21.1896 34.0203 20.4987C34.3564 19.8078 34.5311 19.0496 34.5312 18.2813C34.5312 18.0119 34.4242 17.7536 34.2338 17.5631C34.0433 17.3726 33.785 17.2656 33.5156 17.2656H25.2164C24.8161 17.2645 24.4196 17.3428 24.0497 17.496C23.6799 17.6492 23.3442 17.8742 23.0619 18.158L20.9074 20.3125H13.2031V22.3438Z"
        fill="#AD9C6C" />
    <path
        d="M29.4531 14.2188H36.5625V21.3281H38.5938V14.2188H45.7031C47.588 14.2166 49.3951 13.4669 50.7279 12.1341C52.0607 10.8013 52.8104 8.99425 52.8125 7.10938C52.8125 6.84002 52.7055 6.58169 52.515 6.39122C52.3246 6.20076 52.0662 6.09375 51.7969 6.09375H43.6719C42.7254 6.09338 41.7884 6.2826 40.9162 6.65026C40.0441 7.01791 39.2544 7.55655 38.5938 8.23438V7.10938C38.5922 5.76304 38.0567 4.47229 37.1047 3.52029C36.1527 2.56829 34.862 2.03278 33.5156 2.03125V4.0625C34.3234 4.06341 35.0979 4.38472 35.6691 4.95592C36.2403 5.52712 36.5616 6.30157 36.5625 7.10938V8.23438C35.9019 7.55655 35.1122 7.01791 34.24 6.65026C33.3679 6.2826 32.4309 6.09338 31.4844 6.09375H23.3594C23.09 6.09375 22.8317 6.20076 22.6412 6.39122C22.4508 6.58169 22.3438 6.84002 22.3438 7.10938C22.3459 8.99425 23.0956 10.8013 24.4284 12.1341C25.7612 13.4669 27.5683 14.2166 29.4531 14.2188ZM43.6719 8.125H50.6792C50.4436 9.27116 49.82 10.301 48.9135 11.0411C48.0071 11.7811 46.8733 12.186 45.7031 12.1875H38.6958C38.9314 11.0413 39.555 10.0115 40.4615 9.27145C41.3679 8.53144 42.5017 8.12654 43.6719 8.125ZM31.4844 8.125C32.6545 8.12654 33.7883 8.53144 34.6948 9.27145C35.6012 10.0115 36.2248 11.0413 36.4605 12.1875H29.4531C28.283 12.186 27.1492 11.7811 26.2427 11.0411C25.3363 10.301 24.7127 9.27116 24.477 8.125H31.4844Z"
        fill="#AD9C6C" />
    <path
        d="M27.4219 46.7188H26.4062V44.6875H24.375V46.7188H20.3125V44.6875H18.2812V46.7188H17.2656C16.4578 46.7197 15.6834 47.041 15.1122 47.6122C14.541 48.1834 14.2197 48.9578 14.2187 49.7656V59.9219C14.2187 60.2565 14.2741 60.5887 14.3825 60.9053C11.5894 60.6917 8.97837 59.4365 7.06701 57.3886C5.15564 55.3407 4.08341 52.6494 4.0628 49.8482C4.0422 47.0469 5.07472 44.3402 6.95575 42.2643C8.83678 40.1885 11.429 38.8951 14.2187 38.6404V40.625H16.25V38.6406C18.1283 38.8149 19.9322 39.4605 21.4946 40.5175L21.4962 40.5267C21.4993 40.5262 21.5023 40.5254 21.5054 40.525C22.5932 41.2612 23.5426 42.1834 24.3102 43.2494L25.9591 42.0631C25.3357 41.1971 24.6094 40.41 23.7961 39.7192C24.8986 39.1022 25.816 38.2017 26.4535 37.111C27.091 36.0203 27.4253 34.779 27.4219 33.5156C27.4219 33.2463 27.3149 32.9879 27.1244 32.7975C26.9339 32.607 26.6756 32.5 26.4062 32.5H20.3125C18.5248 32.4987 16.8026 33.1724 15.4903 34.3864C14.8982 33.2096 13.9912 32.2203 12.8701 31.5286C11.749 30.8369 10.4579 30.47 9.14062 30.4688V32.5C10.3189 32.5016 11.46 32.9123 12.3691 33.6618C13.2781 34.4113 13.8988 35.4532 14.125 36.6095C10.7315 36.8957 7.57977 38.482 5.3283 41.0371C3.07682 43.5922 1.89973 46.9185 2.04294 50.321C2.18614 53.7235 3.63856 56.9391 6.09677 59.296C8.55498 61.6529 11.8288 62.9688 15.2344 62.9688C15.6933 62.9683 16.1519 62.9442 16.6083 62.8965C16.8242 62.9444 17.0446 62.9686 17.2656 62.9688H27.4219C28.2297 62.9678 29.0041 62.6465 29.5753 62.0753C30.1465 61.5041 30.4678 60.7297 30.4687 59.9219V49.7656C30.4678 48.9578 30.1465 48.1834 29.5753 47.6122C29.0041 47.041 28.2297 46.7197 27.4219 46.7188ZM20.3125 34.5312H25.2899C25.1121 35.4164 24.7005 36.2377 24.0978 36.9099C23.4951 37.582 22.7233 38.0805 21.8627 38.3533C20.1388 37.3518 18.2108 36.7529 16.2228 36.6013C16.694 35.9593 17.3098 35.4373 18.0203 35.0777C18.7309 34.718 19.5161 34.5308 20.3125 34.5312ZM28.4375 59.9219C28.4372 60.1911 28.3301 60.4493 28.1397 60.6397C27.9493 60.8301 27.6911 60.9372 27.4219 60.9375H17.2656C16.9964 60.9372 16.7382 60.8301 16.5478 60.6397C16.3574 60.4493 16.2503 60.1911 16.25 59.9219V53.8281H28.4375V59.9219ZM28.4375 51.7969H16.25V49.7656C16.2503 49.4964 16.3574 49.2382 16.5478 49.0478C16.7382 48.8574 16.9964 48.7503 17.2656 48.75H18.2812V49.7656H20.3125V48.75H24.375V49.7656H26.4062V48.75H27.4219C27.6911 48.7503 27.9493 48.8574 28.1397 49.0478C28.3301 49.2382 28.4372 49.4964 28.4375 49.7656V51.7969Z"
        fill="#AD9C6C" />
    <path
        d="M12.0803 41.1864L10.2635 42.0949C10.6507 42.8758 11.249 43.5327 11.9904 43.9909C12.7319 44.4492 13.5869 44.6905 14.4586 44.6875H17.2657V42.6563H14.4586C13.9644 42.658 13.4797 42.5211 13.0593 42.2613C12.639 42.0015 12.2998 41.6291 12.0803 41.1864Z"
        fill="#AD9C6C" />
    <path
        d="M52.8125 56.875H51.7969V50.7812C51.7969 50.5119 51.6899 50.2536 51.4994 50.0631C51.309 49.8726 51.0506 49.7656 50.7813 49.7656H46.7188C46.4494 49.7656 46.1911 49.8726 46.0006 50.0631C45.8101 50.2536 45.7031 50.5119 45.7031 50.7812V56.875H44.6875C44.4866 56.875 44.2903 56.9346 44.1232 57.0462C43.9562 57.1578 43.826 57.3164 43.7492 57.502C43.6723 57.6876 43.6522 57.8918 43.6914 58.0888C43.7306 58.2858 43.8273 58.4668 43.9694 58.6088L48.0319 62.6713C48.2223 62.8618 48.4807 62.9688 48.75 62.9688C49.0194 62.9688 49.2777 62.8618 49.4682 62.6713L53.5307 58.6088C53.6727 58.4668 53.7694 58.2858 53.8086 58.0888C53.8478 57.8918 53.8277 57.6876 53.7509 57.502C53.674 57.3164 53.5438 57.1578 53.3768 57.0462C53.2098 56.9346 53.0134 56.875 52.8125 56.875ZM48.75 60.5168L47.0751 58.8419C47.2688 58.7693 47.4357 58.6393 47.5535 58.4693C47.6713 58.2993 47.7344 58.0974 47.7344 57.8906V51.7969H49.7656V57.8906C49.7656 58.0974 49.8287 58.2993 49.9465 58.4693C50.0644 58.6393 50.2312 58.7693 50.4249 58.8419L48.75 60.5168Z"
        fill="#AD9C6C" />
    <path
        d="M62.9688 37.5781C62.967 35.9625 62.3244 34.4136 61.182 33.2712C60.0396 32.1288 58.4907 31.4862 56.8751 31.4844H50.8535C50.0529 31.4822 49.2599 31.6388 48.5203 31.9452C47.7806 32.2515 47.1091 32.7016 46.5446 33.2692L43.2512 36.5625H37.4035C37.1639 35.8849 36.6925 35.3138 36.0725 34.9501C35.4526 34.5864 34.724 34.4536 34.0157 34.5752C33.3073 34.6967 32.6646 35.0648 32.2014 35.6143C31.7381 36.1638 31.484 36.8594 31.484 37.5781C31.484 38.2969 31.7381 38.9925 32.2014 39.542C32.6646 40.0915 33.3073 40.4596 34.0157 40.5811C34.724 40.7027 35.4526 40.5699 36.0725 40.2062C36.6925 39.8425 37.1639 39.2714 37.4035 38.5938H43.2512L44.275 39.6175C44.1711 39.7111 44.0692 39.8076 43.9694 39.9069C43.421 40.4583 42.7687 40.8955 42.0502 41.1931C41.3317 41.4907 40.5614 41.6428 39.7837 41.6406H37.5782C36.7704 41.6416 35.996 41.9629 35.4248 42.5341C34.8536 43.1053 34.5323 43.8797 34.5313 44.6875V49.7656C34.5323 50.5734 34.8536 51.3479 35.4248 51.9191C35.996 52.4903 36.7704 52.8116 37.5782 52.8125H43.672V50.7813H37.5782C37.309 50.781 37.0508 50.6739 36.8604 50.4835C36.67 50.2931 36.5629 50.0349 36.5626 49.7656V47.5597C36.8887 47.6754 37.2322 47.7345 37.5782 47.7344H57.8907C58.9901 47.7355 60.0599 47.378 60.9376 46.716V47.7344C60.9367 48.5422 60.6154 49.3167 60.0442 49.8879C59.473 50.4591 58.6985 50.7804 57.8907 50.7813H53.8282V52.8125H57.8907C59.2371 52.811 60.5278 52.2755 61.4798 51.3235C62.4318 50.3715 62.9673 49.0807 62.9688 47.7344V42.6563C62.9699 41.8131 62.7596 40.9831 62.3572 40.2421C62.7617 39.4124 62.9709 38.5011 62.9688 37.5781ZM34.5313 38.5938C34.3305 38.5938 34.1341 38.5342 33.9671 38.4226C33.8001 38.311 33.6699 38.1524 33.593 37.9668C33.5162 37.7812 33.496 37.577 33.5352 37.38C33.5744 37.183 33.6711 37.002 33.8132 36.86C33.9552 36.718 34.1362 36.6212 34.3332 36.582C34.5302 36.5428 34.7344 36.563 34.92 36.6398C35.1056 36.7167 35.2642 36.8469 35.3758 37.0139C35.4874 37.1809 35.547 37.3773 35.547 37.5781C35.5467 37.8474 35.4396 38.1056 35.2492 38.296C35.0588 38.4864 34.8006 38.5935 34.5313 38.5938ZM57.8907 45.7031H37.5782C37.3089 45.7031 37.0505 45.5961 36.8601 45.4057C36.6696 45.2152 36.5626 44.9569 36.5626 44.6875C36.5626 44.4182 36.6696 44.1598 36.8601 43.9694C37.0505 43.7789 37.3089 43.6719 37.5782 43.6719H39.7837C40.8283 43.6748 41.863 43.4704 42.828 43.0707C43.7931 42.6709 44.6692 42.0837 45.4058 41.3431C46.0352 40.7115 46.7998 40.2309 47.6418 39.9374L48.6269 40.9224C48.989 41.2827 49.2762 41.7112 49.4717 42.1831C49.6672 42.655 49.7671 43.1611 49.7657 43.6719H51.797C51.8006 42.1603 51.2218 40.7053 50.1806 39.6094H53.4075L54.7206 40.9224C55.0828 41.2827 55.3699 41.7112 55.5654 42.1831C55.7609 42.655 55.8608 43.1611 55.8595 43.6719H57.8907C57.8944 42.1603 57.3155 40.7053 56.2743 39.6094H57.8907C58.6988 39.6094 59.4738 39.9304 60.0452 40.5018C60.6166 41.0732 60.9376 41.8482 60.9376 42.6563C60.9376 43.4644 60.6166 44.2393 60.0452 44.8107C59.4738 45.3821 58.6988 45.7031 57.8907 45.7031ZM60.8279 38.5177C59.9708 37.9059 58.9438 37.5773 57.8907 37.5781H49.5915C48.3345 37.5761 47.0951 37.8735 45.9759 38.4458L45.1082 37.5781L47.9809 34.7055C48.3573 34.327 48.8049 34.027 49.298 33.8228C49.7911 33.6186 50.3198 33.5142 50.8535 33.5156H56.8751C57.4884 33.5159 58.0937 33.655 58.6457 33.9224C59.1976 34.1899 59.6819 34.5788 60.0622 35.06C60.4424 35.5412 60.7088 36.1022 60.8415 36.701C60.9741 37.2999 60.9694 37.9209 60.8279 38.5177Z"
        fill="#AD9C6C" />
</svg>