<svg xmlns="http://www.w3.org/2000/svg" width="65" height="65" viewBox="0 0 65 65" fill="none">
    <g clip-path="url(#clip0_59_563)">
        <path
            d="M42.669 48.6515L37.063 47.0304V44.0423C38.5891 42.6321 39.4281 40.932 39.4281 39.227V36.968C40.0716 36.3744 41.3717 35.0879 41.8968 33.9369C44.3851 28.4824 41.0003 24.8399 40.855 24.6874C40.7567 24.5853 40.6381 24.5048 40.5068 24.451C40.3756 24.3973 40.2346 24.3715 40.0928 24.3753C39.951 24.3791 39.8116 24.4124 39.6834 24.4731C39.5553 24.5338 39.4411 24.6205 39.3484 24.7278C39.3401 24.7373 38.5001 25.6768 37.7135 25.5197C37.2036 25.4057 36.7021 25.2572 36.2122 25.0754C34.9896 24.6552 33.468 24.132 30.9007 24.132C24.9864 24.132 23.1127 27.0682 22.5822 29.5313C21.7202 33.5335 24.3099 36.1272 25.406 37.0216V39.228C25.406 40.9575 26.2652 42.6825 27.8258 44.1039V47.0365L22.2367 48.6528C21.1355 48.976 20.1682 49.6466 19.4793 50.5646C18.7904 51.4826 18.4168 52.5988 18.4143 53.7465L18.5089 63.995C18.5114 64.2628 18.6195 64.5187 18.8097 64.7071C18.9999 64.8956 19.2568 65.0013 19.5245 65.0013H19.5342C19.6675 65 19.7994 64.9726 19.9221 64.9204C20.0449 64.8682 20.1561 64.7924 20.2496 64.6972C20.343 64.602 20.4168 64.4893 20.4667 64.3656C20.5166 64.2419 20.5416 64.1096 20.5404 63.9763L20.4458 53.7371C20.448 53.0306 20.6785 52.3438 21.1029 51.7789C21.5273 51.2141 22.1228 50.8015 22.8008 50.6028L28.209 49.039C28.8294 50.3294 30.1895 51.8328 32.606 51.8328C35.02 51.8328 36.2465 50.3614 36.7631 49.0581L42.1046 50.6028C42.7838 50.8022 43.3802 51.2161 43.8048 51.7824C44.2294 52.3488 44.4593 53.0374 44.4603 53.7452L44.5548 63.9938C44.5573 64.2615 44.6654 64.5174 44.8556 64.7059C45.0458 64.8943 45.3027 65 45.5705 65H45.5801C45.7135 64.9988 45.8453 64.9713 45.9681 64.9191C46.0908 64.8669 46.2021 64.7911 46.2955 64.6959C46.389 64.6007 46.4627 64.4881 46.5126 64.3644C46.5625 64.2407 46.5876 64.1084 46.5863 63.975L46.4918 53.7358C46.4876 52.5896 46.1132 51.4753 45.4244 50.5591C44.7355 49.6429 43.769 48.9738 42.669 48.6515ZM24.5677 29.9587C25.1102 27.44 27.2408 26.1628 30.9005 26.1628C33.1284 26.1628 34.3604 26.5863 35.5518 26.9958C36.1274 27.2084 36.717 27.3807 37.3165 27.5116C38.1639 27.6807 39.0616 27.4699 39.9114 26.9023L39.943 26.8809C40.5822 27.9904 41.3725 30.1917 40.0488 33.0941C39.8557 33.5173 39.4485 34.0313 39.0191 34.5023C38.7271 33.5448 38.2888 32.7123 37.6323 32.4302C37.404 32.3328 37.1541 32.297 36.9076 32.3265C36.6611 32.356 36.4267 32.4496 36.2277 32.5981C34.9395 33.5114 34.2327 33.9385 32.2541 33.6645C31.1741 33.5219 30.134 33.1629 29.1959 32.6089C29.0683 32.5236 28.923 32.4683 28.771 32.447C28.6189 32.4257 28.4641 32.439 28.3179 32.486C28.1717 32.5329 28.0381 32.6123 27.9269 32.7182C27.8157 32.824 27.7299 32.9536 27.6758 33.0973C27.6727 33.1056 27.3554 33.9328 26.4777 35.0778C26.4479 35.1167 26.418 35.1537 26.3881 35.1887C25.504 34.3762 24.0068 32.5635 24.5677 29.9587ZM27.4369 37.0118C27.6766 36.8008 27.8953 36.5669 28.0898 36.3136C28.4518 35.8444 28.7815 35.3512 29.0766 34.8373C29.9979 35.2537 30.974 35.5362 31.9753 35.6762C34.3459 36.0047 35.569 35.4924 36.9011 34.6015C37.1312 35.2468 37.297 35.9133 37.3962 36.5912V39.227C37.3962 41.895 34.0478 44.1943 32.404 44.1943C30.7684 44.1943 27.4366 41.895 27.4366 39.227L27.4369 37.0118ZM32.6055 49.8016C30.6549 49.8016 30.0239 48.2334 29.8709 47.7264C29.8684 47.6873 29.8637 47.6485 29.8567 47.61V45.518C30.7434 45.97 31.6348 46.2255 32.4043 46.2255C33.1958 46.2255 34.1182 45.955 35.0313 45.4793V47.7294C34.9607 48.1182 34.8148 48.4895 34.6016 48.8222C34.1682 49.4813 33.5156 49.8016 32.6058 49.8016H32.6055Z"
            fill="#AD9C6C" />
        <path
            d="M19.6129 38.7046C20.1316 38.8581 20.5869 39.1751 20.9108 39.6085C21.2347 40.0418 21.4099 40.5682 21.4103 41.1092L21.396 45.9403C21.3957 46.0737 21.4216 46.2058 21.4723 46.3292C21.5231 46.4525 21.5976 46.5647 21.6917 46.6593C21.7857 46.7538 21.8975 46.8289 22.0206 46.8803C22.1437 46.9316 22.2757 46.9582 22.4091 46.9586H22.4117C22.6806 46.9586 22.9385 46.8519 23.1289 46.662C23.3193 46.4721 23.4266 46.2144 23.4273 45.9455L23.4415 41.1145C23.4407 40.1337 23.123 39.1793 22.5358 38.3937C21.9485 37.608 21.123 37.0332 20.1825 36.7548L15.7117 35.4489L15.7178 33.2106C16.9759 32.0312 17.6678 30.6101 17.6716 29.1802L17.6764 27.4028C18.2325 26.8868 19.2634 25.853 19.695 24.9146C21.8013 20.3293 18.949 17.2429 18.8266 17.1137C18.7294 17.0099 18.6114 16.9279 18.4803 16.8729C18.3492 16.8179 18.208 16.7912 18.0658 16.7945C17.9237 16.7978 17.7838 16.8311 17.6555 16.8921C17.5271 16.9532 17.413 17.0407 17.3207 17.1488C17.1203 17.3773 16.5702 17.8217 16.1482 17.7374C15.7376 17.6439 15.3338 17.5229 14.9395 17.3752C13.9238 17.0228 12.6588 16.5843 10.5193 16.5784H10.4813C6.61807 16.5784 4.13766 18.197 3.49578 21.1381C2.77558 24.4389 4.83514 26.6112 5.79465 27.4192L5.79008 29.1484C5.78627 30.5988 6.48743 32.043 7.76687 33.2389L7.7609 35.4317L3.29723 36.7094C2.35501 36.9828 1.52635 37.5533 0.934768 38.336C0.343182 39.1186 0.020336 40.0715 0.0143463 41.0526L6.44518e-07 53.2104C-0.000302572 53.4797 0.106392 53.7381 0.296617 53.9288C0.486842 54.1195 0.745018 54.2268 1.01436 54.2271H1.01563C1.28479 54.2271 1.54294 54.1203 1.73338 53.9301C1.92381 53.7399 2.03095 53.4818 2.03125 53.2127L2.0456 41.0565C2.04901 40.5156 2.22711 39.9902 2.55335 39.5587C2.8796 39.1271 3.33653 38.8126 3.85608 38.6618L8.15775 37.4304C8.71635 38.5063 9.86819 39.6956 11.8574 39.7009H11.8713C13.8494 39.7009 14.9025 38.5486 15.3832 37.4688L19.6129 38.7046ZM9.27888 31.8697C8.35047 31.0501 7.81892 30.06 7.82196 29.1529L7.82679 27.4146C8.009 27.2484 8.17637 27.0665 8.32698 26.8712C8.59677 26.5229 8.84558 26.1589 9.07207 25.7811C9.79977 26.0963 10.5663 26.3129 11.3514 26.425C13.2338 26.6916 14.2917 26.3076 15.3317 25.6506C15.4715 26.1 15.5768 26.5594 15.6467 27.0248L15.641 29.1743C15.6354 31.2288 12.9672 33.0657 11.7107 33.063C11.1719 33.0618 10.1635 32.6513 9.27824 31.8697H9.27888ZM5.48069 21.5715C5.64078 20.8381 6.12638 18.6101 10.4788 18.6101H10.5138C12.3137 18.6149 13.3101 18.9605 14.2738 19.2946C14.7538 19.4733 15.2455 19.6184 15.7456 19.7288C16.4844 19.862 17.2462 19.708 17.8753 19.2984C18.3542 20.2217 18.8448 21.8992 17.8491 24.067C17.6838 24.382 17.479 24.6747 17.2397 24.9379C16.9538 24.1362 16.5734 23.6295 16.1017 23.4255C15.8859 23.3323 15.6494 23.2973 15.4159 23.3242C15.1824 23.3511 14.96 23.4388 14.771 23.5786C13.7504 24.2982 13.1904 24.6342 11.6353 24.4142C10.7757 24.2983 9.94815 24.0112 9.20156 23.5697C9.07464 23.4827 8.92951 23.4257 8.77725 23.4032C8.62499 23.3808 8.4696 23.3933 8.32293 23.44C8.17625 23.4866 8.04216 23.5661 7.93086 23.6724C7.81956 23.7787 7.73399 23.909 7.68066 24.0534C7.44189 24.5935 7.13565 25.1011 6.76927 25.5642C6.06836 24.8672 5.06251 23.4876 5.48069 21.5715ZM11.8701 37.6699H11.8628C10.402 37.666 9.92037 36.4961 9.79964 36.1043C9.79748 36.0806 9.79431 36.0567 9.7905 36.033L9.79431 34.6149C10.3906 34.9069 11.0416 35.0703 11.7051 35.0945H11.7133C12.3979 35.0702 13.0694 34.9004 13.6833 34.5964L13.6791 36.1438C13.6221 36.4891 13.3236 37.6699 11.8701 37.6699Z"
            fill="#AD9C6C" />
        <path
            d="M61.7407 36.7548L58.1397 35.7029H60.8372C61.1066 35.7029 61.3649 35.5959 61.5554 35.4054C61.7458 35.215 61.8528 34.9566 61.8528 34.6873V26.1226C61.8528 23.8535 60.9514 21.6773 59.3469 20.0728C57.7424 18.4683 55.5662 17.5669 53.2971 17.5669C51.0279 17.5669 48.8518 18.4683 47.2472 20.0728C45.6427 21.6773 44.7413 23.8535 44.7413 26.1226V34.6873C44.7413 34.9566 44.8483 35.215 45.0388 35.4054C45.2293 35.5959 45.4876 35.7029 45.7569 35.7029H48.3705L44.8553 36.709C43.9134 36.9824 43.0849 37.5527 42.4934 38.3351C41.9019 39.1175 41.5789 40.07 41.5727 41.0508L41.5585 45.94C41.5578 46.2094 41.6641 46.4679 41.8541 46.6589C42.0441 46.8498 42.3021 46.9575 42.5714 46.9582H42.5741C42.843 46.9582 43.101 46.8515 43.2914 46.6616C43.4818 46.4717 43.5891 46.214 43.5897 45.9451L43.6039 41.0561C43.6073 40.5152 43.7854 39.9898 44.1117 39.5583C44.4379 39.1267 44.8949 38.8122 45.4144 38.6614L49.8494 37.3919C50.2394 38.5431 51.2879 39.7007 53.3141 39.7007C54.6938 39.7007 55.516 39.1605 55.9626 38.7073C56.3191 38.341 56.5858 37.897 56.7417 37.4102L61.1712 38.7041C61.6902 38.8578 62.1457 39.1752 62.4696 39.6089C62.7935 40.0425 62.9686 40.5693 62.9687 41.1106L62.9544 53.2683C62.9542 53.4016 62.9803 53.5337 63.0312 53.657C63.0821 53.7803 63.1568 53.8924 63.251 53.9868C63.3452 54.0812 63.457 54.1562 63.5802 54.2074C63.7033 54.2586 63.8354 54.285 63.9688 54.2852H63.97C64.2392 54.2852 64.4973 54.1783 64.6878 53.9881C64.8782 53.7979 64.9853 53.5398 64.9856 53.2707L65 41.1145C64.9991 40.1336 64.6814 39.1793 64.094 38.3937C63.5067 37.608 62.6813 37.0332 61.7407 36.7548ZM49.8561 29.874V27.8027C49.8561 27.7955 49.8824 27.0602 50.3039 26.6433C50.6798 26.2717 50.9851 25.9392 51.2332 25.6442C51.7644 26.3147 52.4297 26.867 53.1865 27.2659C54.3108 27.8618 55.5034 28.3188 56.738 28.6269V29.8749C56.737 30.7847 56.3751 31.657 55.7318 32.3004C55.0884 32.9437 54.2162 33.3056 53.3063 33.3067H53.2878C52.3779 33.3056 51.5056 32.9437 50.8622 32.3002C50.2189 31.6568 49.857 30.7844 49.8561 29.8745V29.874ZM46.7726 26.1221C46.7833 24.3988 47.4755 22.7497 48.6979 21.5349C49.9203 20.3201 51.5737 19.6382 53.2971 19.6382C55.0205 19.6382 56.6739 20.3201 57.8963 21.5349C59.1187 22.7497 59.8108 24.3988 59.8216 26.1221V33.6712H57.2283C58.217 32.6545 58.7699 31.2921 58.7693 29.874V27.8027C58.7692 27.559 58.6816 27.3234 58.5223 27.139C58.363 26.9545 58.1427 26.8335 57.9015 26.798C56.5879 26.5524 55.3199 26.1057 54.1425 25.4735C52.6584 24.6821 52.2913 23.4596 52.2795 23.4193C52.1639 22.9326 51.7237 22.5473 51.2252 22.5859C50.9964 22.5928 50.7777 22.682 50.6092 22.8369C50.4407 22.9919 50.3336 23.2023 50.3075 23.4297C50.2418 23.5722 49.9346 24.152 48.8757 25.1991C47.8543 26.2091 47.8249 27.6427 47.8249 27.8027V29.8749C47.8243 31.293 48.3771 32.6553 49.3657 33.672H46.7726V26.1221ZM54.8963 36.3342C54.8892 36.7423 54.7178 37.6694 53.3141 37.6694C51.8922 37.6694 51.7096 36.7259 51.6977 36.3155V35.1003C52.2131 35.2575 52.749 35.3372 53.2878 35.337H53.3063C53.8452 35.3372 54.381 35.2574 54.8964 35.1003V36.3242C54.8964 36.3363 54.896 36.329 54.8963 36.3348V36.3342Z"
            fill="#AD9C6C" />
        <path
            d="M21.705 26.1334H21.734C21.9983 26.1333 22.2522 26.0302 22.4417 25.8459C22.6311 25.6616 22.7413 25.4107 22.7488 25.1465L22.7632 24.6377C22.7632 24.6289 22.7632 24.6204 22.7632 24.6116C22.7661 24.0679 22.9443 23.5396 23.2713 23.1052C23.5984 22.6708 24.0569 22.3536 24.5787 22.2006L28.9826 20.9875C29.1474 21.4404 29.4067 21.853 29.7433 22.1979C30.4184 22.8828 31.3458 23.23 32.4999 23.23C34.5058 23.23 35.5906 22.1416 36.041 21.0058L40.4388 22.2407C40.8465 22.3584 41.2177 22.5778 41.5175 22.8783C41.8173 23.1787 42.0358 23.5503 42.1527 23.9583C42.2275 24.2171 42.402 24.4356 42.6379 24.5657C42.8737 24.6958 43.1516 24.7268 43.4104 24.652C43.6692 24.5772 43.8876 24.4027 44.0177 24.1668C44.1478 23.931 44.1789 23.6531 44.1041 23.3943C43.9171 22.742 43.5857 22.1402 43.1345 21.6333C42.6834 21.1265 42.1239 20.7277 41.4977 20.4664V8.94627C41.4888 6.57068 40.5388 4.29545 38.8559 2.6188C37.1729 0.942161 34.8941 0.000762939 32.5185 0.000762939C30.1429 0.000762939 27.8641 0.942161 26.1812 2.6188C24.4982 4.29545 23.5482 6.57068 23.5393 8.94627V20.4179C22.7147 20.7633 22.0094 21.3428 21.5106 22.0848C21.0119 22.8268 20.7415 23.6987 20.733 24.5927L20.7188 25.0895C20.7112 25.3587 20.8108 25.6199 20.9957 25.8157C21.1807 26.0114 21.4358 26.1257 21.705 26.1334ZM36.2092 12.909C36.2082 13.8851 35.8199 14.8209 35.1297 15.5111C34.4395 16.2013 33.5037 16.5895 32.5276 16.5906H32.5079C31.5318 16.5895 30.596 16.2013 29.9058 15.5111C29.2156 14.8209 28.8273 13.8851 28.8263 12.909V11.5461C30.1413 11.222 31.4114 10.7373 32.6081 10.1029C33.4214 9.67461 34.1335 9.07695 34.6963 8.35022C34.9647 8.67332 35.3002 9.04072 35.7192 9.45471C36.1098 9.84091 36.2054 10.505 36.2092 10.7199V12.909ZM34.0453 20.4736C33.7731 20.9617 33.2677 21.1991 32.5 21.1991C30.9545 21.1991 30.7765 20.1675 30.7717 19.736C30.772 19.7311 30.772 19.7263 30.7717 19.7214V18.351C31.333 18.5305 31.9187 18.6218 32.508 18.6216H32.5277C33.117 18.6219 33.7028 18.5305 34.2641 18.351V19.7214C34.2448 19.9847 34.1703 20.241 34.0453 20.4736ZM32.5181 2.03126C34.3558 2.02899 36.1193 2.75576 37.4219 4.05213C38.7244 5.34849 39.4595 7.10858 39.466 8.94627V19.858L36.2959 18.9677V17.1976C36.907 16.6626 37.3967 16.0032 37.7321 15.2636C38.0676 14.5239 38.2411 13.7211 38.241 12.909V10.7204C38.241 10.5537 38.2104 9.06141 37.1479 8.011C36.0065 6.88201 35.6855 6.2621 35.6204 6.11712C35.593 5.89235 35.4863 5.68473 35.3195 5.53161C35.1527 5.37848 34.9367 5.28989 34.7104 5.28177C34.2176 5.23949 33.7768 5.61616 33.6513 6.09427C33.6354 6.14962 33.2435 7.46206 31.6526 8.31036C30.4019 8.97869 29.0566 9.45254 27.6631 9.7156C27.422 9.7511 27.2017 9.87213 27.0423 10.0566C26.883 10.2411 26.7954 10.4767 26.7954 10.7204V12.909C26.7953 13.7211 26.9688 14.5239 27.3043 15.2636C27.6397 16.0032 28.1294 16.6626 28.7405 17.1976V18.9476L25.5699 19.8211V8.94627C25.5764 7.10854 26.3115 5.34841 27.6141 4.05204C28.9167 2.75567 30.6803 2.02893 32.5181 2.03126Z"
            fill="#AD9C6C" />
    </g>
    <defs>
        <clipPath id="clip0_59_563">
            <rect width="65" height="65" fill="white" />
        </clipPath>
    </defs>
</svg>