<svg width="20" height="21" viewBox="0 0 20 21" fill="none" xmlns="http://www.w3.org/2000/svg">
    <g clip-path="url(#clip0_120333_3522)">
        <path
            d="M17.0739 3.4257C15.187 1.53889 12.675 0.5 9.99955 0.5C7.32429 0.5 4.8118 1.53889 2.92544 3.4257C-0.975148 7.32584 -0.975148 13.6732 2.92544 17.5739C4.81225 19.4609 7.32429 20.4997 9.99962 20.5C10.0002 20.5 10.0002 20.5 10.001 20.5C12.6751 20.5 15.1874 19.4613 17.074 17.5739C18.9609 15.6874 20 13.1751 20 10.5002C19.9999 7.82531 18.9609 5.31225 17.0739 3.4257ZM10.4576 15.495H9.25066V14.1276H10.4576V15.495ZM12.6766 8.91512C12.5552 9.24634 12.3896 9.53985 12.1789 9.79482C11.9865 10.0498 11.7605 10.3119 11.5007 10.5807C11.2452 10.854 10.985 11.1609 10.7206 11.5011C10.6267 11.649 10.5528 11.8057 10.4995 11.9712C10.4367 12.3474 10.4143 12.7367 10.4319 13.1402H9.25105C9.24205 12.4601 9.30719 11.9398 9.44527 11.5812C9.58379 11.2236 9.88075 10.798 10.3367 10.3055C10.5202 10.095 10.6991 9.88887 10.8727 9.6873C11.1186 9.39188 11.3064 9.10743 11.4363 8.8339C11.5661 8.55647 11.6309 8.22965 11.6309 7.85345C11.6309 7.42353 11.529 7.03386 11.3252 6.68465C11.1033 6.33978 10.7359 6.16093 10.224 6.14766C9.5175 6.16987 9.05331 6.40971 8.83126 6.86625C8.71348 7.07661 8.63379 7.31397 8.59333 7.57813C8.53891 7.85588 8.5123 8.1402 8.5123 8.43134H7.35964C7.32378 7.56505 7.51922 6.81718 7.94564 6.18729C8.36229 5.54419 9.06575 5.21412 10.0552 5.19574C10.9025 5.20474 11.5749 5.43463 12.0722 5.88542C12.5734 6.34061 12.8289 6.96987 12.8378 7.7735C12.8379 8.22104 12.7839 8.60171 12.6766 8.91512Z"
            fill="#B5B5B5" />
    </g>
    <defs>
        <clipPath id="clip0_120333_3522">
            <rect width="20" height="20" fill="white" transform="translate(0 0.5)" />
        </clipPath>
    </defs>
</svg>