<svg width="40" height="40" viewBox="0 0 40 40" fill="none" xmlns="http://www.w3.org/2000/svg">
    <g clip-path="url(#clip0_110_816)">

        <path
            d="M25.656 22.828L24.242 21.414L25.656 20C26.0275 19.6286 26.3221 19.1876 26.5231 18.7023C26.7242 18.217 26.8276 17.6968 26.8276 17.1715C26.8276 16.6462 26.7242 16.126 26.5231 15.6407C26.3221 15.1554 26.0275 14.7144 25.656 14.343C25.2846 13.9716 24.8436 13.6769 24.3583 13.4759C23.873 13.2749 23.3528 13.1714 22.8275 13.1714C22.3022 13.1714 21.7821 13.2749 21.2968 13.4759C20.8114 13.6769 20.3705 13.9716 19.999 14.343L18.585 15.757L17.171 14.343L18.585 12.929C19.7133 11.8189 21.2346 11.1997 22.8174 11.2061C24.4002 11.2125 25.9164 11.8442 27.0356 12.9634C28.1549 14.0826 28.7865 15.5988 28.7929 17.1816C28.7994 18.7644 28.1801 20.2857 27.07 21.414L25.656 22.828ZM22.828 25.657L21.413 27.071C20.2847 28.1811 18.7635 28.8003 17.1806 28.7939C15.5978 28.7875 14.0817 28.1558 12.9624 27.0366C11.8432 25.9174 11.2116 24.4012 11.2051 22.8184C11.1987 21.2356 11.8179 19.7143 12.928 18.586L14.342 17.17L15.757 18.585L14.342 20C13.5919 20.7502 13.1704 21.7676 13.1704 22.8285C13.1704 23.8894 13.5919 24.9068 14.342 25.657C15.0922 26.4072 16.1096 26.8286 17.1705 26.8286C18.2314 26.8286 19.2489 26.4072 19.999 25.657L21.414 24.242L22.828 25.657ZM22.828 15.757L24.242 17.171L17.171 24.243L15.757 22.828L22.827 15.758L22.828 15.757Z"
            fill="#AD9C6C" />
    </g>

</svg>
    