<svg xmlns="http://www.w3.org/2000/svg" width="65" height="65" viewBox="0 0 65 65" fill="none">
    <path
        d="M60.4297 55.8137C61.596 55.1403 62.447 54.0311 62.7956 52.7302C63.1441 51.4294 62.9616 50.0433 62.2883 48.877L61.7805 47.9924C61.6448 47.761 61.4232 47.5927 61.1639 47.5241C60.9046 47.4556 60.6287 47.4924 60.3965 47.6264C60.1642 47.7606 59.9944 47.9811 59.9242 48.2399C59.8539 48.4987 59.8888 48.7748 60.0214 49.008L60.5292 49.8926C60.8931 50.5263 61.0165 51.2699 60.877 51.9872C60.7375 52.7045 60.3444 53.3475 59.7695 53.7987C59.5181 52.8456 58.928 52.0167 58.1097 51.4673C57.2913 50.9178 56.3007 50.6854 55.3234 50.8135C54.346 50.9416 53.4489 51.4215 52.7998 52.1633C52.1507 52.9051 51.7941 53.8581 51.7969 54.8438V57.3828C51.027 57.1794 50.3694 56.6786 49.9687 55.9904L45.9062 48.9531C45.8273 48.8168 45.7178 48.7006 45.5863 48.6139L41.273 45.7702L56.0219 37.2481L56.2941 41.7818L48.0462 46.5441C47.9297 46.6103 47.8275 46.6989 47.7455 46.8047C47.6634 46.9106 47.6031 47.0316 47.568 47.1609C47.5329 47.2901 47.5237 47.4251 47.541 47.5579C47.5583 47.6907 47.6016 47.8188 47.6686 47.9348C47.7356 48.0508 47.8248 48.1524 47.9312 48.2338C48.0376 48.3151 48.1591 48.3746 48.2885 48.4089C48.418 48.4431 48.553 48.4514 48.6857 48.4332C48.8184 48.4151 48.9462 48.3709 49.0618 48.3031L56.9735 43.7328L57.9891 45.4878C58.0553 45.6043 58.1439 45.7065 58.2498 45.7885C58.3556 45.8706 58.4767 45.9309 58.6059 45.966C58.7352 46.0011 58.8701 46.0103 59.0029 45.993C59.1358 45.9757 59.2639 45.9324 59.3799 45.8654C59.4958 45.7984 59.5975 45.7092 59.6788 45.6028C59.7602 45.4964 59.8197 45.3749 59.8539 45.2454C59.8882 45.1159 59.8964 44.981 59.8783 44.8483C59.8601 44.7156 59.8159 44.5877 59.7482 44.4722L58.3466 42.0449L57.9516 35.4859C57.9413 35.3129 57.887 35.1453 57.7936 34.9992C57.7003 34.8531 57.5711 34.7333 57.4184 34.6512C57.2657 34.5692 57.0945 34.5276 56.9212 34.5304C56.7478 34.5332 56.5781 34.5804 56.4281 34.6674L55.3465 35.2909L50.2917 13.7983L58.6726 3.69587C58.7579 3.59317 58.822 3.47469 58.8615 3.3472C58.9009 3.2197 58.9149 3.08569 58.9025 2.95281C58.8901 2.81992 58.8517 2.69078 58.7895 2.57274C58.7272 2.4547 58.6423 2.35008 58.5396 2.26485C58.4369 2.17963 58.3184 2.11546 58.1909 2.07603C58.0634 2.03659 57.9294 2.02265 57.7965 2.035C57.6637 2.04736 57.5345 2.08576 57.4165 2.14803C57.2984 2.2103 57.1938 2.2952 57.1086 2.3979L49.7087 11.3192L47.708 2.81431C47.6774 2.6844 47.6216 2.56178 47.5437 2.45345C47.4657 2.34512 47.3672 2.2532 47.2538 2.18294C47.1403 2.11268 47.0141 2.06546 46.8824 2.04396C46.7507 2.02247 46.6161 2.02712 46.4862 2.05767C46.3563 2.08821 46.2336 2.14404 46.1253 2.22197C46.017 2.2999 45.9251 2.3984 45.8548 2.51186C45.7845 2.62531 45.7373 2.7515 45.7158 2.8832C45.6943 3.01491 45.699 3.14956 45.7295 3.27946L53.5112 36.3523L51.9431 37.2572C51.1671 36.3803 50.1118 35.7985 48.9561 35.6104C47.8003 35.4223 46.615 35.6394 45.601 36.2249C44.5869 36.8105 43.8064 37.7285 43.3915 38.8235C42.9767 39.9185 42.953 41.1233 43.3245 42.2338L41.7087 43.1671L36.0618 36.3624C35.8897 36.1552 35.6423 36.0247 35.374 35.9999C35.1057 35.975 34.8386 36.0578 34.6313 36.2299C34.424 36.402 34.2936 36.6494 34.2687 36.9177C34.2439 37.186 34.3266 37.4531 34.4987 37.6604L39.9242 44.201L38.8385 44.8277C38.6887 44.9143 38.5635 45.0377 38.4748 45.1862C38.3861 45.3348 38.3368 45.5036 38.3316 45.6765C38.3264 45.8495 38.3655 46.0209 38.4451 46.1745C38.5248 46.3281 38.6424 46.4588 38.7867 46.5542L44.2711 50.177L48.2137 57.006C48.5905 57.6554 49.1079 58.2122 49.7279 58.6356C50.3479 59.059 51.0549 59.3382 51.7969 59.4527V60.9375H50.7812C50.5119 60.9375 50.2535 61.0445 50.0631 61.235C49.8726 61.4254 49.7656 61.6838 49.7656 61.9531C49.7656 62.2225 49.8726 62.4808 50.0631 62.6713C50.2535 62.8618 50.5119 62.9688 50.7812 62.9688H60.9375C61.2069 62.9688 61.4652 62.8618 61.6556 62.6713C61.8461 62.4808 61.9531 62.2225 61.9531 61.9531C61.9531 61.6838 61.8461 61.4254 61.6556 61.235C61.4652 61.0445 61.2069 60.9375 60.9375 60.9375H59.9219V56.1062L60.4297 55.8137ZM45.1953 39.8369C45.3254 39.3385 45.5804 38.8815 45.9362 38.5091C46.2921 38.1368 46.7371 37.8613 47.2291 37.7088C47.721 37.5563 48.2438 37.5318 48.7479 37.6376C49.252 37.7434 49.7208 37.976 50.1099 38.3134L45.1526 41.1755C45.0665 40.7317 45.0811 40.2743 45.1953 39.8369ZM53.8281 60.9375V56.875H54.8437C55.1131 56.875 55.3714 56.768 55.5619 56.5775C55.7524 56.3871 55.8594 56.1287 55.8594 55.8594C55.8594 55.59 55.7524 55.3317 55.5619 55.1412C55.3714 54.9508 55.1131 54.8438 54.8437 54.8438H53.8281C53.8281 54.305 54.0421 53.7884 54.4231 53.4074C54.804 53.0265 55.3206 52.8125 55.8594 52.8125C56.3981 52.8125 56.9147 53.0265 57.2957 53.4074C57.6766 53.7884 57.8906 54.305 57.8906 54.8438V60.9375H53.8281Z"
        fill="#AD9C6C" />
    <path
        d="M26.1615 44.8236L25.0758 44.1969L46.802 18.006C46.8872 17.9033 46.9514 17.7848 46.9908 17.6573C47.0303 17.5298 47.0442 17.3958 47.0319 17.2629C47.0195 17.1301 46.9811 17.0009 46.9188 16.8829C46.8566 16.7648 46.7717 16.6602 46.669 16.575C46.5663 16.4898 46.4478 16.4256 46.3203 16.3862C46.1928 16.3467 46.0588 16.3328 45.9259 16.3451C45.793 16.3575 45.6639 16.3959 45.5458 16.4582C45.4278 16.5204 45.3232 16.6053 45.2379 16.708L32.5 32.0643L16.9172 13.2752L19.2704 3.27538C19.301 3.14548 19.3056 3.01083 19.2842 2.87912C19.2627 2.74741 19.2154 2.62123 19.1452 2.50778C19.0749 2.39432 18.983 2.29582 18.8747 2.21789C18.7663 2.13996 18.6437 2.08413 18.5138 2.05358C18.3839 2.02304 18.2492 2.01839 18.1175 2.03988C17.9858 2.06138 17.8597 2.1086 17.7462 2.17886C17.6327 2.24912 17.5342 2.34104 17.4563 2.44937C17.3784 2.5577 17.3225 2.68032 17.292 2.81023L15.2912 11.3151L7.89138 2.39788C7.80616 2.29518 7.70154 2.21028 7.5835 2.14801C7.46546 2.08575 7.33631 2.04734 7.20343 2.03498C6.93506 2.01003 6.66778 2.09271 6.46037 2.26483C6.25296 2.43696 6.12242 2.68442 6.09747 2.95279C6.07252 3.22115 6.1552 3.48844 6.32732 3.69585L14.7083 13.7983L9.64842 35.2909L8.56779 34.6673C8.41782 34.5803 8.24808 34.5332 8.07473 34.5304C7.90139 34.5276 7.7302 34.5692 7.57748 34.6512C7.42476 34.7333 7.29559 34.8531 7.20227 34.9992C7.10895 35.1453 7.05458 35.3129 7.04435 35.4859L6.65537 42.0469L5.25279 44.4742C5.11811 44.7076 5.08166 44.985 5.15147 45.2452C5.22128 45.5055 5.39162 45.7274 5.62502 45.8621C5.85842 45.9967 6.13576 46.0332 6.39603 45.9634C6.65631 45.8936 6.87819 45.7232 7.01287 45.4898L8.02849 43.7348L15.9402 48.3051C16.0558 48.3729 16.1836 48.4171 16.3163 48.4352C16.449 48.4534 16.584 48.4451 16.7135 48.4109C16.8429 48.3766 16.9644 48.3171 17.0708 48.2358C17.1772 48.1544 17.2664 48.0528 17.3334 47.9368C17.4004 47.8208 17.4437 47.6927 17.461 47.5599C17.4783 47.4271 17.4691 47.2921 17.434 47.1629C17.3989 47.0336 17.3386 46.9126 17.2565 46.8067C17.1745 46.7009 17.0723 46.6123 16.9558 46.5461L8.70591 41.7818L8.9781 37.248L23.7219 45.761L19.4086 48.6098C19.2771 48.6966 19.1675 48.8127 19.0886 48.9491L15.0261 55.9863C14.6264 56.6728 13.9708 57.1728 13.2031 57.3767V54.8437C13.2049 53.8587 12.8479 52.9067 12.1989 52.1657C11.5499 51.4247 10.6533 50.9454 9.67663 50.8174C8.69996 50.6893 7.71007 50.9213 6.892 51.47C6.07392 52.0187 5.48363 52.8465 5.23146 53.7987C4.65692 53.3471 4.26381 52.7041 4.1238 51.9869C3.98378 51.2697 4.1062 50.526 4.46873 49.8916L4.97654 49.008C5.04323 48.8924 5.0865 48.7648 5.10388 48.6325C5.12127 48.5002 5.11242 48.3658 5.07786 48.2369C5.0433 48.1081 4.98369 47.9873 4.90243 47.8814C4.82118 47.7756 4.71988 47.6868 4.60431 47.6201C4.48875 47.5534 4.36117 47.5102 4.22888 47.4928C4.09659 47.4754 3.96217 47.4842 3.8333 47.5188C3.70442 47.5534 3.58362 47.613 3.47778 47.6942C3.37195 47.7755 3.28315 47.8768 3.21646 47.9923L2.70865 48.8759C2.03528 50.0423 1.8528 51.4283 2.20135 52.7292C2.5499 54.0301 3.40094 55.1392 4.56724 55.8126L5.07506 56.1051V60.9375H4.06248C3.79312 60.9375 3.53479 61.0445 3.34432 61.235C3.15386 61.4254 3.04685 61.6838 3.04685 61.9531C3.04685 62.2225 3.15386 62.4808 3.34432 62.6713C3.53479 62.8617 3.79312 62.9687 4.06248 62.9687H14.2187C14.4881 62.9687 14.7464 62.8617 14.9369 62.6713C15.1273 62.4808 15.2344 62.2225 15.2344 61.9531C15.2344 61.6838 15.1273 61.4254 14.9369 61.235C14.7464 61.0445 14.4881 60.9375 14.2187 60.9375H13.2031V59.4516C13.9453 59.3369 14.6523 59.0573 15.2722 58.6334C15.8921 58.2095 16.4091 57.652 16.7852 57.0019L20.7279 50.1719L26.2122 46.5491C26.3566 46.4537 26.4742 46.323 26.5538 46.1694C26.6335 46.0158 26.6726 45.8444 26.6674 45.6714C26.6622 45.4985 26.6129 45.3297 26.5242 45.1811C26.4355 45.0326 26.3103 44.9092 26.1604 44.8226L26.1615 44.8236ZM7.10935 60.9375V54.8437C7.10935 54.305 7.32336 53.7884 7.70429 53.4074C8.08523 53.0265 8.60188 52.8125 9.1406 52.8125C9.67932 52.8125 10.196 53.0265 10.5769 53.4074C10.9578 53.7884 11.1719 54.305 11.1719 54.8437H10.1562C9.88687 54.8437 9.62854 54.9507 9.43807 55.1412C9.24761 55.3317 9.1406 55.59 9.1406 55.8594C9.1406 56.1287 9.24761 56.3871 9.43807 56.5775C9.62854 56.768 9.88687 56.875 10.1562 56.875H11.1719V60.9375H7.10935ZM16.3343 15.7584L31.1797 33.6558L23.2913 43.1641L21.6754 42.2307C22.047 41.1202 22.0233 39.9155 21.6085 38.8204C21.1936 37.7254 20.4131 36.8074 19.399 36.2219C18.3849 35.6363 17.1997 35.4192 16.0439 35.6073C14.8881 35.7955 13.8329 36.3772 13.0569 37.2541L11.4877 36.3482L16.3343 15.7584ZM19.8443 41.1765L14.887 38.3144C15.3627 37.9014 15.9555 37.647 16.5826 37.5868C17.2098 37.5266 17.8401 37.6635 18.3858 37.9785C18.9314 38.2936 19.3652 38.771 19.6266 39.3442C19.888 39.9174 19.9641 40.5579 19.8443 41.1765Z"
        fill="#AD9C6C" />
    <path
        d="M28.3359 12.1702C28.2773 12.3503 28.2702 12.5433 28.3154 12.7272C28.3606 12.9112 28.4564 13.0788 28.5919 13.2112C28.968 13.5778 29.2495 14.0302 29.4119 14.5297C29.5743 15.0292 29.6129 15.5606 29.5242 16.0783C29.4922 16.2651 29.5131 16.4571 29.5845 16.6326C29.656 16.8081 29.7751 16.9602 29.9284 17.0716C30.0817 17.1829 30.2631 17.2492 30.4521 17.2628C30.6411 17.2765 30.8302 17.237 30.9979 17.1488C31.4628 16.9047 31.98 16.7771 32.5051 16.7771C33.0302 16.7771 33.5474 16.9047 34.0123 17.1488C34.18 17.237 34.3691 17.2765 34.5581 17.2628C34.7471 17.2492 34.9285 17.1829 35.0818 17.0716C35.2351 16.9602 35.3542 16.8081 35.4256 16.6326C35.4971 16.4571 35.518 16.2651 35.4859 16.0783C35.3973 15.5606 35.4359 15.0292 35.5983 14.5297C35.7607 14.0302 36.0421 13.5778 36.4183 13.2112C36.5548 13.0788 36.6513 12.9107 36.6969 12.7261C36.7426 12.5415 36.7355 12.3477 36.6764 12.167C36.6173 11.9862 36.5087 11.8257 36.3629 11.7036C36.2171 11.5815 36.0399 11.5028 35.8516 11.4765C35.3321 11.4006 34.8389 11.1997 34.4143 10.891C33.9897 10.5822 33.6464 10.175 33.4141 9.70426C33.3206 9.54615 33.1874 9.41513 33.0279 9.32412C32.8683 9.23311 32.6878 9.18524 32.5041 9.18524C32.3204 9.18524 32.1398 9.23311 31.9803 9.32412C31.8207 9.41513 31.6876 9.54615 31.5941 9.70426C31.3609 10.176 31.0164 10.5839 30.5903 10.8927C30.1642 11.2015 29.6693 11.4019 29.1484 11.4765C28.9619 11.5053 28.7871 11.5854 28.6436 11.7079C28.5001 11.8304 28.3936 11.9905 28.3359 12.1702ZM32.5 11.9092C32.9401 12.3718 33.4609 12.7504 34.0367 13.0264C33.7329 13.588 33.534 14.2003 33.4496 14.8332C32.8218 14.7181 32.1782 14.7181 31.5504 14.8332C31.466 14.2003 31.2671 13.588 30.9634 13.0264C31.5392 12.7504 32.0599 12.3718 32.5 11.9092Z"
        fill="#AD9C6C" />
    <path
        d="M49.8722 27.4046C49.8142 27.2242 49.7069 27.0636 49.5624 26.9411C49.4179 26.8185 49.2421 26.7388 49.0546 26.7109C48.5352 26.635 48.0419 26.434 47.6174 26.1253C47.1928 25.8166 46.8495 25.4094 46.6171 24.9386C46.5236 24.7805 46.3905 24.6495 46.2309 24.5585C46.0714 24.4675 45.8908 24.4196 45.7071 24.4196C45.5234 24.4196 45.3429 24.4675 45.1833 24.5585C45.0238 24.6495 44.8907 24.7805 44.7971 24.9386C44.564 25.4104 44.2195 25.8183 43.7934 26.1271C43.3673 26.4359 42.8724 26.6362 42.3515 26.7109C42.1638 26.738 41.9875 26.8171 41.8425 26.9392C41.6974 27.0613 41.5894 27.2216 41.5308 27.4019C41.4721 27.5822 41.4651 27.7754 41.5105 27.9595C41.556 28.1435 41.652 28.3112 41.7878 28.4436C42.164 28.8101 42.4454 29.2626 42.6078 29.7621C42.7703 30.2615 42.8088 30.793 42.7202 31.3107C42.6882 31.4974 42.7091 31.6894 42.7805 31.865C42.8519 32.0405 42.971 32.1925 43.1243 32.3039C43.2776 32.4153 43.4591 32.4815 43.6481 32.4952C43.8371 32.5088 44.0261 32.4693 44.1939 32.3811C44.6587 32.137 45.176 32.0095 45.701 32.0095C46.2261 32.0095 46.7433 32.137 47.2082 32.3811C47.376 32.4693 47.565 32.5088 47.754 32.4952C47.943 32.4815 48.1244 32.4153 48.2778 32.3039C48.4311 32.1925 48.5502 32.0405 48.6216 31.865C48.693 31.6894 48.7139 31.4974 48.6819 31.3107C48.5933 30.793 48.6318 30.2615 48.7943 29.7621C48.9567 29.2626 49.2381 28.8101 49.6142 28.4436C49.7497 28.3116 49.8457 28.1444 49.8912 27.9608C49.9368 27.7772 49.9302 27.5846 49.8722 27.4046ZM46.6527 30.0625C46.0248 29.9474 45.3813 29.9474 44.7535 30.0625C44.6691 29.4296 44.4702 28.8173 44.1664 28.2557C44.7418 27.9812 45.2625 27.6044 45.7031 27.1436C46.1432 27.6062 46.6639 27.9847 47.2397 28.2607C46.9366 28.8208 46.7377 29.4313 46.6527 30.0625Z"
        fill="#AD9C6C" />
    <path
        d="M17.3316 33.3439C17.2996 33.5307 17.3205 33.7227 17.3919 33.8982C17.4633 34.0738 17.5824 34.2258 17.7357 34.3372C17.8891 34.4485 18.0705 34.5148 18.2595 34.5285C18.4485 34.5421 18.6375 34.5026 18.8053 34.4144C19.2701 34.1703 19.7874 34.0428 20.3124 34.0428C20.8375 34.0428 21.3548 34.1703 21.8196 34.4144C21.9874 34.5026 22.1764 34.5421 22.3654 34.5285C22.5544 34.5148 22.7358 34.4485 22.8892 34.3372C23.0425 34.2258 23.1616 34.0738 23.233 33.8982C23.3044 33.7227 23.3253 33.5307 23.2933 33.3439C23.2047 32.8263 23.2432 32.2948 23.4057 31.7953C23.5681 31.2959 23.8495 30.8434 24.2257 30.4768C24.362 30.3447 24.4586 30.177 24.5045 29.9928C24.5504 29.8086 24.5437 29.6152 24.4852 29.4345C24.4268 29.2539 24.3188 29.0933 24.1736 28.9709C24.0285 28.8485 23.8519 28.7693 23.664 28.7422C23.1446 28.6662 22.6513 28.4653 22.2267 28.1566C21.8021 27.8479 21.4589 27.4406 21.2265 26.9699C21.133 26.8118 20.9999 26.6808 20.8403 26.5897C20.6807 26.4987 20.5002 26.4509 20.3165 26.4509C20.1328 26.4509 19.9523 26.4987 19.7927 26.5897C19.6331 26.6808 19.5 26.8118 19.4065 26.9699C19.1734 27.4416 18.8289 27.8495 18.4028 28.1583C17.9767 28.4671 17.4818 28.6675 16.9609 28.7422C16.7732 28.7692 16.5969 28.8483 16.4518 28.9704C16.3068 29.0926 16.1988 29.2529 16.1402 29.4332C16.0815 29.6135 16.0745 29.8066 16.1199 29.9907C16.1653 30.1748 16.2614 30.3425 16.3972 30.4748C16.774 30.8414 17.056 31.2941 17.2188 31.794C17.3816 32.2938 17.4203 32.8258 17.3316 33.3439ZM20.3124 29.1748C20.7526 29.6374 21.2733 30.016 21.8491 30.292C21.5454 30.8536 21.3464 31.4659 21.2621 32.0988C20.6342 31.9837 19.9907 31.9837 19.3628 32.0988C19.2784 31.4659 19.0795 30.8536 18.7758 30.292C19.3516 30.016 19.8723 29.6374 20.3124 29.1748Z"
        fill="#AD9C6C" />
    <path
        d="M34.5312 24.375C35.0922 24.375 35.5469 23.9203 35.5469 23.3594C35.5469 22.7985 35.0922 22.3438 34.5312 22.3438C33.9703 22.3438 33.5156 22.7985 33.5156 23.3594C33.5156 23.9203 33.9703 24.375 34.5312 24.375Z"
        fill="#AD9C6C" />
    <path
        d="M27.7438 5.77179C28.3047 5.77179 28.7594 5.31708 28.7594 4.75616C28.7594 4.19525 28.3047 3.74054 27.7438 3.74054C27.1829 3.74054 26.7281 4.19525 26.7281 4.75616C26.7281 5.31708 27.1829 5.77179 27.7438 5.77179Z"
        fill="#AD9C6C" />
    <path
        d="M23.3594 14.2188C23.9203 14.2188 24.375 13.764 24.375 13.2031C24.375 12.6422 23.9203 12.1875 23.3594 12.1875C22.7985 12.1875 22.3438 12.6422 22.3438 13.2031C22.3438 13.764 22.7985 14.2188 23.3594 14.2188Z"
        fill="#AD9C6C" />
    <path
        d="M39.6094 7.10938C40.1703 7.10938 40.625 6.65466 40.625 6.09375C40.625 5.53284 40.1703 5.07812 39.6094 5.07812C39.0485 5.07812 38.5938 5.53284 38.5938 6.09375C38.5938 6.65466 39.0485 7.10938 39.6094 7.10938Z"
        fill="#AD9C6C" />
    <path
        d="M40.625 35.5469C41.1859 35.5469 41.6406 35.0922 41.6406 34.5312C41.6406 33.9703 41.1859 33.5156 40.625 33.5156C40.0641 33.5156 39.6094 33.9703 39.6094 34.5312C39.6094 35.0922 40.0641 35.5469 40.625 35.5469Z"
        fill="#AD9C6C" />
    <path
        d="M50.7812 6.09375C51.3422 6.09375 51.7969 5.63904 51.7969 5.07812C51.7969 4.51721 51.3422 4.0625 50.7812 4.0625C50.2203 4.0625 49.7656 4.51721 49.7656 5.07812C49.7656 5.63904 50.2203 6.09375 50.7812 6.09375Z"
        fill="#AD9C6C" />
    <path
        d="M12.1875 5.07812C12.7484 5.07812 13.2031 4.62341 13.2031 4.0625C13.2031 3.50159 12.7484 3.04688 12.1875 3.04688C11.6266 3.04688 11.1719 3.50159 11.1719 4.0625C11.1719 4.62341 11.6266 5.07812 12.1875 5.07812Z"
        fill="#AD9C6C" />
    <path
        d="M18.2812 23.3594C18.8422 23.3594 19.2969 22.9047 19.2969 22.3438C19.2969 21.7828 18.8422 21.3281 18.2812 21.3281C17.7203 21.3281 17.2656 21.7828 17.2656 22.3438C17.2656 22.9047 17.7203 23.3594 18.2812 23.3594Z"
        fill="#AD9C6C" />
</svg>