<svg xmlns="http://www.w3.org/2000/svg" width="65" height="65" viewBox="0 0 65 65" fill="none">
    <g clip-path="url(#clip0_59_509)">
        <path
            d="M32.5 48.2258C42.905 48.2258 51.371 39.7599 51.371 29.3549C51.371 18.9498 42.905 10.4839 32.5 10.4839C22.095 10.4839 13.629 18.9498 13.629 29.3549C13.629 39.7599 22.095 48.2258 32.5 48.2258ZM32.5 12.5807C41.7486 12.5807 49.2742 20.1062 49.2742 29.3549C49.2742 38.6035 41.7486 46.129 32.5 46.129C23.2514 46.129 15.7258 38.6035 15.7258 29.3549C15.7258 20.1062 23.2514 12.5807 32.5 12.5807Z"
            fill="#AD9C6C" />
        <path
            d="M28.3065 38.7903H31.4516V40.8871H36.6936C40.7392 40.8871 44.0323 37.595 44.0323 33.5483V32.5H38.7904C36.7376 32.5 34.8819 33.3492 33.5484 34.7129V30.4032H36.6936C40.7392 30.4032 44.0323 27.1111 44.0323 23.0645V22.0161H38.7904C36.4924 22.0161 34.4397 23.0793 33.0933 24.7379C32.0618 21.9311 29.3697 19.9193 26.2097 19.9193H20.9678V20.9677C20.9678 25.0143 24.2609 28.3064 28.3065 28.3064H31.4516V32.6162C30.1181 31.2524 28.2625 30.4032 26.2097 30.4032H20.9678V31.4516C20.9678 35.4982 24.2609 38.7903 28.3065 38.7903ZM38.7904 34.5967H41.8296C41.3422 36.9858 39.2255 38.7903 36.6936 38.7903H33.6544C34.1407 36.4012 36.2585 34.5967 38.7904 34.5967ZM38.7904 24.1129H41.8296C41.3422 26.5019 39.2255 28.3064 36.6936 28.3064H33.6544C34.1407 25.9173 36.2585 24.1129 38.7904 24.1129ZM28.3065 26.2096C25.7746 26.2096 23.6568 24.4052 23.1705 22.0161H26.2097C28.7416 22.0161 30.8594 23.8206 31.3457 26.2096H28.3065ZM26.2097 32.5C28.7416 32.5 30.8594 34.3044 31.3457 36.6935H28.3065C25.7746 36.6935 23.6568 34.889 23.1705 32.5H26.2097Z"
            fill="#AD9C6C" />
        <path
            d="M59.9889 19.0829C55.7155 7.64995 44.7505 0 32.5 0C17.8057 0 5.4682 10.79 3.44514 25.2365C1.48965 25.5923 0 27.299 0 29.3548C0 31.4107 1.48965 33.1174 3.44514 33.4731C5.4682 47.9197 17.8057 58.7097 32.5 58.7097C41.6273 58.7097 50.0226 54.573 55.5645 47.5066V61.8548C55.5645 63.5887 56.9758 65 58.7097 65C60.4435 65 61.8548 63.5887 61.8548 61.8548V34.2748C61.8548 33.4071 62.269 32.5399 63.0184 31.8345C64.2787 30.6505 65 28.9837 65 27.2581C65 24.29 62.9601 20.0642 59.9889 19.0829ZM32.5 2.09677C43.5869 2.09677 53.5338 8.84423 57.7074 19.0123C56.337 19.366 55.1494 20.4026 54.2499 21.7259C51.0469 12.6446 42.3076 6.29032 32.5 6.29032C21.4018 6.29032 11.8082 14.3411 9.81583 25.1613H5.57007C7.6049 11.9315 18.98 2.09677 32.5 2.09677ZM2.09677 29.3548C2.09677 28.1984 3.03715 27.2581 4.19355 27.2581H11.6162L11.7452 26.3586C13.2098 16.1128 22.1323 8.3871 32.5 8.3871C42.1536 8.3871 50.6768 15.1525 52.8934 24.5101C52.5862 25.4592 52.4194 26.4098 52.4194 27.2581C52.4194 28.4605 52.7767 29.6318 53.4166 30.6341C52.7506 41.6974 43.632 50.3226 32.5 50.3226C20.9386 50.3226 11.5323 40.9163 11.5323 29.3548H9.43548C9.43548 30.0623 9.47234 30.7605 9.53531 31.4516H4.19355C3.03715 31.4516 2.09677 30.5112 2.09677 29.3548ZM32.5 56.6129C18.98 56.6129 7.6049 46.7781 5.57007 33.5484H9.82453C11.8025 44.2703 21.215 52.4194 32.5 52.4194C43.9821 52.4194 53.5179 44.0753 55.2666 33.0001C55.4616 33.4122 55.5645 33.8427 55.5645 34.2748V43.8751C50.5335 51.8532 41.9365 56.6129 32.5 56.6129ZM61.5835 30.306C60.4061 31.4127 59.7581 32.822 59.7581 34.2748V61.8548C59.7581 62.4323 59.2881 62.9032 58.7097 62.9032C58.1312 62.9032 57.6613 62.4323 57.6613 61.8548V34.2748C57.6613 32.822 57.0132 31.4127 55.8358 30.306C54.9845 29.5059 54.5161 28.4237 54.5161 27.2581C54.5161 24.6591 56.6841 20.9677 58.7097 20.9677C60.7353 20.9677 62.9032 24.6591 62.9032 27.2581C62.9032 28.4237 62.4348 29.5059 61.5835 30.306Z"
            fill="#AD9C6C" />
    </g>
    <defs>
        <clipPath id="clip0_59_509">
            <rect width="65" height="65" fill="white" />
        </clipPath>
    </defs>
</svg>