<svg xmlns="http://www.w3.org/2000/svg" width="17" height="17" viewBox="0 0 17 17" fill="none">
    <path
        d="M15.5833 5.25585C15.5196 6.6371 14.5562 8.52835 12.6933 10.9367C10.7667 13.4584 9.13749 14.6979 7.79166 14.6979C6.97707 14.6979 6.27582 13.9329 5.70207 12.3959C5.31249 11.0075 4.95832 9.60502 4.56166 8.20252C4.13666 6.67252 3.68332 5.90752 3.18749 5.90752C3.08832 5.90752 2.71999 6.13418 2.08249 6.58043L1.41666 5.71627C2.12499 5.10002 2.80499 4.48377 3.48499 3.86752C4.41999 3.06002 5.12124 2.63502 5.58166 2.59252C6.68666 2.47918 7.36666 3.24418 7.62166 4.85918C7.89791 6.60877 8.08916 7.69252 8.19541 8.11752C8.49999 9.56252 8.85416 10.2709 9.24374 10.2709C9.54124 10.2709 9.98749 9.81752 10.5825 8.87543C11.1775 7.94043 11.4962 7.22502 11.5387 6.72918C11.6237 5.92168 11.305 5.51793 10.5825 5.51793C10.2425 5.51793 9.89541 5.59585 9.53416 5.75168C10.2283 3.46377 11.56 2.35168 13.5221 2.41543C14.9812 2.45793 15.6683 3.4071 15.5833 5.25585Z"
        fill="#AD9C6C" />
</svg>