<svg xmlns="http://www.w3.org/2000/svg" width="65" height="65" viewBox="0 0 65 65" fill="none">
    <g clip-path="url(#clip0_59_497)">
        <path
            d="M8.11136 29.5295C8.41998 30.1388 9.0112 30.5249 9.69307 30.5623C9.72925 30.5643 9.76505 30.5652 9.80085 30.5652C10.441 30.5652 11.0248 30.2504 11.3784 29.7089L15.8328 22.888C16.2063 22.3162 16.245 21.611 15.9365 21.0016C15.628 20.3922 15.0367 20.006 14.3547 19.9686L14.3168 19.9665C15.4701 18.6384 16.9724 17.6286 18.6706 17.06C19.3941 16.8177 19.9798 16.3083 20.3203 15.6253C20.6606 14.9424 20.7145 14.1678 20.4723 13.4445C20.2301 12.721 19.7205 12.1351 19.0376 11.7948C18.3547 11.4546 17.5802 11.4005 16.8567 11.6429C12.8127 12.9969 9.60674 15.8121 7.76491 19.6068L6.21925 19.5218C5.5365 19.4841 4.90706 19.8035 4.5337 20.3755C4.16033 20.9474 4.12173 21.6526 4.43036 22.2617L8.11136 29.5295ZM8.30687 21.5437C8.70258 21.5654 9.07303 21.338 9.23198 20.9732C10.8002 17.3728 13.7228 14.7004 17.4613 13.4485C17.7028 13.3678 17.9608 13.3858 18.1884 13.4992C18.416 13.6127 18.5859 13.8079 18.6666 14.0491C18.7474 14.2902 18.7295 14.5484 18.6161 14.7759C18.5026 15.0036 18.3073 15.1734 18.0661 15.2542C15.4049 16.1454 13.1461 17.9475 11.7055 20.3286C11.5325 20.6146 11.5221 20.9705 11.6782 21.2662C11.8344 21.5618 12.1341 21.7539 12.468 21.7722L14.2242 21.8687L9.79831 28.6456L6.14105 21.4246L8.30687 21.5437Z"
            fill="#AD9C6C" />
        <path
            d="M46.3297 17.06C48.0278 17.6286 49.5303 18.6384 50.6835 19.9665L50.6457 19.9686C49.9637 20.006 49.3724 20.3922 49.064 21.0016C48.7555 21.611 48.7942 22.3161 49.1677 22.888L53.6221 29.7089C53.9758 30.2505 54.5596 30.5652 55.1997 30.5652C55.2355 30.5652 55.2714 30.5642 55.3074 30.5623C55.9893 30.5249 56.5806 30.1388 56.8891 29.5295L60.5701 22.2617C60.8788 21.6524 60.84 20.9473 60.4667 20.3753C60.0933 19.8034 59.4639 19.484 58.7811 19.5218L57.2355 19.6068C55.3936 15.8121 52.1877 12.9969 48.1437 11.6429C47.4203 11.4005 46.6457 11.4546 45.9628 11.7948C45.2799 12.1351 44.7703 12.721 44.5281 13.4445C44.2857 14.1678 44.3398 14.9425 44.6801 15.6254C45.0203 16.3083 45.6062 16.8177 46.3297 17.06ZM46.3339 14.049C46.4146 13.8078 46.5845 13.6125 46.8121 13.4992C47.0396 13.3858 47.2978 13.3678 47.5392 13.4485C51.2778 14.7004 54.2004 17.3728 55.7685 20.9732C55.9275 21.338 56.2975 21.5659 56.6936 21.5437L58.8595 21.4249L55.2021 28.6458L50.7764 21.8687L52.5324 21.7722C52.8661 21.7538 53.166 21.5618 53.3221 21.2662C53.4783 20.9705 53.4679 20.6146 53.2948 20.3286C51.8543 17.9475 49.5954 16.1454 46.9342 15.2542C46.6932 15.1734 46.4979 15.0037 46.3844 14.7759C46.2709 14.5482 46.2531 14.2902 46.3339 14.049Z"
            fill="#AD9C6C" />
        <path
            d="M62.3792 40.6444H61.6027V38.9644C61.6027 36.1825 59.3389 33.9193 56.5563 33.9193H50.507C47.7251 33.9193 45.4619 36.1825 45.4619 38.9644V40.6444H44.6845C44.051 40.6444 43.4695 40.8704 43.0159 41.2459C42.5623 40.8704 41.9807 40.6444 41.3474 40.6444H40.5704V38.9644C40.5704 36.1825 38.3072 33.9193 35.5253 33.9193H29.4747C26.6928 33.9193 24.4296 36.1825 24.4296 38.9644V40.6444H23.6526C23.0191 40.6444 22.4376 40.8704 21.9841 41.2459C21.5305 40.8704 20.9489 40.6444 20.3155 40.6444H19.5381V38.9644C19.5381 36.1825 17.2749 33.9193 14.493 33.9193H10.6653C10.1395 33.9193 9.71318 34.3456 9.71318 34.8715C9.71318 35.3973 10.1395 35.8236 10.6653 35.8236H14.493C16.2249 35.8236 17.6338 37.2326 17.6338 38.9644V40.6444H15.9237V38.9644C15.9237 38.1762 15.2819 37.535 14.493 37.535H8.44365C7.65477 37.535 7.01289 38.1762 7.01289 38.9644V40.6444H5.30156V38.9644C5.30156 37.8655 5.86333 36.8641 6.80443 36.2856C7.25245 36.0102 7.39235 35.4239 7.11687 34.9758C6.84163 34.5279 6.25498 34.3879 5.80709 34.6634C4.29813 35.591 3.39727 37.1989 3.39727 38.9644V40.6444H2.62082C1.17571 40.6444 0 41.8201 0 43.2652V45.606C0 46.836 0.852998 47.868 1.99773 48.1487V61.9449C1.99773 63.6294 3.36819 65 5.05286 65H17.8833C19.5679 65 20.9384 63.6295 20.9384 61.9449V48.1487C21.3279 48.0533 21.6844 47.8733 21.984 47.6252C22.2836 47.8733 22.6402 48.0533 23.0297 48.1487V61.9449C23.0297 63.6294 24.4001 65 26.0848 65H38.9151C40.5997 65 41.9702 63.6295 41.9702 61.9449V48.1487C42.3597 48.0533 42.7162 47.8733 43.0159 47.6252C43.3155 47.8733 43.6721 48.0533 44.0615 48.1487V54.939C44.0615 55.4648 44.4878 55.8911 45.0136 55.8911C45.5395 55.8911 45.9658 55.4648 45.9658 54.939V48.2269H61.0973V61.9455C61.0973 62.5798 60.5814 63.0957 59.9471 63.0957H47.1161C46.4819 63.0957 45.9659 62.5798 45.9659 61.9455V59.3823C45.9659 58.8565 45.5396 58.4302 45.0138 58.4302C44.4879 58.4302 44.0616 58.8565 44.0616 59.3823V61.9455C44.0616 63.6298 45.4318 65 47.1161 65H59.9473C61.6316 65 63.0018 63.6298 63.0018 61.9455V48.1489C64.1468 47.8683 65 46.8362 65 45.606V43.2652C65 41.8201 63.8243 40.6444 62.3792 40.6444ZM47.3662 38.9644C47.3662 37.2326 48.7751 35.8236 50.507 35.8236H56.5563C58.2889 35.8236 59.6984 37.2326 59.6984 38.9644V40.6444H57.9871V38.9644C57.9871 38.1762 57.3452 37.535 56.5563 37.535H50.507C49.7181 37.535 49.0763 38.1762 49.0763 38.9644V40.6444H47.3662V38.9644ZM56.0828 40.6444H50.9806V39.4392H56.0828V40.6444ZM26.3339 38.9644C26.3339 37.2326 27.7428 35.8236 29.4747 35.8236H35.5253C37.2572 35.8236 38.6661 37.2326 38.6661 38.9644V40.6444H36.9548V38.9644C36.9548 38.1762 36.3135 37.535 35.5253 37.535H29.4747C28.6866 37.535 28.0452 38.1762 28.0452 38.9644V40.6444H26.3339V38.9644ZM35.0505 40.6444H29.9495V39.4392H35.0505V40.6444ZM8.91719 39.4392H14.0194V40.6444H8.91719V39.4392ZM19.0341 61.9449C19.0341 62.5794 18.5179 63.0957 17.8833 63.0957H5.05286C4.41822 63.0957 3.90203 62.5795 3.90203 61.9449V48.2267H19.0341V61.9449ZM20.3154 46.3224H2.62082C2.22574 46.3224 1.9043 46.0011 1.9043 45.606V43.2652C1.9043 42.8702 2.22574 42.5487 2.62082 42.5487H20.3155C20.7106 42.5487 21.0319 42.8702 21.0319 43.2652V45.606C21.0319 46.0009 20.7105 46.3224 20.3154 46.3224ZM40.066 61.9449C40.066 62.5794 39.5498 63.0957 38.9152 63.0957H26.0848C25.4502 63.0957 24.934 62.5795 24.934 61.9449V48.2267H40.0659L40.066 61.9449ZM41.3474 46.3224H23.6526C23.2576 46.3224 22.9361 46.0011 22.9361 45.606V43.2652C22.9361 42.8702 23.2576 42.5487 23.6526 42.5487H41.3474C41.7424 42.5487 42.0639 42.8702 42.0639 43.2652V45.606C42.0638 46.0009 41.7424 46.3224 41.3474 46.3224ZM63.0957 45.606C63.0957 46.0011 62.7743 46.3224 62.3792 46.3224H44.6845C44.2894 46.3224 43.9681 46.0011 43.9681 45.606V43.2652C43.9681 42.8702 44.2894 42.5487 44.6845 42.5487H62.3792C62.7743 42.5487 63.0957 42.8702 63.0957 43.2652V45.606Z"
            fill="#AD9C6C" />
        <path
            d="M11.468 60.7381C14.1017 60.7381 16.2442 58.5955 16.2442 55.9618C16.2442 53.3282 14.1017 51.1856 11.468 51.1856C8.83437 51.1856 6.69165 53.3282 6.69165 55.9618C6.69178 58.5955 8.83437 60.7381 11.468 60.7381ZM11.468 53.0899C13.0516 53.0899 14.3399 54.3782 14.3399 55.9618C14.3399 57.5454 13.0516 58.8338 11.468 58.8338C9.88439 58.8338 8.59595 57.5454 8.59595 55.9618C8.59595 54.3782 9.88439 53.0899 11.468 53.0899Z"
            fill="#AD9C6C" />
        <path
            d="M30.1052 60.4169H34.8948C36.0309 60.4169 36.9551 59.4926 36.9551 58.3565V53.567C36.9551 52.4309 36.0309 51.5067 34.8948 51.5067H30.1052C28.9691 51.5067 28.0449 52.431 28.0449 53.567V58.3565C28.0449 59.4926 28.9691 60.4169 30.1052 60.4169ZM29.9492 53.5671C29.9492 53.481 30.0192 53.4111 30.1052 53.4111H34.8948C34.9809 53.4111 35.0508 53.4812 35.0508 53.5671V58.3567C35.0508 58.4427 34.9809 58.5127 34.8948 58.5127H30.1052C30.0192 58.5127 29.9492 58.4427 29.9492 58.3567V53.5671Z"
            fill="#AD9C6C" />
        <path
            d="M50.5016 60.5428H56.5622C57.2696 60.5428 57.9031 60.177 58.2566 59.5645C58.6103 58.9519 58.6103 58.2204 58.2566 57.6078L55.2264 52.3591C54.8727 51.7466 54.2393 51.3808 53.5318 51.3808C52.8244 51.3808 52.191 51.7466 51.8374 52.3591L48.807 57.6078C48.4533 58.2203 48.4533 58.9518 48.807 59.5644C49.1608 60.177 49.7943 60.5428 50.5016 60.5428ZM50.4563 58.5599L53.4866 53.3113C53.4934 53.2996 53.5017 53.2851 53.532 53.2851C53.5622 53.2851 53.5705 53.2997 53.5773 53.3113L56.6075 58.5599C56.6143 58.5716 56.6226 58.5861 56.6075 58.6123C56.5924 58.6385 56.5757 58.6385 56.5622 58.6385H50.5016C50.4881 58.6385 50.4714 58.6385 50.4563 58.6123C50.4412 58.5861 50.4495 58.5716 50.4563 58.5599Z"
            fill="#AD9C6C" />
        <path
            d="M29.3021 21.0349H29.6436V22.1154H28.4964C27.7988 22.1154 27.1741 22.476 26.8252 23.0802C26.4764 23.6844 26.4765 24.4057 26.8252 25.0098L30.829 31.9434C31.1778 32.5475 31.8024 32.9081 32.5 32.9081C33.1976 32.9081 33.8223 32.5475 34.171 31.9436L38.1751 25.0099C38.5241 24.4057 38.5241 23.6844 38.1752 23.0802C37.8264 22.476 37.2018 22.1152 36.504 22.1152H35.3564V21.0347H35.6979C37.375 21.0347 38.9155 20.3591 40.0352 19.1323C41.16 17.9 41.7193 16.2524 41.5693 14.6118C41.5215 14.0881 41.0563 13.7028 40.5345 13.7502C40.0108 13.798 39.625 14.2613 39.6729 14.785C39.7742 15.8939 39.3936 17.0104 38.6287 17.8483C37.8742 18.6749 36.8332 19.1302 35.6979 19.1302H35.3564V16.6422C35.3564 15.0672 34.075 13.7857 32.4999 13.7857C30.9248 13.7857 29.6435 15.0672 29.6435 16.6422V19.1302H29.302C27.8447 19.1302 26.5475 18.3724 25.832 17.103C25.1162 15.8333 25.1394 14.3308 25.8942 13.0839L30.1066 6.12396H34.8934L37.9556 11.1835C38.2278 11.6333 38.8132 11.7774 39.2632 11.5051C39.7131 11.2328 39.8571 10.6474 39.5848 10.1975L36.5048 5.10859L37.434 3.06629C37.8495 2.15299 37.6038 1.11629 36.8228 0.486606C36.0417 -0.143209 34.9765 -0.163267 34.1723 0.436459C33.1877 1.1705 31.8126 1.1705 30.8282 0.436459C30.0237 -0.163394 28.9586 -0.143082 28.1775 0.486606C27.3964 1.11629 27.1509 2.15299 27.5664 3.06629L28.4956 5.10859L24.2652 12.0981C23.1499 13.9411 23.1155 16.1618 24.1733 18.0384C25.2308 19.9146 27.1482 21.0349 29.3021 21.0349ZM31.5479 16.6424C31.5479 16.1175 31.975 15.6903 32.5 15.6903C33.0251 15.6903 33.4522 16.1175 33.4522 16.6424V23.0675C33.4522 23.5933 33.8785 24.0197 34.4043 24.0197H36.5041C36.5153 24.0197 36.5187 24.0197 36.5261 24.0323C36.5335 24.045 36.5317 24.048 36.5261 24.0576L32.522 30.9913C32.5164 31.0009 32.5148 31.0039 32.5002 31.0039C32.4856 31.0039 32.4839 31.0009 32.4783 30.9912L28.4745 24.0576C28.4689 24.048 28.4671 24.045 28.4745 24.0323C28.4819 24.0197 28.4852 24.0197 28.4964 24.0197H30.5957C31.1216 24.0197 31.5479 23.5933 31.5479 23.0675V16.6424ZM29.3726 1.96904C29.5288 1.84297 29.6499 1.93336 29.6897 1.96307C31.3443 3.1968 33.6557 3.1968 35.3104 1.96307C35.3503 1.93336 35.4714 1.8431 35.6275 1.96904C35.7837 2.09497 35.7212 2.23247 35.7007 2.27766L34.8171 4.21992H30.1833L29.2997 2.27766C29.2789 2.23247 29.2164 2.09497 29.3726 1.96904Z"
            fill="#AD9C6C" />
    </g>
    <defs>
        <clipPath id="clip0_59_497">
            <rect width="65" height="65" fill="white" />
        </clipPath>
    </defs>
</svg>