<svg xmlns="http://www.w3.org/2000/svg" width="16" height="16" viewBox="0 0 16 16" fill="none">
    <g clip-path="url(#clip0_140_251)">
        <path
            d="M15.7342 5.11594C15.7342 5.11594 15.584 4.05504 15.1211 3.58921C14.5351 2.97611 13.8799 2.97311 13.5794 2.93704C11.4275 2.78076 8.19676 2.78076 8.19676 2.78076H8.19074C8.19074 2.78076 4.95997 2.78076 2.80813 2.93704C2.50759 2.97311 1.85242 2.97611 1.26637 3.58921C0.803543 4.05504 0.656279 5.11594 0.656279 5.11594C0.656279 5.11594 0.5 6.36316 0.5 7.60739V8.77347C0.5 10.0177 0.653274 11.2649 0.653274 11.2649C0.653274 11.2649 0.803542 12.3258 1.26336 12.7917C1.84941 13.4047 2.61879 13.3837 2.9614 13.4498C4.1936 13.567 8.19375 13.6031 8.19375 13.6031C8.19375 13.6031 11.4275 13.5971 13.5794 13.4438C13.8799 13.4078 14.5351 13.4047 15.1211 12.7917C15.584 12.3258 15.7342 11.2649 15.7342 11.2649C15.7342 11.2649 15.8875 10.0207 15.8875 8.77347V7.60739C15.8875 6.36316 15.7342 5.11594 15.7342 5.11594ZM6.60391 10.189V5.86427L10.7603 8.03415L6.60391 10.189Z"
            fill="#AD9C6C" />
    </g>
    <defs>
        <clipPath id="clip0_140_251">
            <rect width="15.3875" height="15.3875" fill="white" transform="translate(0.5 0.5)" />
        </clipPath>
    </defs>
</svg>