<svg width="84" height="50" viewBox="0 0 84 50" fill="none" xmlns="http://www.w3.org/2000/svg">
    <path
        d="M79.1773 49.4663H5.72833C3.09593 49.4663 0.961426 47.4334 0.961426 44.9264V4.984C0.961426 2.47695 3.09593 0.444092 5.72833 0.444092H79.1773C81.8097 0.444092 83.9442 2.47695 83.9442 4.984V44.9255C83.9442 47.4334 81.8097 49.4663 79.1773 49.4663Z"
        fill="#363B38" />
    <path
        d="M79.1773 0.444092H77.8828V21.1073C77.8828 35.1757 65.9083 46.5799 51.1365 46.5799H1.29883C1.99404 48.2677 3.70994 49.4663 5.72827 49.4663H79.1773C81.8097 49.4663 83.9442 47.4334 83.9442 44.9264V4.984C83.9442 2.47695 81.8097 0.444092 79.1773 0.444092Z"
        fill="#2E322F" />
    <path
        d="M18.4545 16.4128H8.27437C7.19282 16.4128 6.31689 15.5777 6.31689 14.5486V9.32813C6.31689 8.29809 7.19375 7.46387 8.27437 7.46387H18.4545C19.5361 7.46387 20.412 8.29896 20.412 9.32813V14.5486C20.412 15.5777 19.5361 16.4128 18.4545 16.4128Z"
        fill="#EAA500" />
    <path
        d="M19.296 25.9351H7.43225C6.86336 25.9351 6.40234 25.4969 6.40234 24.9543C6.40234 24.4116 6.86336 23.9734 7.43225 23.9734H19.297C19.8658 23.9734 20.3269 24.4116 20.3269 24.9543C20.3269 25.4969 19.8649 25.9351 19.296 25.9351Z"
        fill="#545C56" />
    <path
        d="M36.6295 25.9351H24.7657C24.1969 25.9351 23.7358 25.4969 23.7358 24.9543C23.7358 24.4116 24.1969 23.9734 24.7657 23.9734H36.6304C37.1993 23.9734 37.6604 24.4116 37.6604 24.9543C37.6604 25.4969 37.1984 25.9351 36.6295 25.9351Z"
        fill="#545C56" />
    <path
        d="M53.9634 25.9351H42.0978C41.5289 25.9351 41.0679 25.4969 41.0679 24.9543C41.0679 24.4116 41.528 23.9734 42.0978 23.9734H53.9634C54.5323 23.9734 54.9933 24.4116 54.9933 24.9543C54.9933 25.4969 54.5323 25.9351 53.9634 25.9351Z"
        fill="#545C56" />
    <path
        d="M71.2969 25.9351H59.4313C58.8624 25.9351 58.4014 25.4969 58.4014 24.9543C58.4014 24.4116 58.8615 23.9734 59.4313 23.9734H71.2969C71.8658 23.9734 72.3268 24.4116 72.3268 24.9543C72.3268 25.4969 71.8658 25.9351 71.2969 25.9351Z"
        fill="#545C56" />
    <path
        d="M29.5924 42.6046H7.43225C6.86336 42.6046 6.40234 42.1664 6.40234 41.6237C6.40234 41.0819 6.86336 40.6428 7.43225 40.6428H29.5924C30.1612 40.6428 30.6223 41.081 30.6223 41.6237C30.6223 42.1664 30.1612 42.6046 29.5924 42.6046Z"
        fill="#545C56" />
    <path
        d="M29.5923 36.7213H21.8463C21.2774 36.7213 20.8164 36.2831 20.8164 35.7404C20.8164 35.1977 21.2774 34.7595 21.8463 34.7595H29.5923C30.1612 34.7595 30.6222 35.1977 30.6222 35.7404C30.6222 36.2831 30.1612 36.7213 29.5923 36.7213Z"
        fill="#545C56" />
    <path
        d="M68.8765 34.1377C67.4196 34.1377 66.1343 34.7822 65.2732 35.7728C64.4111 34.7822 63.1258 34.1377 61.6699 34.1377C59.0753 34.1377 56.9712 36.1416 56.9712 38.6126C56.9712 41.0837 59.0753 43.0875 61.6699 43.0875C63.1267 43.0875 64.412 42.443 65.2732 41.4525C66.1353 42.443 67.4206 43.0875 68.8765 43.0875C71.4711 43.0875 73.5751 41.0837 73.5751 38.6126C73.5751 36.1407 71.4711 34.1377 68.8765 34.1377Z"
        fill="#545C56" />
    <path
        d="M66.1196 42.2095C66.8923 42.7557 67.8392 43.0867 68.8765 43.0867C71.4711 43.0867 73.5752 41.0829 73.5752 38.6118C73.5752 37.6775 73.2728 36.8117 72.7592 36.0942C70.9336 38.4792 68.6884 40.5525 66.1196 42.2095Z"
        fill="#494F4A" />
</svg>