<svg width="50" height="50" viewBox="0 0 50 50" fill="none" xmlns="http://www.w3.org/2000/svg">
<path d="M9.66667 9.66667H21.1667V21.1667H9.66667V9.66667ZM40.3333 9.66667V21.1667H28.8333V9.66667H40.3333ZM28.8333 30.75H32.6667V26.9167H28.8333V23.0833H32.6667V26.9167H36.5V23.0833H40.3333V26.9167H36.5V30.75H40.3333V36.5H36.5V40.3333H32.6667V36.5H26.9167V40.3333H23.0833V32.6667H28.8333V30.75ZM32.6667 30.75V36.5H36.5V30.75H32.6667ZM9.66667 40.3333V28.8333H21.1667V40.3333H9.66667ZM13.5 13.5V17.3333H17.3333V13.5H13.5ZM32.6667 13.5V17.3333H36.5V13.5H32.6667ZM13.5 32.6667V36.5H17.3333V32.6667H13.5ZM9.66667 23.0833H13.5V26.9167H9.66667V23.0833ZM19.25 23.0833H26.9167V30.75H23.0833V26.9167H19.25V23.0833ZM23.0833 13.5H26.9167V21.1667H23.0833V13.5ZM5.83333 5.83333V13.5H2V5.83333C2 4.81667 2.40387 3.84165 3.12276 3.12276C3.84165 2.40387 4.81667 2 5.83333 2H13.5V5.83333H5.83333ZM44.1667 2C45.1833 2 46.1584 2.40387 46.8772 3.12276C47.5961 3.84165 48 4.81667 48 5.83333V13.5H44.1667V5.83333H36.5V2H44.1667ZM5.83333 36.5V44.1667H13.5V48H5.83333C4.81667 48 3.84165 47.5961 3.12276 46.8772C2.40387 46.1584 2 45.1833 2 44.1667V36.5H5.83333ZM44.1667 44.1667V36.5H48V44.1667C48 45.1833 47.5961 46.1584 46.8772 46.8772C46.1584 47.5961 45.1833 48 44.1667 48H36.5V44.1667H44.1667Z" fill="#B5B5B5"/>
</svg>
