<svg width="60" height="21" viewBox="0 0 60 21" fill="none" xmlns="http://www.w3.org/2000/svg">
<g clip-path="url(#clip0_120333_3502)">
<path d="M31.0305 6.96743C30.9963 9.66649 33.4359 11.1726 35.2737 12.0681C37.1618 12.9869 37.796 13.5761 37.7885 14.3978C37.7745 15.6552 36.2824 16.2102 34.8863 16.2318C32.4504 16.2695 31.0341 15.5742 29.9081 15.0482L29.0306 19.1542C30.1603 19.6748 32.2521 20.1288 34.4212 20.1487C39.513 20.1487 42.8442 17.6352 42.8623 13.7383C42.8822 8.79251 36.0213 8.51876 36.0682 6.30813C36.0844 5.63782 36.724 4.92251 38.1255 4.74063C38.8193 4.64876 40.7344 4.57845 42.9056 5.57829L43.7578 1.60563C42.5902 1.18048 41.0895 0.773369 39.221 0.773369C34.4285 0.773369 31.0577 3.32103 31.0305 6.96743ZM51.9464 1.11556C51.0166 1.11556 50.2331 1.6579 49.8834 2.49017L42.6101 19.8569H47.6981L48.7106 17.0587H54.9281L55.5155 19.8569H60L56.0866 1.11556H51.9464ZM52.6582 6.17829L54.1266 13.2159H50.1052L52.6582 6.17829ZM24.8616 1.11579L20.8509 19.8567H25.6995L29.7082 1.11532L24.8616 1.11579ZM17.689 1.11579L12.6424 13.8717L10.601 3.02548C10.3615 1.8147 9.41555 1.11556 8.36508 1.11556H0.115547L0 1.65977C1.69359 2.02728 3.61781 2.62001 4.78359 3.25423C5.49703 3.64165 5.70047 3.98032 5.93484 4.90095L9.80133 19.8569H14.925L22.7803 1.11556L17.689 1.11579Z" fill="url(#paint0_linear_120333_3502)"/>
</g>
<defs>
<linearGradient id="paint0_linear_120333_3502" x1="2758.44" y1="59.0156" x2="2814.52" y2="-1930.86" gradientUnits="userSpaceOnUse">
<stop stop-color="#222357"/>
<stop offset="1" stop-color="#254AA5"/>
</linearGradient>
<clipPath id="clip0_120333_3502">
<rect width="60" height="19.4531" fill="white" transform="translate(0 0.773438)"/>
</clipPath>
</defs>
</svg>
